<svg width="18" height="18" viewBox="0 0 18 18" fill="none" xmlns="http://www.w3.org/2000/svg">
<path fill-rule="evenodd" clip-rule="evenodd" d="M16.3661 6.71847C16.3483 6.0367 16.322 5.35337 16.2533 4.67536C16.0989 3.15563 15.193 2.10763 13.6944 1.82465C12.8938 1.67315 12.0629 1.65218 11.2448 1.63684C9.74647 1.60929 8.24751 1.61242 6.74887 1.63558C5.97558 1.64779 5.19477 1.67471 4.43275 1.79335C3.1315 1.99525 2.24259 2.74024 1.88321 4.0299C1.7679 4.44309 1.70054 4.88102 1.69051 5.30955C1.65197 6.93696 1.62816 8.56499 1.63348 10.1933C1.63724 11.2291 1.66106 12.2684 1.75098 13.2998C1.88415 14.8252 2.7975 15.8694 4.29677 16.1574C5.10265 16.3117 5.94079 16.3317 6.76547 16.3468C8.25722 16.3756 9.7496 16.3662 11.242 16.3499C11.9369 16.3424 12.6338 16.3042 13.3256 16.2363C13.967 16.1733 14.567 15.9636 15.0824 15.5542C15.9181 14.8906 16.2408 13.9753 16.29 12.9605C16.3567 11.5904 16.3702 10.2184 16.4066 8.84702C16.3943 8.8464 16.3824 8.84639 16.3702 8.84639C16.3705 8.13646 16.3849 7.42715 16.3661 6.71847ZM8.98602 13.6087C6.41987 13.6075 4.37823 11.5465 4.37949 8.95815C4.38043 6.40763 6.45591 4.37298 9.05371 4.3758C11.5895 4.37861 13.6239 6.45865 13.6211 9.04548C13.6186 11.5641 11.5409 13.6094 8.98602 13.6087ZM13.7943 5.28043C13.1934 5.26947 12.7043 4.76989 12.7156 4.17921C12.7272 3.57695 13.2137 3.1093 13.8229 3.11493C14.4301 3.11994 14.8901 3.59856 14.8832 4.21678C14.876 4.80558 14.3796 5.29076 13.7943 5.28043ZM8.99604 5.99709C7.34856 6.00209 5.99937 7.35342 6.00219 8.99586C6.00501 10.6389 7.36141 11.9905 9.00387 11.9874C10.6495 11.9837 12.0008 10.6302 11.998 8.98803C11.9949 7.34403 10.6376 5.99176 8.99604 5.99709ZM17.9811 11.8247C17.9707 12.7684 17.9394 13.716 17.6245 14.6231C17.021 16.3632 15.7953 17.419 14.005 17.7627C13.1919 17.9189 12.3481 17.9355 11.5168 17.9678C10.6768 18.0006 9.83456 17.975 8.99328 17.975C8.99328 17.9834 8.99328 17.9919 8.99297 18C7.77757 17.9787 6.56186 17.9674 5.34677 17.9327C4.29775 17.9027 3.28132 17.7133 2.3708 17.1551C1.17796 16.4233 0.449471 15.3477 0.217296 13.9814C0.0784919 13.1647 0.0289841 12.3255 0.016451 11.4954C-0.0108084 9.71646 -0.000154286 7.93692 0.019272 6.15769C0.0292985 5.21361 0.0606313 4.2664 0.375839 3.35894C0.979307 1.61947 2.20504 0.563642 3.9954 0.220255C4.80848 0.0637432 5.65227 0.0296257 6.48322 0.0167917C8.27012 -0.0107544 10.0583 -0.000425944 11.8458 0.0192945C12.7839 0.0296243 13.7258 0.0615519 14.6278 0.372697C16.3771 0.976207 17.4393 2.20263 17.7809 4.00127C17.9353 4.81388 17.9704 5.65685 17.9833 6.48699C18.0108 8.2659 18.0002 10.0458 17.9811 11.8247Z" fill="white"/>
</svg>