<svg width="31" height="30" viewBox="0 0 31 30" fill="none" xmlns="http://www.w3.org/2000/svg">
<path fill-rule="evenodd" clip-rule="evenodd" d="M25.6987 0H4.40535C1.97257 0 0 1.91885 0 4.28582V25.7142C0 28.0811 1.97257 30 4.40535 30H25.6987C28.1315 30 30.104 28.0811 30.104 25.7142V4.28582C30.104 1.91885 28.1315 0 25.6987 0ZM23.2486 16.6085C23.4672 16.8744 23.7129 17.1174 23.9515 17.3668C24.706 18.155 25.4725 18.9313 26.2097 19.7345C26.4325 19.9775 26.5984 20.2831 26.7482 20.5812C27.0029 21.0878 26.8351 21.4771 26.2944 21.6556C26.0851 21.725 25.8567 21.7613 25.6358 21.767C24.6172 21.7936 23.5974 21.8108 22.578 21.8183C21.9172 21.8236 21.3573 21.5438 20.8832 21.1122C20.5185 20.7803 20.1953 20.4031 19.8528 20.0465C19.5304 19.7105 19.2289 19.3486 18.8782 19.0441C18.2878 18.5319 17.7414 18.662 17.4916 19.4034C17.3335 19.8725 17.2793 20.3825 17.2282 20.8793C17.1706 21.4407 16.9636 21.7325 16.4108 21.7576C15.0513 21.8191 13.703 21.7823 12.4055 21.2682C10.766 20.618 9.47712 19.5339 8.40165 18.1666C6.79448 16.1225 5.55156 13.8613 4.41626 11.5356C4.19123 11.0747 3.97523 10.6094 3.77241 10.1384C3.53647 9.59125 3.71973 9.274 4.31542 9.25713C5.42776 9.22638 6.54085 9.21813 7.65395 9.22488C8.13373 9.22788 8.43477 9.50387 8.61653 9.95012C9.23404 11.467 10.013 12.8987 10.9868 14.2202C11.1629 14.4583 11.3661 14.6848 11.5919 14.8757C12.0521 15.2653 12.4533 15.1573 12.5997 14.5783C12.7171 14.1126 12.7882 13.6239 12.7946 13.1447C12.8044 12.3733 12.7682 11.5997 12.7054 10.8306C12.6505 10.1601 12.2602 9.74462 11.5878 9.60737C11.5253 9.595 11.4655 9.568 11.3582 9.532C11.4937 9.17988 11.7425 8.97701 12.0499 8.89188C12.4427 8.78276 12.8533 8.68226 13.2574 8.67813C14.2275 8.66726 15.204 8.65863 16.167 8.755C17.005 8.83863 17.256 9.18101 17.2568 10.0281C17.2568 11.0717 17.2131 12.1146 17.1981 13.1586C17.1928 13.5118 17.209 13.8662 17.233 14.2191C17.2417 14.3556 17.2861 14.4943 17.3373 14.6233C17.5311 15.1086 17.8607 15.2132 18.2472 14.8678C18.5648 14.5843 18.8545 14.2592 19.1078 13.9164C20.0211 12.6782 20.73 11.326 21.2986 9.89912C21.5157 9.35313 21.6614 9.25826 22.2401 9.25601C23.4465 9.25076 24.6533 9.24588 25.8594 9.23425C26.8298 9.22525 27.103 9.57812 26.6797 10.453C26.3241 11.1872 25.8842 11.8873 25.4187 12.5601C24.8407 13.3956 24.1935 14.1834 23.5873 14.9994C23.4217 15.2229 23.2802 15.4674 23.1534 15.7153C22.9957 16.0254 23.0292 16.3408 23.2486 16.6085Z" fill="white"/>
</svg>