<svg width="96" height="98" viewBox="0 0 96 98" fill="none" xmlns="http://www.w3.org/2000/svg">
<path d="M48.0006 97.965C74.4911 97.965 95.966 76.4901 95.966 49.9996C95.966 23.509 74.4911 2.03418 48.0006 2.03418C21.51 2.03418 0.0351562 23.509 0.0351562 49.9996C0.0351562 76.4901 21.51 97.965 48.0006 97.965Z" fill="#CAFDFF"/>
<path d="M65.5162 83.9031C64.3694 83.9031 63.2923 83.4575 62.4848 82.6499L58.5359 78.7011C56.8676 77.0301 56.8676 74.3127 58.535 72.6426L76.2657 54.9137C77.0732 54.1062 78.1485 53.6623 79.2953 53.6623C80.4421 53.6623 81.5174 54.1062 82.325 54.9129L86.2747 58.8626C87.9448 60.5327 87.9448 63.2501 86.2756 64.9219L68.5467 82.6499C67.74 83.4575 66.663 83.9031 65.5162 83.9031ZM79.2953 56.7146C78.9639 56.7146 78.6552 56.8419 78.4241 57.0722L60.6944 74.7993C60.2147 75.2798 60.2147 76.0621 60.6952 76.5435L64.6441 80.4915C65.1072 80.9528 65.926 80.9528 66.3874 80.4915L84.1163 62.7635C84.5968 62.283 84.5968 61.5007 84.1163 61.0202L80.1666 57.0713C79.9355 56.8411 79.6258 56.7146 79.2953 56.7146Z" fill="#5B31F3"/>
<path d="M30.484 84.2004C29.3372 84.2004 28.261 83.7556 27.4543 82.9472L9.72547 65.2192C8.05453 63.55 8.05455 60.8317 9.72462 59.1599L13.677 55.2101C14.4828 54.4034 15.5581 53.9586 16.7058 53.9586C17.8535 53.9586 18.9287 54.4034 19.7354 55.2101L37.4643 72.9399C38.2719 73.7466 38.7166 74.8219 38.7166 75.9695C38.7166 77.1155 38.2719 78.1916 37.4643 78.9992L33.5146 82.9489C32.707 83.7556 31.6308 84.2004 30.484 84.2004ZM16.7058 57.011C16.3744 57.011 16.0665 57.1383 15.8363 57.3677L11.8839 61.3174C11.4034 61.7988 11.4034 62.5802 11.8839 63.0599L29.6137 80.7896C30.0759 81.251 30.8956 81.251 31.3561 80.7896L35.3059 76.839C35.537 76.6079 35.6634 76.2992 35.6634 75.9687C35.6634 75.6373 35.5361 75.3286 35.3059 75.0983L17.5761 57.3677C17.345 57.1375 17.0372 57.011 16.7058 57.011Z" fill="#5B31F3"/>
<path d="M35.6068 74.765C35.2292 74.765 34.8516 74.6264 34.5559 74.3455C33.9446 73.7656 33.9202 72.8002 34.501 72.188L40.7792 65.5766C40.8229 65.5304 40.8691 65.4868 40.9179 65.4475C41.1883 65.2269 43.6319 63.2996 46.4706 63.685C48.3761 63.944 50.6078 64.0644 51.1337 64.0897C51.4999 64.0382 53.3305 63.7129 54.9159 62.1649C56.4334 60.6824 69.1259 47.7675 70.0608 46.816C70.3285 46.4655 71.0114 45.3099 69.8018 43.9364C68.6567 42.6334 67.284 43.2919 66.7756 43.6137L65.055 45.2576C64.4515 45.8332 63.4991 45.8192 62.914 45.2253C62.3288 44.6314 62.3279 43.6782 62.9122 43.0834C63.9491 42.0291 65.9663 40.0058 66.4032 39.5671C66.6578 39.1878 67.2247 38.0401 66.0151 36.6648C64.843 35.3322 63.5427 36.0596 63.1634 36.3212L61.4218 37.9852C60.8192 38.5607 59.8651 38.5459 59.2808 37.9529C58.6956 37.359 58.6947 36.4058 59.279 35.811C60.3255 34.7471 61.5186 33.6465 61.8177 33.3726C62.1116 33.0142 62.8398 31.8761 61.666 30.5435C60.5218 29.2432 59.3471 29.5999 58.8587 29.8354L56.7735 31.856C56.1674 32.4412 55.2029 32.4264 54.6151 31.822C54.0282 31.2177 54.0439 30.2505 54.6491 29.6636L54.6648 29.6479L56.8843 27.4964C56.8904 27.4903 56.8965 27.4842 56.9026 27.4781L57.5907 26.8101C57.8505 26.3924 58.5134 25.0554 57.3038 23.8484C56.1221 22.6676 55.0215 23.3095 54.5697 23.6714L48.7301 29.4534C48.1301 30.0473 47.1647 30.043 46.5717 29.443C45.9778 28.8429 45.983 27.8775 46.5822 27.2845L52.4705 21.4545C52.4923 21.4327 52.5159 21.4109 52.5386 21.3909C53.9557 20.1499 56.9688 19.2028 59.4604 21.6874C61.1017 23.3269 61.2544 25.1941 60.9055 26.6671C61.9207 26.8764 62.9881 27.4232 63.957 28.5246C65.2956 30.0456 65.5267 31.5979 65.2886 32.8912C66.2994 33.0517 67.3503 33.561 68.3053 34.6459C70.1009 36.6875 69.9954 38.8102 69.4521 40.25C70.353 40.4724 71.2643 40.9791 72.091 41.9192C74.5582 44.7204 73.3477 47.6558 72.364 48.8166C72.3396 48.8445 72.3143 48.8724 72.2881 48.8995C71.7317 49.4655 58.6363 62.7937 57.0448 64.3469C54.4537 66.8769 51.4205 67.1307 51.2915 67.1403C51.233 67.1446 51.1729 67.1455 51.1118 67.1429C51.0002 67.1385 48.3586 67.0208 46.0554 66.7086C44.8171 66.5438 43.4043 67.381 42.9141 67.7542L36.7091 74.288C36.4135 74.6063 36.0106 74.765 35.6068 74.765Z" fill="#5B31F3"/>
<path d="M18.9943 58.1523C18.6097 58.1523 18.2242 58.0075 17.9268 57.7171C17.3251 57.1276 17.3138 56.1622 17.9033 55.5587L24.7065 48.6011C25.2952 47.9976 26.2606 47.988 26.865 48.5775C27.4667 49.1671 27.478 50.1325 26.8885 50.736L20.0853 57.6936C19.7862 57.9997 19.3902 58.1523 18.9943 58.1523Z" fill="#5B31F3"/>
<path d="M60.2471 74.614C59.8573 74.614 59.4657 74.4648 59.1683 74.1675L51.411 66.4162C50.8145 65.8197 50.8145 64.8535 51.4102 64.2569C52.0067 63.6604 52.9729 63.6613 53.5694 64.2561L61.3268 72.0073C61.9233 72.6038 61.9233 73.5701 61.3276 74.1666C61.0285 74.4649 60.6378 74.614 60.2471 74.614Z" fill="#5B31F3"/>
<path d="M76.4132 58.1523C76.0251 58.1523 75.6362 58.0049 75.3388 57.7101L68.321 50.7525C67.7228 50.1586 67.7192 49.1924 68.3114 48.5932C68.907 47.9959 69.8716 47.9923 70.4707 48.5836L77.4885 55.5412C78.0868 56.1351 78.0902 57.1014 77.4981 57.7006C77.1981 58.0014 76.8057 58.1523 76.4132 58.1523Z" fill="#5B31F3"/>
<path d="M28.7792 52.6507C27.5007 52.6507 26.2928 52.1632 25.3789 51.2798L23.3966 49.3673C22.4583 48.4612 21.928 47.2411 21.9045 45.9303C21.8809 44.6196 22.3667 43.3803 23.2728 42.4428L23.9129 41.7791C24.8408 40.8172 26.0932 40.287 27.4371 40.287C28.7147 40.287 29.9225 40.7736 30.8374 41.6562L32.8214 43.5696C34.7636 45.4472 34.8176 48.5536 32.9444 50.4949L32.3025 51.1586C31.3894 52.1065 30.104 52.6507 28.7792 52.6507ZM27.4371 43.3384C26.9286 43.3384 26.4568 43.5382 26.1097 43.8984L25.4687 44.5629C25.1295 44.9135 24.9472 45.38 24.9559 45.8754C24.9655 46.3699 25.1635 46.8312 25.5167 47.1705L27.4998 49.0838C28.2054 49.7658 29.429 49.7423 30.1075 49.0385L30.7493 48.3748C31.4548 47.6431 31.4339 46.4719 30.7013 45.7646L28.719 43.853C28.3746 43.5216 27.9193 43.3384 27.4371 43.3384Z" fill="#5B31F3"/>
<path d="M34.3413 47.3356C33.0637 47.3356 31.8559 46.849 30.941 45.9656L26.0904 41.2859C24.1474 39.41 24.0933 36.3036 25.9683 34.3614L26.6084 33.6977C27.5363 32.7349 28.7887 32.2056 30.1326 32.2056C31.4102 32.2056 32.6181 32.6922 33.532 33.5748L38.3826 38.2562C40.3265 40.1312 40.3806 43.2385 38.5047 45.1807L37.8637 45.8435C36.9367 46.8054 35.6852 47.3356 34.3413 47.3356ZM30.1334 35.2571C29.6259 35.2571 29.1541 35.4559 28.8061 35.8169L28.1651 36.4815C27.4587 37.2132 27.4797 38.3827 28.2114 39.0891L33.062 43.7687C33.7692 44.4516 34.991 44.428 35.6695 43.7234L36.3114 43.0597C37.0178 42.328 36.9969 41.1577 36.2643 40.4513L31.4137 35.7699C31.0701 35.4393 30.6157 35.2571 30.1334 35.2571Z" fill="#5B31F3"/>
<path d="M39.6429 41.7842C38.3653 41.7842 37.1574 41.2976 36.2435 40.415L30.3525 34.7281C29.4141 33.822 28.8839 32.6019 28.8612 31.2912C28.8385 29.9804 29.3243 28.742 30.2304 27.8045L30.8696 27.1408C31.7984 26.178 33.0507 25.6487 34.3946 25.6487C35.6723 25.6487 36.8801 26.1353 37.7941 27.0179L43.6843 32.7048C44.6226 33.61 45.1529 34.831 45.1764 36.1409C45.1991 37.4516 44.7133 38.69 43.8081 39.6284L43.1671 40.2929C42.2383 41.254 40.9868 41.7842 39.6429 41.7842ZM34.3946 28.701C33.8862 28.701 33.4144 28.8999 33.0664 29.2609L32.4272 29.9246C32.0862 30.2769 31.9039 30.7426 31.9126 31.2388C31.9222 31.7333 32.1202 32.1938 32.4726 32.533L38.3636 38.22C39.0691 38.8985 40.2935 38.8767 40.972 38.1729L41.6121 37.5092C41.9514 37.1577 42.1345 36.6912 42.1249 36.1958C42.1162 35.7005 41.9183 35.2409 41.5651 34.9016L35.674 29.2147C35.3313 28.8833 34.8769 28.701 34.3946 28.701Z" fill="#5B31F3"/>
<path d="M45.0159 36.3838C43.7374 36.3838 42.5296 35.8972 41.6156 35.0146L34.3336 27.9855C32.3914 26.1114 32.3374 23.0041 34.2115 21.0619L34.849 20.3991C35.7664 19.4494 37.0502 18.9061 38.3758 18.9061C39.6542 18.9061 40.8621 19.3927 41.7761 20.2753C41.8676 20.3642 41.9479 20.4637 42.015 20.5727C42.0325 20.6006 43.7601 23.4 44.8267 24.6907C45.5497 25.5663 47.5005 26.5622 48.561 26.9843C48.745 27.0576 48.9142 27.1666 49.0572 27.3044C50.9985 29.1785 51.0535 32.2841 49.1811 34.2271L48.5401 34.8925C47.6252 35.8405 46.3406 36.3838 45.0159 36.3838ZM38.3767 21.9584C37.8682 21.9584 37.3955 22.1573 37.0475 22.5183L36.4109 23.1802C35.7028 23.9137 35.7237 25.084 36.4554 25.7904L43.7374 32.8195C44.4403 33.498 45.6682 33.4771 46.3467 32.7724L46.9869 32.1088C47.6331 31.4373 47.6697 30.396 47.1063 29.6844C46.1793 29.2867 43.7148 28.1346 42.4764 26.6364C41.4368 25.3788 39.9638 23.0503 39.5365 22.3648C39.2103 22.1015 38.804 21.9584 38.3767 21.9584Z" fill="#5B31F3"/>
<path d="M54.3856 23.5422C54.1223 23.5422 53.8562 23.4741 53.6129 23.3311C53.5484 23.2962 52.2786 22.623 48.7309 21.9314C44.7847 21.1596 43.0501 20.9503 43.0335 20.9485C42.9742 20.9407 42.9131 20.9302 42.8547 20.9163C42.2687 20.7916 41.8893 20.9756 41.7437 21.4605C41.5012 22.268 40.6492 22.7241 39.8425 22.4826C39.0349 22.2401 38.578 21.3889 38.8204 20.5814C39.5817 18.0514 41.9826 17.6067 43.4757 17.9276C43.8751 17.9782 45.6743 18.2241 49.3161 18.9349C53.4499 19.7424 54.929 20.5578 55.1827 20.714C55.9022 21.1535 56.129 22.0927 55.6894 22.8113C55.4016 23.2823 54.9002 23.5422 54.3856 23.5422Z" fill="#5B31F3"/>
<path d="M47.8073 9.83384C47.325 9.83384 46.9352 9.44401 46.9352 8.96174V1.60647C46.9352 1.1242 47.325 0.734375 47.8073 0.734375C48.2896 0.734375 48.6794 1.1242 48.6794 1.60647V8.96174C48.6794 9.44401 48.2896 9.83384 47.8073 9.83384Z" fill="#5B31F3"/>
<path d="M67.4742 13.6631C67.257 13.6631 67.0399 13.5829 66.8715 13.4206C66.5236 13.0875 66.5114 12.5355 66.8454 12.1884L71.9332 6.87729C72.2672 6.52932 72.8193 6.51711 73.1655 6.85113C73.5135 7.18427 73.5257 7.73631 73.1917 8.08341L68.1038 13.3945C67.932 13.5724 67.7036 13.6631 67.4742 13.6631Z" fill="#5B31F3"/>
<path d="M28.4049 13.5854C28.1825 13.5854 27.9601 13.5008 27.7901 13.3316L22.2182 7.79028C21.8764 7.45016 21.8746 6.899 22.2147 6.55713C22.5548 6.21614 23.106 6.21352 23.4479 6.55363L29.0197 12.0949C29.3616 12.4351 29.3633 12.9862 29.0232 13.3281C28.8531 13.499 28.629 13.5854 28.4049 13.5854Z" fill="#5B31F3"/>
</svg>