<svg width="96" height="96" viewBox="0 0 96 96" fill="none" xmlns="http://www.w3.org/2000/svg">
<path d="M48.0006 95.965C74.4911 95.965 95.966 74.4901 95.966 47.9996C95.966 21.509 74.4911 0.0341797 48.0006 0.0341797C21.51 0.0341797 0.0351562 21.509 0.0351562 47.9996C0.0351562 74.4901 21.51 95.965 48.0006 95.965Z" fill="#CAFDFF"/>
<path d="M65.6572 79.5705H25.1396C23.1233 79.5705 21.9224 78.7655 21.2692 78.0905C19.8198 76.5914 19.8442 74.5777 19.852 74.3527L19.8512 31.9164C19.8512 28.8615 21.4079 27.0728 21.5849 26.8801C21.9311 26.5269 29.1975 19.1463 30.4323 18.0352C32.0004 16.6233 34.5992 16.448 34.8905 16.4314L65.1985 16.4297C67.1154 16.4297 68.2735 17.2137 68.9084 17.8713C70.3901 19.4096 70.357 21.5384 70.3483 21.7765L70.3491 37.8641H67.2968V21.7198C67.3029 21.3797 67.2052 20.4928 66.7003 19.9791C66.3706 19.6442 65.8796 19.482 65.1976 19.482H34.9707C34.4736 19.5134 33.0765 19.7602 32.4739 20.3035C31.539 21.1443 26.3901 26.3463 23.7983 28.9801C23.8026 28.9801 22.9035 30.0492 22.9035 31.9155V74.4033C22.9026 74.4478 22.9 75.3992 23.4765 75.9818C23.8288 76.3376 24.3887 76.5181 25.1396 76.5181H65.202C65.966 76.2487 67.2968 75.551 67.2959 74.7678V68.6413H70.3483V74.7669C70.35 77.4922 67.5305 79.0315 65.8631 79.5103L65.6572 79.5705Z" fill="#5B31F3"/>
<path d="M59.7358 30.7303H41.3302C40.0447 30.7303 38.9999 29.6865 38.9999 28.4019V25.2544C38.9999 23.9698 40.0447 22.9251 41.3302 22.9251H59.7358C61.0204 22.9251 62.0643 23.9698 62.0643 25.2544V28.4019C62.0643 29.6865 61.0204 30.7303 59.7358 30.7303ZM41.3293 24.6693C41.0066 24.6693 40.7433 24.9318 40.7433 25.2544V28.4019C40.7433 28.7237 41.0066 28.9861 41.3293 28.9861H59.7349C60.0567 28.9861 60.3193 28.7237 60.3193 28.4019V25.2544C60.3193 24.9379 60.0515 24.6693 59.7349 24.6693H41.3293Z" fill="#5B31F3"/>
<path d="M52.4353 39.0223H27.9311V40.7665H52.4353V39.0223Z" fill="#5B31F3"/>
<path d="M52.4353 45.4199H27.9311V47.1641H52.4353V45.4199Z" fill="#5B31F3"/>
<path d="M52.4353 51.8159H27.9311V53.5601H52.4353V51.8159Z" fill="#5B31F3"/>
<path d="M53.0641 58.2127H28.5599V59.9569H53.0641V58.2127Z" fill="#5B31F3"/>
<path d="M40.1832 67.5886H28.5599V69.3328H40.1832V67.5886Z" fill="#5B31F3"/>
<path d="M31.7197 30.4659H21.3757V28.7217H31.7197C32.0362 28.7217 32.304 28.4531 32.304 28.1356V18.2818H34.0482V28.1356C34.0482 29.4211 33.0043 30.4659 31.7197 30.4659Z" fill="#5B31F3"/>
<path d="M68.8222 65.2037C67.9335 65.2037 67.0788 64.806 66.4771 64.1118L66.116 63.6967C65.953 63.5092 65.5404 63.3173 65.1262 63.3173C65.0189 63.3173 64.9204 63.3313 64.8471 63.3566L64.3265 63.5354C63.982 63.654 63.6279 63.7141 63.273 63.7141C61.7869 63.7141 60.5486 62.6746 60.2625 61.1859L60.1579 60.6496C60.0855 60.2781 59.6015 59.7932 59.2317 59.7217L58.6866 59.6162C57.7857 59.4409 57.0139 58.9002 56.57 58.131C56.1253 57.3618 56.0424 56.4225 56.3398 55.5531L56.5221 55.0272C56.6433 54.674 56.4654 54.0103 56.1802 53.7626L55.7651 53.4025C55.07 52.799 54.6724 51.9426 54.6724 51.0548C54.6724 50.167 55.0709 49.3123 55.7651 48.7097L56.1793 48.3495C56.4645 48.101 56.6424 47.4373 56.5203 47.0797L56.3416 46.5626C56.0416 45.6896 56.1253 44.7504 56.5692 43.982C57.0131 43.2129 57.784 42.6713 58.6857 42.4951L59.2343 42.3905C59.5997 42.3189 60.0855 41.8332 60.1579 41.4643L60.2634 40.921C60.5521 39.4349 61.7896 38.3963 63.2739 38.3963C63.6271 38.3963 63.982 38.4564 64.3247 38.5742L64.8506 38.7564C64.9186 38.7791 65.0181 38.7939 65.1253 38.7939C65.5396 38.7939 65.9521 38.6021 66.1134 38.4163L66.478 37.9977C67.0797 37.3044 67.9352 36.9076 68.8222 36.9076C69.7091 36.9076 70.5646 37.3044 71.1672 37.9968L71.5318 38.4172C71.6914 38.6012 72.1056 38.7939 72.5207 38.7939C72.6271 38.7939 72.7257 38.7791 72.798 38.7547L73.3187 38.575C73.6641 38.4564 74.0181 38.3963 74.3713 38.3963C75.853 38.3963 77.0914 39.4332 77.3827 40.9192L77.4882 41.4634C77.5606 41.8341 78.0463 42.319 78.4161 42.3913L78.9533 42.4943C79.8603 42.6713 80.633 43.2137 81.0769 43.9838C81.5208 44.753 81.6027 45.6922 81.3027 46.5608L81.1213 47.0841C81.0001 47.4373 81.178 48.101 81.4632 48.3486L81.8792 48.7088C82.5743 49.3123 82.9728 50.167 82.9728 51.0548C82.9728 51.9426 82.5751 52.799 81.881 53.4016L81.4615 53.7652C81.1798 54.0103 81.0019 54.674 81.124 55.0315L81.3027 55.5487C81.6036 56.4199 81.5208 57.36 81.0769 58.1292C80.633 58.8993 79.8603 59.4409 78.9568 59.6162L78.417 59.7217C78.0446 59.7932 77.5614 60.279 77.4891 60.6479L77.3836 61.1903C77.0923 62.6772 75.8547 63.715 74.3731 63.715C74.0181 63.715 73.664 63.6548 73.3196 63.5362L72.7989 63.3575C72.7248 63.3322 72.6262 63.3182 72.5198 63.3182C72.1065 63.3182 71.6922 63.5109 71.53 63.6967L71.1707 64.1118C70.5646 64.806 69.7091 65.2037 68.8222 65.2037ZM65.1262 60.2659C66.3934 60.2659 67.6544 60.8135 68.4192 61.6952L68.8187 62.1487L69.2251 61.6952C70.2637 60.4996 72.2783 59.951 73.7914 60.4717L74.3129 60.6505L74.4925 60.0661C74.8013 58.4711 76.2394 57.0339 77.8353 56.726L78.3743 56.6205L78.2382 56.0275C77.7097 54.4865 78.2347 52.5251 79.46 51.4603L79.8795 51.0966L79.4618 50.6527C78.2347 49.5853 77.7088 47.6239 78.2364 46.0882L78.4187 45.5623L77.837 45.3879C76.2376 45.0765 74.8021 43.6393 74.4925 42.0443L74.387 41.5027L73.7923 41.6405C72.2722 42.1629 70.2629 41.6099 69.2268 40.4178L68.8631 39.9983L68.4175 40.4178C67.6544 41.2977 66.3925 41.8463 65.1253 41.8463C64.6779 41.8463 64.2497 41.7774 63.8556 41.6422L63.3288 41.4599L63.1535 42.046C62.8448 43.6402 61.4084 45.0774 59.8134 45.3879L59.2648 45.4925L59.4061 46.0847C59.9346 47.6257 59.4096 49.587 58.1843 50.6519L57.7692 51.0129L58.1834 51.4603C59.4096 52.5269 59.9355 54.4882 59.4078 56.024L59.2256 56.5499L59.8125 56.7269C61.4067 57.0356 62.8448 58.472 63.1535 60.0688L63.259 60.6077L63.8529 60.4725C64.2498 60.3348 64.6771 60.2659 65.1262 60.2659Z" fill="#5B31F3"/>
<path d="M68.9058 59.1361C64.6264 59.1361 61.1441 55.6538 61.1441 51.3736C61.1441 47.0924 64.6264 43.6101 68.9058 43.6101C73.1869 43.6101 76.6692 47.0924 76.6692 51.3736C76.6701 55.6538 73.1878 59.1361 68.9058 59.1361ZM68.9058 45.3543C65.5875 45.3543 62.8883 48.0552 62.8883 51.3736C62.8883 54.6919 65.5883 57.3919 68.9058 57.3919C72.225 57.3919 74.925 54.6919 74.925 51.3736C74.925 48.0552 72.225 45.3543 68.9058 45.3543Z" fill="#5B31F3"/>
<path d="M74.9225 73.8456L68.7803 70.1418L62.0398 73.6982V62.258H64.6561V69.3604L68.8658 67.1392L72.3062 69.213V62.258H74.9225V73.8456Z" fill="#5B31F3"/>
</svg>