<svg width="60" height="60" viewBox="0 0 60 60" fill="none" xmlns="http://www.w3.org/2000/svg">
<rect width="60" height="60" fill="#552CE8"/>
<mask id="mask0" mask-type="alpha" maskUnits="userSpaceOnUse" x="8" y="8" width="43" height="44">
<ellipse cx="29.6994" cy="30.2258" rx="21.3" ry="21.2261" fill="#C4C4C4"/>
</mask>
<g mask="url(#mask0)">
<path d="M29.715 51.5741C41.4787 51.5741 51.015 42.0709 51.015 30.348C51.015 18.6251 41.4787 9.12189 29.715 9.12189C17.9514 9.12189 8.41504 18.6251 8.41504 30.348C8.41504 42.0709 17.9514 51.5741 29.715 51.5741Z" fill="#481CC3" stroke="url(#paint0_linear)" stroke-miterlimit="10"/>
<path d="M51.2078 30.2136C51.0115 24.0945 49.552 19.3413 47.781 19.3413C46.9722 19.3413 46.2295 20.3312 45.6411 21.9886V21.988C45.6388 21.994 45.6371 22.0002 45.6351 22.0061C45.5757 22.1748 45.5181 22.35 45.4616 22.5317C44.5352 25.3774 43.3381 29.6127 41.6299 29.6127C39.764 29.6127 38.9977 25.9016 37.5934 23.6004C37.0557 22.6888 36.4213 22.1615 35.7414 22.1615C34.8261 22.1615 33.9931 23.1156 33.3694 24.6767C32.5967 26.216 31.7259 27.892 30.5127 27.892C28.3634 27.892 26.5384 21.0371 25.4291 17.9052L25.4296 17.9064C24.6299 15.3924 23.6069 13.8833 22.4919 13.8833C21.225 13.8833 20.0762 15.833 19.2399 18.9915C18.1692 22.2173 16.9744 28.1971 15.1679 28.1971C14.367 28.1971 13.7351 26.8488 13.1816 25.4411C12.5343 23.4322 11.5784 22.1615 10.512 22.1615C8.74351 22.1615 7.2792 25.655 7.02246 30.2136H51.2078V30.2136Z" fill="#44E0E8"/>
<path d="M7.03137 30.2132C7.00467 30.6796 6.99133 31.1573 6.99133 31.6433C6.99133 32.4878 7.03251 33.3071 7.10947 34.0866C7.11345 34.1253 7.11714 34.1644 7.12111 34.2032C6.5835 34.8295 6.87546 35.1125 7.29692 35.5531C7.3097 35.5891 7.31623 35.625 7.32247 35.661C7.34122 35.7682 7.36138 35.8749 7.38069 35.9805C7.38779 36.0153 7.39631 36.0507 7.40625 36.0849C8.33323 36.2445 7.16713 37.0936 7.69963 37.3757C7.71695 37.4072 7.72689 37.4383 7.73569 37.4691C7.79845 37.6859 7.86434 37.8942 7.93364 38.0954C7.94414 38.1243 7.95409 38.1523 7.96517 38.1806C8.14863 38.3448 8.16822 38.5681 8.19577 38.792C8.20031 38.8378 8.20458 38.8837 8.20969 38.9301C8.62404 39.358 7.74989 39.641 8.04099 39.924C8.18697 40.0655 8.40536 39.9948 8.59167 39.9506C8.63768 39.9396 8.68198 39.9302 8.72259 39.9263C8.62376 39.924 8.91571 39.924 8.9106 39.9965C8.92991 40.029 8.94269 40.0743 8.94667 40.1363C8.96655 40.1612 8.98557 40.1861 9.00488 40.2104C9.46354 40.7974 9.97787 41.1262 10.5197 41.1262C11.0238 41.1262 11.5032 40.8421 11.9363 40.3307C11.973 40.2883 12.009 40.2438 12.0406 40.1985C12.1221 39.9237 11.8304 39.6407 11.539 39.6407C11.7719 39.1879 12.1919 39.2782 12.4632 39.1067C12.5307 39.0636 12.5895 39.0045 12.6512 38.9136C13.2879 38.7914 13.5798 38.5084 13.8709 38.2253C13.8709 38.2253 13.5798 38.2254 13.6685 38.0844C13.7045 38.0646 13.7412 38.0431 13.7755 38.0196C13.8099 37.9958 13.842 37.9703 13.8709 37.9423C13.8709 37.6593 13.2879 37.3763 13.0627 37.0596C13.0144 37.0226 12.9707 36.9872 12.9318 36.9518C12.7775 36.8103 12.7048 36.6688 12.9962 36.5273C13.2879 36.5273 13.5798 36.5273 13.8709 36.5273C14.1626 35.9612 13.8709 35.6782 13.2879 35.3952C13.5066 35.3952 13.725 35.3952 13.9436 35.2758C14.0169 35.2359 14.0896 35.183 14.0436 35.1111C13.9976 35.1111 13.951 35.1099 13.9033 35.1077C13.7596 35.1011 13.606 35.0844 13.4878 35.0428C13.4483 35.029 13.4146 35.0126 13.3907 34.9931C13.5123 34.7055 14.2782 34.8365 14.6261 34.5895C14.6644 34.5617 14.6977 34.5297 14.7249 34.4915C14.746 34.2626 14.7459 33.9796 14.6738 33.5978C14.6894 33.5635 14.7042 33.5299 14.7187 33.4968C15.0708 32.7306 15.4426 32.2 15.8226 32.2C16.11 32.2 16.3656 32.3828 16.5954 32.7023C16.6238 32.7428 16.6519 32.7847 16.6797 32.8288C16.7075 32.873 16.7345 32.9188 16.7606 32.9669C16.7757 33.2273 17.2775 33.3363 17.5161 33.57C17.5499 33.6037 17.5788 33.6397 17.5999 33.679C17.6609 33.9796 17.9526 33.9796 18.244 33.9796C18.5356 34.5456 17.6609 34.5456 17.5036 35.0015C17.4809 35.044 17.4709 35.0816 17.4624 35.1147C17.3332 35.61 17.0597 35.1292 16.7868 35.3944C17.3698 35.6774 17.6609 36.2434 18.244 36.2434C18.244 36.8094 17.3698 36.5264 17.3698 37.0925C17.6126 37.0925 17.8557 37.2886 17.9554 37.4439C17.9753 37.4754 17.9892 37.5048 17.9969 37.5308C18.0236 37.5512 18.0491 37.5713 18.0736 37.5917C18.1003 37.6115 18.1253 37.6316 18.1511 37.6514C18.2437 37.9415 18.5356 37.9415 18.8267 37.9415C18.8267 38.0123 18.8267 38.1006 18.8185 38.1951C18.8103 38.289 18.7907 38.3898 18.754 38.484C18.7174 38.5791 18.6632 38.668 18.5805 38.7393C18.499 38.8112 18.3891 38.8652 18.2431 38.8901C18.2477 38.9417 18.2559 38.9929 18.2641 39.0444C18.2886 39.1981 18.3124 39.3506 18.3363 39.5015C18.3647 39.7248 18.3945 39.9452 18.4255 40.1632C18.4314 40.2067 18.4377 40.25 18.4405 40.2948C18.2437 41.0544 19.9931 40.7714 19.4095 41.0544C19.1184 41.3374 18.8265 41.9034 18.3527 41.8757C18.3289 41.9088 18.3096 41.9425 18.294 41.9762C18.2619 42.0446 18.2434 42.1154 18.2434 42.1862C18.8265 42.1862 18.5351 42.7522 19.2323 42.7567C19.2834 42.7794 19.33 42.8042 19.3732 42.8314C19.5873 42.9647 19.7009 43.1416 19.7009 43.3185C19.7009 43.507 19.5711 43.5701 19.3925 43.6895C19.3476 43.7192 19.2999 43.7532 19.2505 43.7928C19.1178 44.1676 18.8262 44.1675 18.5348 44.1675C18.5348 44.7336 19.4089 44.7336 19.4939 45.2102C19.535 45.2416 19.5754 45.2738 19.6137 45.3075C19.652 45.3412 19.6887 45.3755 19.7242 45.4114C19.7475 45.4352 19.7702 45.4595 19.7975 45.4861C20.867 45.8659 20.2839 46.1489 19.9928 46.715C20.5759 46.1489 21.4501 46.4319 22.0331 46.1489C21.742 46.715 21.45 46.7149 20.8715 46.726C20.8193 46.7331 20.7733 46.7376 20.729 46.7441C20.5509 46.7713 20.3791 46.8468 20.2482 47.1233C20.247 47.1483 20.251 47.176 20.2592 47.2063C20.2675 47.2365 20.2808 47.2705 20.3004 47.3073C20.3069 47.3399 20.3226 47.3721 20.3388 47.4041C20.9843 48.7102 21.7198 49.4503 22.5003 49.4503C23.2574 49.4503 23.9725 48.7532 24.6042 47.5173C24.6209 47.4853 24.6374 47.4522 24.6553 47.4182C24.7041 47.3481 24.7689 47.2895 24.8404 47.2368C24.8759 47.2102 24.9131 47.1853 24.9509 47.1616C25.4496 46.9697 25.5737 46.8604 25.5666 46.7039C25.5649 46.6779 25.5607 46.6504 25.5561 46.621C25.5317 46.1484 25.8228 45.8653 25.4752 45.3166C25.4811 45.2871 25.4908 45.258 25.4996 45.2283C25.5184 45.1691 25.5362 45.1088 25.5538 45.0486C25.5649 45.0115 25.576 44.9744 25.5871 44.9368C25.5317 44.4503 26.1145 44.4503 26.4064 44.4503C26.3476 44.3934 26.2783 44.3481 26.2005 44.3099C26.1622 44.2906 26.1224 44.2728 26.0807 44.2564C26.0125 44.2807 25.9614 44.2884 25.9236 44.2841C25.887 44.2785 25.8637 44.2609 25.8503 44.2332C25.5314 43.3185 27.2803 43.8845 26.9696 42.7525C26.9713 42.716 26.9707 42.6783 26.9614 42.6376C26.9503 42.5198 26.8654 42.3755 26.668 42.191C26.6447 42.155 26.6169 42.1202 26.5865 42.0871C26.4033 41.8864 26.1094 41.7277 26.1045 41.5525C26.0929 41.5228 26.0818 41.4922 26.0707 41.4619C26.0446 41.3906 26.0179 41.3176 25.9909 41.2432C25.8228 41.3377 25.5317 41.0547 25.8228 40.7716C26.1145 40.7716 26.4064 40.2056 26.9892 40.4886C26.9892 40.2056 26.9892 40.2056 26.81 40.1371C26.8066 40.089 26.8171 40.0386 26.8293 39.9874C26.8421 39.9365 26.8549 39.8858 26.8676 39.8343C26.8759 39.8006 26.885 39.7664 26.8932 39.7321C26.6975 39.6399 26.4061 39.0738 25.8225 39.3568C25.852 39.3 25.8813 39.249 25.9108 39.2032C25.9404 39.1573 25.9702 39.1163 26.0011 39.0798C26.4061 38.5078 26.9892 38.2248 26.9892 37.7649C26.9892 37.7295 26.9892 37.6941 26.9892 37.6588C27.2803 37.3757 27.8633 37.0927 28.155 36.8097C27.8633 37.0927 27.572 36.5267 27.2803 36.5267C27.8633 36.8097 27.2803 35.6777 27.7656 35.996C27.8011 35.9607 27.8366 35.9247 27.8721 35.8877C27.9071 35.8506 27.942 35.8129 27.9758 35.7739C27.9857 35.7413 27.9963 35.7088 28.0068 35.676C28.0389 35.5758 28.0712 35.477 28.1033 35.3791C28.1195 35.3304 28.1354 35.2817 28.1561 35.2376C28.2288 35.2271 28.2936 35.2132 28.351 35.1971C28.8258 35.1368 29.1115 34.9803 29.4398 34.892C29.487 34.8793 29.5347 34.8677 29.5841 34.8583C29.6131 34.8286 29.9042 34.8286 29.9042 34.8286C29.6131 34.5456 29.6131 34.5456 29.31 34.2903C29.2646 34.2649 29.2186 34.2428 29.1726 34.2207C28.9874 34.1324 28.8042 34.0455 28.654 33.9012C28.6707 33.8607 28.6878 33.8211 28.7045 33.7823C28.7179 33.752 28.7318 33.7215 28.7452 33.6923C28.4467 33.1308 29.6133 33.1308 29.3214 32.8478C29.3214 32.8478 29.0297 32.8478 28.7383 32.8478C29.3214 32.5648 29.9042 32.5648 30.4872 32.2818C30.1961 31.9987 30.1961 32.8478 29.6131 32.5648C30.1961 32.5648 30.4872 32.5648 31.0703 32.8478H30.7792C30.9899 32.9842 31.1498 33.1203 31.2634 33.2613C31.2918 33.2961 31.3171 33.3315 31.3395 33.3674C31.3622 33.9799 30.7792 34.2629 31.4128 34.8583C31.44 34.8866 31.4738 34.9099 31.5159 34.9251C31.5573 34.9413 31.6067 34.9489 31.6596 34.9455C31.713 34.9415 31.7695 34.9257 31.8271 34.894C31.9453 35.1119 31.9453 35.1119 32.2119 35.1736C32.2369 35.2013 32.2631 35.2316 32.2886 35.2642C32.3003 35.2979 32.3119 35.331 32.3236 35.3647C32.3358 35.3978 32.3497 35.4303 32.3713 35.4586C32.5283 35.3943 32.82 35.9604 33.1111 35.6774C33.4028 36.5264 32.2364 36.2434 32.1776 36.6883C32.1719 36.7226 32.1881 36.7619 32.2364 36.8094C32.82 36.8094 33.6941 36.8094 33.9858 37.6585C33.8398 37.517 33.6941 37.5877 33.5521 37.6998C33.4817 37.7556 33.4113 37.8226 33.334 37.8772C32.8197 37.9415 32.8197 38.5075 32.8242 38.6904C32.7748 38.7071 32.7229 38.7192 32.6689 38.7291C32.6147 38.739 32.5584 38.7464 32.5025 38.7523C32.446 38.7588 32.3889 38.7639 32.3321 38.7699C32.8197 39.3563 31.0703 37.9412 31.9194 39.0744C31.9666 39.075 32.0143 39.0761 32.0631 39.0778C32.6013 39.0939 33.2525 39.1678 33.7711 39.5156C33.8165 39.5799 33.8526 39.6427 33.8881 39.7041C33.9242 39.7655 33.9608 39.8252 33.9974 39.8833C34.0156 39.9121 34.0341 39.9407 34.0534 39.969C34.5686 40.2056 34.5686 41.0547 35.3453 41.0946C35.3891 41.1084 35.4339 41.12 35.4785 41.1294C35.5677 41.1475 35.6583 41.1571 35.7497 41.1571C36.3799 41.1571 36.9712 40.7049 37.4821 39.9133C37.5554 39.8006 37.6264 39.6806 37.6963 39.5538C37.4838 39.0736 37.1927 38.5075 37.9669 38.2774C37.9797 38.209 37.9746 38.1416 37.9769 38.0813C38.0067 37.4151 39.2171 37.5937 39.0441 36.885C39.0365 36.8578 39.0265 36.8304 39.0137 36.8021C39.1969 36.3362 40.2389 36.2587 39.9194 35.8331C39.8879 35.7906 39.8424 35.7447 39.7646 35.6921C39.5244 35.6771 39.2333 35.1111 38.9416 35.1111C39.2333 34.545 39.8163 34.828 40.1847 34.4556C40.2241 34.4086 40.2608 34.3622 40.2977 34.3181C40.7061 33.8268 41.1642 33.5199 41.7009 33.5199C41.9716 33.5199 42.2241 33.6232 42.4604 33.8086C42.4998 33.8395 42.5385 33.8729 42.5808 33.9077C43.023 33.6965 43.3141 34.2626 43.6057 34.2626C43.8968 34.5456 42.731 34.5456 43.0482 35.0729C43.082 35.1 43.1244 35.1221 43.1721 35.1402C43.5032 35.269 44.0445 35.2237 44.176 35.4974C44.2138 35.5758 44.2175 35.6802 44.1737 35.8217C44.7716 36.2434 44.7716 36.8094 44.2743 37.2212C44.2981 37.2594 44.3265 37.2948 44.3581 37.3285C44.7054 37.6989 45.454 37.8458 44.7486 38.5347C44.7486 38.5684 44.7562 38.6021 44.7673 38.6352C44.7835 38.685 44.7994 38.7348 44.8156 38.7843C44.8355 38.8341 44.8556 38.8839 44.8789 38.9335C44.9172 38.9405 44.9527 38.9484 44.986 38.9578C45.0192 38.9666 45.0504 38.9765 45.0786 38.9875C46.1086 39.2507 45.8084 39.615 45.5906 40.0836C45.569 40.1306 45.548 40.1782 45.5296 40.2274C45.4597 40.4453 45.6045 40.6211 45.7553 40.7875C45.8309 40.871 45.9078 40.9522 45.9678 41.034C45.3549 41.6204 47.9785 41.0544 46.3216 42.0432C46.2268 42.1245 46.172 42.198 46.0737 42.2764C46.5789 43.31 47.1648 43.9009 47.7893 43.9009C48.4709 43.9009 49.1063 43.1974 49.6413 41.9835C49.6547 41.9532 49.668 41.9227 49.6862 41.8941C49.6901 41.8663 49.7029 41.8395 49.7217 41.8112C49.7404 41.7829 49.7677 41.7543 49.8089 41.7217C50.3104 41.6207 50.8932 41.6207 50.6021 40.7716C50.6021 40.4886 50.019 41.0547 50.1633 40.5297C50.1749 40.4909 50.1866 40.4524 50.1977 40.4131C50.2093 40.3737 50.2204 40.3341 50.2315 40.2942C50.2431 40.2537 50.2553 40.213 50.2721 40.1725C50.3104 39.6396 51.4762 39.3566 50.6924 38.7888C50.6691 38.7574 50.6435 38.7246 50.6154 38.6915C50.6177 38.6578 50.6231 38.6235 50.6299 38.5893C50.8935 38.2245 50.8935 37.9415 50.8935 37.6585C50.6024 37.6585 50.3104 37.6585 50.3104 37.6585C50.0917 37.234 50.5291 37.2872 50.7685 37.1222C50.8483 37.0675 50.906 36.9883 50.9105 36.8595C51.1851 36.5261 51.7682 35.9601 51.0863 35.5345C51.0781 35.488 51.0758 35.4388 51.0741 35.3896C51.105 35.0429 51.1323 34.6897 51.155 34.3311C51.1584 34.2796 51.1616 34.2283 51.1644 34.1768C51.1848 33.696 52.0596 33.413 51.3124 32.9177C51.2808 32.8645 51.259 32.811 51.2246 32.7575C51.234 32.3834 51.2391 32.0036 51.2391 31.6204C51.2391 31.1438 51.2314 30.674 51.2158 30.2118H7.03137V30.2132Z" fill="#05B7C5"/>
</g>
<defs>
<linearGradient id="paint0_linear" x1="17.7234" y1="12.6317" x2="41.5921" y2="48.1416" gradientUnits="userSpaceOnUse">
<stop stop-color="white"/>
<stop offset="0.3751" stop-color="white" stop-opacity="0"/>
</linearGradient>
</defs>
</svg>