<svg width="64" height="64" viewBox="0 0 64 64" fill="none" xmlns="http://www.w3.org/2000/svg">
<path d="M31.9999 63.9535C49.6602 63.9535 63.9767 49.637 63.9767 31.9767C63.9767 14.3165 49.6602 0 31.9999 0C14.3397 0 0.0231934 14.3165 0.0231934 31.9767C0.0231934 49.637 14.3397 63.9535 31.9999 63.9535Z" fill="#CAFDFF"/>
<path d="M40.0674 45.0999C43.9125 45.0999 47.0407 48.2281 47.0407 52.0732C47.0407 52.5545 47.4311 52.9448 47.9124 52.9448C48.3937 52.9448 48.7841 52.5545 48.7841 52.0732C48.7841 48.2281 51.9123 45.0999 55.7573 45.0999C56.2387 45.0999 56.629 44.7095 56.629 44.2282C56.629 43.7469 56.2387 43.3566 55.7573 43.3566C51.9123 43.3566 48.7841 40.2283 48.7841 36.3833C48.7841 35.9019 48.3937 35.5116 47.9124 35.5116C47.4311 35.5116 47.0407 35.9019 47.0407 36.3833C47.0407 40.2283 43.9125 43.3566 40.0674 43.3566C39.5861 43.3566 39.1958 43.7469 39.1958 44.2282C39.1958 44.7095 39.5861 45.0999 40.0674 45.0999ZM47.9124 40.1812C48.768 41.9414 50.1991 43.3725 51.9594 44.2282C50.1992 45.0838 48.7681 46.5149 47.9124 48.2752C47.0568 46.515 45.6257 45.0839 43.8654 44.2282C45.6257 43.3726 47.0568 41.9415 47.9124 40.1812Z" fill="#552CE8"/>
<path d="M12.8717 18.9501C15.2748 18.9501 17.23 20.9052 17.23 23.3084C17.23 23.7897 17.6202 24.1801 18.1016 24.1801C18.583 24.1801 18.9733 23.7897 18.9733 23.3084C18.9733 20.9052 20.9284 18.9501 23.3316 18.9501C23.813 18.9501 24.2032 18.5598 24.2032 18.0784C24.2032 17.5971 23.813 17.2068 23.3316 17.2068C20.9284 17.2068 18.9733 15.2516 18.9733 12.8485C18.9733 12.3671 18.583 11.9768 18.1016 11.9768C17.6202 11.9768 17.23 12.3671 17.23 12.8485C17.23 15.2516 15.2748 17.2068 12.8717 17.2068C12.3902 17.2068 12 17.5971 12 18.0784C12 18.5598 12.3902 18.9501 12.8717 18.9501ZM18.1016 15.9885C18.617 16.8436 19.3364 17.5631 20.1914 18.0784C19.3363 18.5938 18.6169 19.3132 18.1016 20.1683C17.5862 19.3132 16.8668 18.5938 16.0118 18.0784C16.8668 17.5631 17.5862 16.8436 18.1016 15.9885Z" fill="#552CE8"/>
<path d="M36.3193 36.6448C36.8007 36.6448 37.191 36.2546 37.191 35.7731C37.191 35.2917 36.8007 34.9015 36.3193 34.9015C35.8379 34.9015 35.4477 35.2917 35.4477 35.7731C35.4477 36.2546 35.8379 36.6448 36.3193 36.6448Z" fill="#552CE8"/>
<path d="M38.6448 33.7853C38.8903 34.1992 39.4253 34.3357 39.8392 34.09C42.1158 32.7391 44.7266 32.025 47.3894 32.025C47.8708 32.025 48.2611 31.6347 48.2611 31.1534C48.2611 30.672 47.8708 30.2817 47.3894 30.2817C39.2187 30.2817 32.5712 23.6343 32.5712 15.4635C32.5712 14.9822 32.181 14.5918 31.6996 14.5918C31.2181 14.5918 30.8279 14.9822 30.8279 15.4635C30.8279 23.6343 24.1804 30.2817 16.0097 30.2817C15.5282 30.2817 15.138 30.672 15.138 31.1534C15.138 31.6347 15.5282 32.025 16.0097 32.025C24.1804 32.025 30.8279 38.6725 30.8279 46.8433C30.8279 47.3246 31.2181 47.7149 31.6996 47.7149C32.181 47.7149 32.5712 47.3246 32.5712 46.8433C32.5712 44.1804 33.2853 41.5696 34.6362 39.293C34.8818 38.879 34.7454 38.3442 34.3314 38.0986C33.9171 37.8527 33.3826 37.9894 33.137 38.4033C32.5474 39.3968 32.0664 40.4469 31.6989 41.5353C30.0469 36.6648 26.1866 32.805 21.3159 31.1534C26.1871 29.5016 30.0478 25.6409 31.6996 20.7697C33.3512 25.6404 37.211 29.5007 42.0814 31.1528C40.9931 31.5203 39.943 32.0012 38.9494 32.5908C38.5355 32.8365 38.399 33.3712 38.6448 33.7853Z" fill="#552CE8"/>
</svg>