<svg width="31" height="30" viewBox="0 0 31 30" fill="none" xmlns="http://www.w3.org/2000/svg">
<path d="M26.5208 0H3.5836C1.6076 0 0 1.60202 0 3.57117V26.4288C0 28.398 1.6076 30 3.5836 30H26.5208C28.4968 30 30.1044 28.398 30.1044 26.4288V3.57117C30.1048 1.60202 28.4968 0 26.5208 0ZM23.6582 13.0877C23.4934 13.1034 23.3286 13.112 23.1634 13.1128C21.3522 13.1132 19.6622 12.203 18.6702 10.6929V18.934C18.6702 22.2978 15.9341 25.0241 12.5586 25.0241C9.18308 25.0241 6.44619 22.2974 6.44619 18.934C6.44619 15.5698 9.18308 12.8428 12.5586 12.8428C12.6858 12.8428 12.8107 12.854 12.936 12.8623V15.8638C12.8107 15.8488 12.6873 15.8259 12.5586 15.8259C10.8358 15.8259 9.43898 17.2176 9.43898 18.9347C9.43898 20.6511 10.8358 22.0428 12.5586 22.0428C14.2817 22.0428 15.8031 20.6901 15.8031 18.9726L15.8332 4.97706H18.7146C18.9867 7.55184 21.07 9.56299 23.6616 9.75199V13.0877" fill="white"/>
</svg>