<svg width="9" height="10" viewBox="0 0 9 10" fill="none" xmlns="http://www.w3.org/2000/svg">
<path d="M2.2066 3.5217V3.1159C2.2066 1.95649 3.28171 1 4.58487 1C5.88802 1 6.96312 1.95649 6.96312 3.1159V3.5217M1.52125 9.00002C1.22804 9.00002 1 8.79713 1 8.53626V3.95659C1 3.69573 1.22804 3.49284 1.52125 3.49284H7.67866C7.97187 3.49284 8.19991 3.69573 8.19991 3.95659V8.53626C8.19991 8.79713 7.97187 9.00002 7.67866 9.00002H1.52125ZM5.49624 5.72442C5.49624 5.28964 5.10529 4.94184 4.61661 4.94184C4.12793 4.94184 3.73698 5.28964 3.73698 5.72442C3.73698 6.04326 3.96503 6.33311 4.29082 6.44905V7.28963C4.29082 7.46354 4.45371 7.57948 4.61661 7.57948C4.81208 7.57948 4.9424 7.43455 4.9424 7.28963V6.44905C5.26819 6.33311 5.49624 6.04326 5.49624 5.72442Z" stroke="#552CE8" stroke-miterlimit="10" stroke-linecap="round" stroke-linejoin="round"/>
</svg>