<svg width="21" height="21" viewBox="0 0 21 21" fill="none" xmlns="http://www.w3.org/2000/svg">
<path d="M9.45 16.8H11.55V14.7H9.45V16.8ZM10.5 0C9.12112 0 7.75574 0.271591 6.48182 0.799265C5.2079 1.32694 4.05039 2.10036 3.07538 3.07538C1.10625 5.04451 0 7.71523 0 10.5C0 13.2848 1.10625 15.9555 3.07538 17.9246C4.05039 18.8996 5.2079 19.6731 6.48182 20.2007C7.75574 20.7284 9.12112 21 10.5 21C13.2848 21 15.9555 19.8938 17.9246 17.9246C19.8938 15.9555 21 13.2848 21 10.5C21 9.12112 20.7284 7.75574 20.2007 6.48182C19.6731 5.2079 18.8996 4.05039 17.9246 3.07538C16.9496 2.10036 15.7921 1.32694 14.5182 0.799265C13.2443 0.271591 11.8789 0 10.5 0ZM10.5 18.9C5.8695 18.9 2.1 15.1305 2.1 10.5C2.1 5.8695 5.8695 2.1 10.5 2.1C15.1305 2.1 18.9 5.8695 18.9 10.5C18.9 15.1305 15.1305 18.9 10.5 18.9ZM10.5 4.2C9.38609 4.2 8.3178 4.6425 7.53015 5.43015C6.7425 6.2178 6.3 7.28609 6.3 8.4H8.4C8.4 7.84304 8.62125 7.3089 9.01508 6.91508C9.4089 6.52125 9.94304 6.3 10.5 6.3C11.057 6.3 11.5911 6.52125 11.9849 6.91508C12.3787 7.3089 12.6 7.84304 12.6 8.4C12.6 10.5 9.45 10.2375 9.45 13.65H11.55C11.55 11.2875 14.7 11.025 14.7 8.4C14.7 7.28609 14.2575 6.2178 13.4698 5.43015C12.6822 4.6425 11.6139 4.2 10.5 4.2Z" fill="#552CE8"/>
</svg>