<?xml version="1.0" encoding="utf-8"?>
<!-- Generator: Adobe Illustrator 16.0.0, SVG Export Plug-In . SVG Version: 6.00 Build 0)  -->
<!DOCTYPE svg PUBLIC "-//W3C//DTD SVG 1.1//EN" "http://www.w3.org/Graphics/SVG/1.1/DTD/svg11.dtd">
<svg version="1.1" id="Layer_1" xmlns="http://www.w3.org/2000/svg" xmlns:xlink="http://www.w3.org/1999/xlink" x="0px" y="0px"
	 width="198.228px" height="60px" viewBox="0 0 198.228 60" enable-background="new 0 0 198.228 60" xml:space="preserve">
<g>
	<ellipse fill="#481CC3" cx="29.865" cy="30" rx="29.92" ry="30"/>
	<path fill="#1FE7E7" d="M59.78,30c-0.035-6.016-1.601-10.944-4.304-15.42c-0.078-0.014-0.156-0.087-0.234-0.087
		c-1.137,0-2.179,1.375-3.006,3.716c-0.003,0.01-0.005,0.006-0.009,0.014c-0.083,0.239-0.165,0.479-0.243,0.738
		C50.682,22.981,49,28.963,46.601,28.963c-2.622,0-3.698-5.247-5.67-8.499c-0.754-1.288-1.646-2.033-2.602-2.033
		c-1.287,0-2.456,1.349-3.331,3.553c-1.085,2.175-2.639,4.546-4.343,4.546c-3.02,0-4.47-9.689-7.47-14.116v0.002
		c-1-3.554-2.23-5.686-3.796-5.686c-1.78,0-3.229,2.754-4.403,7.219c-1.504,4.559-3.1,13.01-5.638,13.01
		c-1.125,0-1.971-1.905-2.749-3.895c-0.909-2.838-2.23-4.634-3.729-4.634c-0.236,0-0.457,0.153-0.684,0.239
		C0.762,22.136-0.026,26.391-0.05,30H59.78z"/>
	<g>
		<path fill="#0BAAD0" d="M30.268,33.141c-0.166-0.006-0.343-0.006-0.545-0.006C29.968,33.255,30.136,33.224,30.268,33.141z"/>
		<path fill="#0BAAD0" d="M59.779,30H-0.05c0,0-0.005,0.032-0.005,0.095c0,5.444,1.454,10.496,3.981,14.897
			c0.335-0.19,0.658-0.496,0.965-0.861c0.051-0.06,0.102-0.135,0.146-0.197c0.114-0.39-0.295-0.795-0.704-0.795
			c0.327-0.639,0.917-0.515,1.297-0.757c0.097-0.062,0.178-0.147,0.264-0.275c0.895-0.173,1.305-0.572,1.713-0.973
			c0,0-0.409-0.001-0.283-0.199c0.05-0.026,0.101-0.058,0.15-0.094c0.048-0.032,0.093-0.066,0.133-0.107
			c0-0.401-0.819-0.802-1.135-1.247c-0.067-0.052-0.129-0.469-0.184-0.521C6.075,38.764,5.972,38,6.38,38c0.41,0,0.82,0,1.229,0
			c0.41,0,0-0.835-0.819-1.231c0.308,0,0.614,0.183,0.921,0.013c0.103-0.057,0.205-0.04,0.14-0.141c-0.064,0-0.13,0.043-0.196,0.041
			c-0.202-0.009-0.417-0.01-0.584-0.068c-0.055-0.018-0.103-0.032-0.136-0.058c0.17-0.407,1.247-0.215,1.735-0.564
			c0.053-0.041,0.1-0.084,0.138-0.136c0.03-0.324,0.03-0.722-0.072-1.263c0.022-0.049,0.044-0.095,0.063-0.142
			c0.495-1.084,1.018-1.832,1.551-1.832c0.404,0,0.764,0.259,1.085,0.711c0.041,0.056,0.081,0.115,0.119,0.176
			c0.04,0.063,0.078,0.13,0.115,0.196c0.021,0.368,0.726,0.524,1.061,0.854c0.047,0.048,0.088,0.1,0.118,0.153
			c0.085,0.427,0.496,0.427,0.904,0.427c0.41,0.799-0.819,0.799-1.04,1.444c-0.032,0.059-0.047,0.112-0.058,0.159
			c-0.182,0.699-0.566,0.02-0.95,0.396c0.818,0.396,1.229,1.197,2.047,1.197c0,0.799-1.229,0.402-1.229,1.202
			c0.343,0,0.683,0.274,0.824,0.496c0.028,0.044,0.048,0.085,0.059,0.123c0.037,0.027,0.073,0.056,0.108,0.084
			c0.037,0.028,0.072,0.057,0.109,0.085c0.129,0.41,0.54,0.41,0.949,0.41c0,0.1,0,0.225-0.012,0.358
			c-0.012,0.133-0.039,0.274-0.091,0.411c-0.051,0.133-0.127,0.257-0.243,0.36c-0.115,0.1-0.269,0.177-0.474,0.212
			c0.006,0.074,0.018,0.146,0.029,0.217c0.035,0.218,0.069,0.436,0.101,0.648c0.041,0.315,0.083,0.624,0.126,0.934
			c0.009,0.061,0.018,0.122,0.021,0.186c-0.276,1.074,2.181,0.673,1.362,1.074c-0.409,0.399-0.818,1.2-1.483,1.16
			c-0.034,0.047-0.061,0.097-0.083,0.144c-0.046,0.097-0.071,0.195-0.071,0.295c0.819,0,0.41,0.8,1.389,0.808
			c0.071,0.032,0.137,0.066,0.198,0.105c0.301,0.187,0.459,0.438,0.459,0.688c0,0.268-0.182,0.356-0.432,0.523
			c-0.063,0.043-0.131,0.09-0.2,0.149c-0.187,0.527-0.596,0.527-1.005,0.527c0,0.801,1.228,0.801,1.347,1.473
			c0.058,0.045,0.115,0.092,0.167,0.139c0.054,0.047,0.105,0.097,0.155,0.147c0.034,0.034,0.065,0.067,0.103,0.106
			c1.503,0.535,0.683,0.937,0.274,1.736c0.819-0.8,2.047-0.4,2.866-0.8c-0.409,0.8-0.818,0.8-1.631,0.815
			c-0.074,0.01-0.138,0.018-0.2,0.025c-0.251,0.039-0.492,0.145-0.676,0.536c-0.001,0.035,0.005,0.074,0.015,0.117
			c0.012,0.044,0.031,0.089,0.058,0.143c0.01,0.047,0.031,0.091,0.054,0.136C17.601,55.955,18.634,57,19.731,57
			c1.063,0,2.067-0.984,2.955-2.731c0.023-0.046,0.047-0.092,0.072-0.14c0.068-0.1,0.16-0.181,0.261-0.256
			c0.05-0.037,0.101-0.072,0.154-0.107c0.7-0.271,0.875-0.427,0.866-0.646c-0.004-0.038-0.008-0.073-0.016-0.118
			c-0.035-0.666,0.375-1.067-0.113-1.845c0.007-0.04,0.021-0.082,0.034-0.122c0.026-0.085,0.051-0.169,0.076-0.255
			c0.015-0.052,0.032-0.106,0.047-0.158c-0.078-0.687,0.742-0.687,1.151-0.687c-0.083-0.081-0.181-0.145-0.29-0.201
			c-0.053-0.026-0.108-0.05-0.168-0.073c-0.095,0.035-0.167,0.045-0.22,0.038c-0.053-0.007-0.085-0.033-0.104-0.073
			c-0.448-1.292,2.009-0.492,1.573-2.093c0.002-0.049,0.001-0.104-0.012-0.16c-0.015-0.166-0.134-0.37-0.412-0.634
			c-0.032-0.049-0.071-0.1-0.114-0.146c-0.257-0.284-0.67-0.507-0.677-0.757c-0.017-0.041-0.032-0.085-0.048-0.127
			c-0.035-0.1-0.074-0.202-0.111-0.311c-0.236,0.135-0.646-0.265-0.236-0.666c0.41,0,0.82-0.8,1.639-0.399c0-0.4,0-0.4-0.252-0.497
			c-0.004-0.066,0.01-0.139,0.027-0.211c0.018-0.073,0.036-0.145,0.053-0.217c0.012-0.048,0.024-0.096,0.037-0.145
			c-0.275-0.131-0.684-0.931-1.504-0.532c0.042-0.078,0.082-0.15,0.124-0.215c0.042-0.065,0.158-0.122,0.202-0.175
			c0.569-0.809,1.461-1.209,1.461-1.859c0-0.05,0-0.1,0-0.15c1-0.4,1.153-0.797,1.563-1.2c-0.35,0.344-0.737-0.186-1.086-0.348
			c0.485,0.048-0.133-1.209,0.485-0.802c0.049-0.048,0.09-0.1,0.14-0.151c0.049-0.053,0.094-0.106,0.141-0.161
			c0.014-0.046,0.027-0.094,0.041-0.138c0.046-0.142,0.089-0.281,0.135-0.419c0.023-0.069,0.044-0.138,0.073-0.202
			c0.101-0.015,0.193-0.035,0.274-0.057c0.667-0.084,1.068-0.306,1.529-0.43c0.067-0.021,0.133-0.035,0.202-0.049
			c0.042-0.042,0.45-0.042,0.45-0.042c-0.408-0.399-0.408-0.399-0.833-0.76c-0.064-0.038-0.129-0.068-0.194-0.099
			c-0.259-0.125-0.517-0.248-0.728-0.453c0.022-0.056,0.048-0.113,0.071-0.168c0.019-0.043,0.038,0.148,0.056,0.106
			C28.083,34.168,29.722,34,29.312,34c0,0-0.409,0-0.819,0c0.674,0,1.347-0.631,2.02-0.864c-0.067,0.091-0.146,0.293-0.245,0.354
			C30.769,33.509,31.153,34,31.77,34h-0.41c0.296,0,0.521,0.152,0.68,0.352c0.039,0.05,0.077-0.017,0.107,0.034
			c0.032,0.866-0.787,1.206,0.103,2.049c0.039,0.039,0.085,0.043,0.145,0.065c0.059,0.021,0.127,0.018,0.202,0.014
			c0.075-0.006,0.155-0.036,0.235-0.08c0.166,0.306,0.166,0.302,0.541,0.391c0.035,0.04,0.072,0.082,0.108,0.127
			c0.016,0.047,0.033,0.094,0.049,0.141c0.018,0.048,0.038,0.093,0.068,0.133c0.22-0.089,0.63,0.71,1.039,0.308
			c0.41,1.203-1.229,0.801-1.311,1.429c-0.008,0.05,0.015,0.106,0.082,0.171c0.82,0,2.047,0,2.458,1.2
			c-0.205-0.198-0.41-0.099-0.609,0.06c-0.099,0.079-0.197,0.175-0.307,0.252c-0.721,0.09-0.721,0.89-0.715,1.149
			c-0.07,0.022-0.143,0.039-0.219,0.056c-0.076,0.013-0.155,0.023-0.233,0.032c-0.079,0.009-0.16,0.016-0.239,0.023
			c0.685,0.827-1.772-1.171-0.58,0.432c0.065,0.002,0.133,0.002,0.201,0.003c0.755,0.025,1.671,0.13,2.399,0.618
			c0.063,0.092,0.115,0.182,0.164,0.269c0.051,0.087,0.103,0.17,0.153,0.252c0.026,0.04,0.052,0.081,0.08,0.121
			c0.724,0.334,0.724,1.535,1.814,1.591c0.061,0.021,0.124,0.035,0.188,0.051c0.125,0.026,0.252,0.039,0.38,0.039
			c0.886,0,1.716-0.641,2.435-1.761c0.103-0.158,0.202-0.326,0.301-0.506c-0.298-0.68-0.708-1.479,0.38-1.804
			c0.018-0.099,0.01-0.191,0.014-0.277c0.042-0.942,1.742-0.688,1.499-1.689c-0.011-0.039-0.024-0.079-0.043-0.117
			c0.257-0.658,1.721-0.77,1.272-1.373c-0.043-0.059-0.108-0.123-0.217-0.197c-0.338-0.022-0.747-0.822-1.157-0.822
			c0.41-0.798,1.229-0.398,1.746-0.925c0.055-0.066,0.107-0.133,0.16-0.193c0.573-0.696,1.216-1.13,1.97-1.13
			c0.381,0,0.735,0.145,1.066,0.408c0.056,0.043,0.111,0.092,0.17,0.139c0.622-0.296,1.029,0.503,1.439,0.503
			c0.41,0.4-1.228,0.4-0.782,1.146c0.047,0.036,0.107,0.069,0.174,0.093c0.465,0.185,1.226,0.119,1.411,0.506
			c0.052,0.111,0.058,0.258-0.005,0.459c0.84,0.595,0.84,1.394,0.142,1.979c0.033,0.052,0.074,0.103,0.118,0.15
			c0.487,0.524,1.539,0.732,0.548,1.705c0,0.048,0.011,0.096,0.026,0.142c0.022,0.069,0.046,0.142,0.068,0.213
			c0.028,0.069,0.056,0.14,0.088,0.209c0.054,0.009,0.104,0.021,0.15,0.034c0.047,0.015,0.09,0.027,0.13,0.043
			c1.447,0.371,1.026,0.885,0.719,1.549c-0.03,0.066-0.06,0.133-0.084,0.204c-0.099,0.307,0.104,0.555,0.316,0.792
			c0.107,0.114,0.214,0.229,0.298,0.346c-0.861,0.83,2.824,0.03,0.497,1.428c-0.133,0.114-0.21,0.219-0.349,0.33
			c0.257,0.528,0.529,0.971,0.812,1.326c3.843-5.047,6.129-11.253,6.129-18.092C59.784,30.032,59.779,30,59.779,30z"/>
	</g>
	<ellipse fill="none" cx="29.919" cy="30" rx="29.919" ry="30"/>
	<g>
		<g>
			<g>
				<path fill="#481CC3" d="M72.763,16.275c-2.152,0.017-3.229,0.028-5.381,0.046c2.212,9.781,1.973,19.981-0.633,29.66
					c-1.206-0.014-1.808-0.02-3.013-0.031c2.517-11.554,2.471-21.153-0.147-32.682c4.594-0.056,6.892-0.079,11.488-0.122
					c2.143,11.452,2.184,21.455,0.121,32.92c-1.204-0.012-1.808-0.017-3.013-0.028C74.574,36.295,74.792,26.102,72.763,16.275z"/>
				<path fill="#481CC3" d="M91.093,41.724c-0.298,2.463-2.561,4.441-4.936,4.427c-1.206-0.009-1.809-0.014-3.015-0.023
					c-2.33-0.014-3.852-2.009-3.468-4.459c1.257-7.981,1.229-16.15-0.083-24.123c-0.402-2.451,1.111-4.448,3.446-4.463
					c1.208-0.007,1.812-0.013,3.021-0.019c2.38-0.016,4.658,1.961,4.97,4.421C92.051,25.522,92.073,33.685,91.093,41.724z
					 M86.6,16.182c-1.194,0.005-1.789,0.009-2.985,0.016c-0.676,0.005-1.16,0.622-1.049,1.331
					c1.236,7.992,1.263,16.158,0.078,24.156c-0.112,0.756,0.381,1.323,1.058,1.329c1.192,0.006,1.788,0.011,2.979,0.017
					c0.678,0.005,1.349-0.561,1.447-1.317c1.052-8.028,1.029-16.193-0.069-24.214C87.96,16.79,87.279,16.177,86.6,16.182z"/>
				<path fill="#481CC3" d="M109.49,12.979c2.38,0,4.455,1.996,4.589,4.465c0.139,2.528,0.188,3.793,0.258,6.318
					c0.042,1.616-2.442,4.559-2.442,4.559c0.003,0.14,2.525,2.518,2.508,4.133c-0.041,3.722-0.1,5.589-0.294,9.311
					c-0.128,2.47-2.195,4.466-4.571,4.463c-2.885,0-4.328-0.003-7.216-0.009c1.035-11.229,1.016-22.003-0.062-33.229
					C105.151,12.983,106.598,12.981,109.49,12.979z M111.404,23.621c-0.079-2.471-0.139-3.708-0.296-6.177
					c-0.046-0.713-0.631-1.331-1.355-1.331c-1.664,0.003-2.498,0.003-4.161,0.005c0.384,4.292,0.499,6.438,0.583,10.732
					c1.219,0,1.83,0,3.05,0C110.949,26.851,111.462,25.424,111.404,23.621z M105.638,43.09c1.663,0.003,2.493,0.003,4.154,0.005
					c0.724,0,1.303-0.569,1.349-1.33c0.235-3.858,0.306-5.784,0.351-9.643c0.022-2.137-0.915-2.375-2.55-2.375
					c-1.095,0-1.643,0-2.739,0C106.204,35.083,106.097,37.752,105.638,43.09z"/>
				<path fill="#481CC3" d="M129.122,41.739c-0.018,2.464-1.957,4.461-4.333,4.469c-1.204,0.003-1.809,0.006-3.014,0.009
					c-2.329,0.006-4.176-1.984-4.072-4.454c0.335-8.102,0.326-16.215-0.021-24.316c-0.107-2.469,1.739-4.461,4.072-4.457
					c1.209,0.005,1.812,0.007,3.02,0.01c2.381,0.007,4.324,2.006,4.344,4.472C129.181,25.56,129.179,33.649,129.122,41.739z
					 M124.857,16.132c-1.195-0.004-1.793-0.006-2.985-0.008c-0.68,0-1.244,0.614-1.22,1.327c0.274,8.099,0.282,16.208,0.019,24.306
					c-0.025,0.761,0.54,1.328,1.218,1.325c1.193,0,1.788-0.004,2.98-0.004c0.677-0.005,1.273-0.573,1.285-1.332
					c0.128-8.092,0.128-16.189-0.008-24.283C126.135,16.752,125.535,16.132,124.857,16.132z"/>
				<path fill="#481CC3" d="M141.999,16.209c-1.883-0.011-2.824-0.018-4.706-0.027c-0.129,6.638-0.157,9.953-0.129,16.591
					c0.023,5.766,0.196,13.901-5.343,13.931c0-1.251,0-1.878,0-3.127c2.485-0.012,2.435-7.253,2.426-9.619
					c-0.001-6.972,0.029-13.941,0.092-20.913c4.323,0.023,6.482,0.037,10.802,0.074c-0.485,11.027-0.496,21.95-0.028,32.974
					c-1.207,0.01-1.809,0.017-3.017,0.023C141.677,36.153,141.643,26.174,141.999,16.209z"/>
				<path fill="#481CC3" d="M160.41,45.938c-1.204,0.017-1.808,0.023-3.013,0.035c-0.679-6.49-0.855-9.733-0.849-16.225
					c-2.175,0-3.26-0.001-5.433-0.001c-0.008,6.512,0.132,9.771,0.664,16.284c-1.206,0.013-1.809,0.019-3.014,0.03
					c-0.596-11.025-0.584-21.883,0.035-32.91c1.206,0.012,1.812,0.019,3.02,0.03c-0.459,5.481-0.598,8.223-0.683,13.704
					c2.177,0.004,3.265,0.004,5.441,0.012c0.106-5.462,0.283-8.193,0.871-13.654c1.211,0.014,1.813,0.021,3.022,0.035
					C159.428,24.312,159.404,34.899,160.41,45.938z"/>
				<path fill="#481CC3" d="M163.15,45.907c0.335-11.201,1.696-21.661,4.412-32.536c2.178,0.03,3.271,0.046,5.448,0.079
					c-0.068,11.26,1.229,21.402,4.252,32.252c-1.207,0.021-1.809,0.032-3.014,0.051c-1.215-3.793-1.71-5.691-2.504-9.494
					c-2.079,0.015-3.118,0.02-5.198,0.031c-0.288,3.828-0.348,5.74-0.337,9.577C164.985,45.883,164.374,45.892,163.15,45.907z
					 M169.729,16.417c-1.793,6.804-2.364,10.213-3.003,17.042c1.824-0.005,2.736-0.008,4.561-0.014
					c-1.13-6.796-1.356-10.201-1.331-17.025C169.863,16.42,169.818,16.42,169.729,16.417z"/>
				<path fill="#481CC3" d="M193.04,31.959c0.188-5.1,0.558-7.646,1.882-12.731c-0.122-0.019-0.186-0.028-0.307-0.049
					c-2.796,8.989-3.974,16.878-3.929,26.289c-1.277,0.024-1.917,0.036-3.195,0.06c-3.253-8.919-5.061-17.062-5.853-26.52
					c-0.128,0.017-0.189,0.024-0.319,0.041c-0.421,5.182-0.423,7.771,0.046,12.943c0.16,5.446,0.49,8.17,1.653,13.617
					c-1.208,0.021-1.812,0.03-3.017,0.052c-1.726-11.08-1.691-21.024,0.101-32.092c1.721,0.03,2.582,0.044,4.305,0.075
					c-0.305,8.456,0.791,16.947,3.399,25.003c0.412-8.833,2.83-16.673,6.073-24.819c1.737,0.036,2.607,0.057,4.348,0.094
					c-2.992,10.238-3.045,21.132-0.142,31.396c-1.205,0.024-1.81,0.038-3.014,0.062C193.639,40.011,193.234,37.327,193.04,31.959z"
					/>
			</g>
		</g>
	</g>
</g>
</svg>
