<svg width="45" height="46" viewBox="0 0 45 46" fill="none" xmlns="http://www.w3.org/2000/svg">
<mask id="mask0" mask-type="alpha" maskUnits="userSpaceOnUse" x="0" y="0" width="45" height="46">
<path d="M45 22.5928C45 10.1664 34.9264 0.0927757 22.5 0.0927763C10.0736 0.0927768 -1.52668e-06 10.1664 -9.83506e-07 22.5928C-4.40331e-07 35.0192 10.0736 45.0928 22.5 45.0928C34.9264 45.0928 45 35.0192 45 22.5928Z" fill="#481CC3"/>
</mask>
<g mask="url(#mask0)">
<path d="M45 22.566C45 10.1396 34.9264 0.0660423 22.5 0.0660429C10.0736 0.0660434 -1.52668e-06 10.1396 -9.83506e-07 22.566C-4.40331e-07 34.9924 10.0736 45.066 22.5 45.066C34.9264 45.066 45 34.9924 45 22.566Z" fill="#552CE8"/>
<path d="M22.3568 -0.137583C15.8705 0.0697159 10.8317 1.61141 10.8317 3.48221C10.8317 4.33661 11.8814 5.12112 13.6379 5.74272C13.6442 5.74512 13.6502 5.74692 13.6565 5.74902C13.835 5.81172 14.021 5.87261 14.2136 5.93231C17.2298 6.91091 21.7193 8.17541 21.7193 9.97991C21.7193 11.9509 17.7857 12.7603 15.3461 14.2438C14.3798 14.8117 13.8209 15.4819 13.8209 16.2001C13.8209 17.167 14.8325 18.0469 16.4873 18.7057C18.1187 19.522 19.8956 20.4418 19.8956 21.7234C19.8956 23.9938 12.6293 25.9216 9.3095 27.0934L9.3104 27.0928C6.6455 27.9376 5.0459 29.0182 5.0459 30.196C5.0459 31.5343 7.1126 32.7478 10.4606 33.6313C13.88 34.7623 20.2187 36.0244 20.2187 37.9327C20.2187 38.7787 18.7895 39.4462 17.2973 40.0309C15.1679 40.7146 13.8209 41.7244 13.8209 42.8509C13.8209 44.719 17.5244 46.2658 22.3565 46.537L22.3568 -0.137583Z" fill="#0BAAD0"/>
<path d="M22.3566 46.5277C22.8507 46.5559 23.3571 46.57 23.8725 46.57C24.7677 46.57 25.6359 46.5265 26.4621 46.4452C26.5035 46.441 26.5446 46.4371 26.5857 46.4329C27.2496 47.0008 27.5496 46.6924 28.0167 46.2472C28.0548 46.2337 28.0929 46.2268 28.131 46.2202C28.245 46.2004 28.3581 46.1791 28.4697 46.1587C28.5069 46.1512 28.5441 46.1422 28.5804 46.1317C28.7496 45.1525 29.6496 46.3843 29.949 45.8218C29.982 45.8035 30.0153 45.793 30.048 45.7837C30.2775 45.7174 30.4986 45.6478 30.7116 45.5746C30.7422 45.5635 30.7722 45.553 30.8019 45.5413C30.9759 45.3475 31.2129 45.3268 31.4499 45.2977C31.4985 45.2929 31.5471 45.2884 31.5963 45.283C32.0499 44.8453 32.3499 45.7687 32.6499 45.4612C32.7999 45.307 32.7249 45.0763 32.6781 44.8795C32.6664 44.8309 32.6565 44.7841 32.6523 44.7412C32.6499 44.8456 32.6499 44.5372 32.727 44.5426C32.7615 44.5222 32.8095 44.5087 32.8752 44.5045C32.9013 44.4835 32.9277 44.4634 32.9538 44.443C33.576 43.9585 33.9243 43.4152 33.9243 42.8428C33.9243 42.3103 33.6234 41.8039 33.081 41.3464C33.036 41.3077 32.9889 41.2696 32.9409 41.2363C32.6496 41.1502 32.3496 41.4583 32.3496 41.7661C31.8696 41.5201 31.9656 41.0764 31.7835 40.7899C31.7379 40.7185 31.6752 40.6564 31.5789 40.5913C31.4493 39.9187 31.1493 39.6103 30.8493 39.3028C30.8493 39.3028 30.8493 39.6103 30.7002 39.5167C30.6792 39.4786 30.6564 39.4399 30.6315 39.4036C30.6066 39.3673 30.5793 39.3334 30.5496 39.3028C30.2496 39.3028 29.9496 39.9187 29.6142 40.1566C29.5746 40.2076 29.5371 40.2538 29.4996 40.2949C29.3496 40.4578 29.1996 40.5346 29.0496 40.2268C29.0496 39.9187 29.0496 39.6103 29.0496 39.3028C28.4496 38.9947 28.1496 39.3028 27.8496 39.9187C27.8496 39.6877 27.8496 39.457 27.723 39.226C27.6807 39.1486 27.6246 39.0718 27.5484 39.1204C27.5484 39.169 27.5472 39.2182 27.5448 39.2686C27.5379 39.4204 27.5202 39.5827 27.4761 39.7075C27.4614 39.7492 27.444 39.7849 27.4236 39.8101C27.1185 39.6817 27.2577 38.8726 26.9955 38.5051C26.9661 38.4646 26.9322 38.4295 26.8917 38.4007C26.649 38.3785 26.349 38.3785 25.9443 38.4547C25.908 38.4382 25.8723 38.4226 25.8372 38.4073C25.0251 38.0353 24.4626 37.6426 24.4626 37.2412C24.4626 36.9376 24.6564 36.6676 24.9954 36.4249C25.038 36.3949 25.0824 36.3652 25.1292 36.3358C25.176 36.3064 25.2249 36.2779 25.2759 36.2503C25.5519 36.2344 25.6671 35.7043 25.9152 35.4523C25.9506 35.4166 25.9887 35.386 26.0307 35.3638C26.3493 35.2993 26.3493 34.9912 26.3493 34.6834C26.9493 34.3753 26.9493 35.2993 27.4326 35.4655C27.4779 35.4895 27.5178 35.5 27.5526 35.509C28.0776 35.6455 27.5679 35.9344 27.849 36.2227C28.149 35.6068 28.749 35.2993 28.749 34.6834C29.349 34.6834 29.049 35.6068 29.649 35.6068C29.649 35.3503 29.8572 35.0935 30.0219 34.9882C30.0549 34.9672 30.0861 34.9525 30.1137 34.9444C30.1353 34.9162 30.1569 34.8892 30.1782 34.8634C30.1995 34.8352 30.2208 34.8088 30.2418 34.7815C30.549 34.6837 30.549 34.3753 30.549 34.0678C30.624 34.0678 30.7176 34.0678 30.8178 34.0765C30.9177 34.0852 31.0242 34.1059 31.1244 34.1446C31.2249 34.1833 31.3191 34.2406 31.395 34.3279C31.4709 34.414 31.5282 34.5301 31.5549 34.6843C31.6095 34.6795 31.6638 34.6708 31.7181 34.6621C31.8813 34.6363 32.043 34.6111 32.2029 34.5859C32.4396 34.5559 32.6733 34.5244 32.9043 34.4917C32.9502 34.4854 32.9964 34.4788 33.0435 34.4758C33.8487 34.6837 33.5487 32.8357 33.8487 33.4522C34.1487 33.7597 34.7487 34.0681 34.7196 34.5685C34.7547 34.5937 34.7901 34.6141 34.8261 34.6306C34.8984 34.6645 34.9734 34.684 35.0484 34.684C35.0484 34.0681 35.6484 34.3759 35.6532 33.6394C35.6775 33.5854 35.7039 33.5362 35.7324 33.4906C35.8737 33.2644 36.0612 33.1444 36.2487 33.1444C36.4488 33.1444 36.5154 33.2815 36.6423 33.4702C36.6738 33.5176 36.7095 33.568 36.7515 33.6202C37.1487 33.7603 37.1487 34.0684 37.1487 34.3762C37.7487 34.3762 37.7487 33.4528 38.2542 33.3631C38.2872 33.3196 38.3217 33.277 38.3571 33.2365C38.3928 33.196 38.4294 33.1573 38.4672 33.1198C38.4924 33.0952 38.5182 33.0712 38.5467 33.0424C38.949 31.9126 39.249 32.5285 39.849 32.836C39.249 32.2201 39.549 31.2967 39.249 30.6808C39.849 30.9883 39.849 31.2967 39.861 31.9078C39.8682 31.963 39.873 32.0116 39.8799 32.0584C39.909 32.2465 39.9888 32.428 40.2822 32.5663C40.3086 32.5675 40.3377 32.5633 40.3701 32.5546C40.4022 32.5459 40.4382 32.5318 40.4772 32.5111C40.5114 32.5042 40.5456 32.4877 40.5795 32.4706C41.9643 31.7887 42.7485 31.0117 42.7485 30.1873C42.7485 29.3875 42.0096 28.6321 40.6998 27.9649C40.6656 27.9472 40.6308 27.9298 40.5945 27.9109C40.5201 27.8593 40.4583 27.7909 40.4025 27.7153C40.3743 27.6778 40.3479 27.6385 40.3224 27.5986C40.1193 27.0718 40.0032 26.9407 39.8373 26.9482C39.8097 26.95 39.7809 26.9545 39.7494 26.9593C39.2484 26.9851 38.9484 26.6776 38.367 27.0448C38.3358 27.0385 38.3046 27.0283 38.2731 27.019C38.2104 26.9992 38.1468 26.9803 38.0826 26.9617C38.0433 26.95 38.004 26.9383 37.9641 26.9266C37.4484 26.9851 37.4484 26.3695 37.4484 26.0611C37.3884 26.1232 37.3404 26.1964 37.2996 26.2786C37.2792 26.3191 37.2606 26.3611 37.2432 26.4052C37.269 26.4772 37.2771 26.5312 37.2723 26.5711C37.2666 26.6098 37.2477 26.6344 37.2183 26.6485C36.2487 26.9854 36.8487 25.138 35.649 25.4662C35.61 25.4644 35.5701 25.465 35.5269 25.4749C35.4024 25.4866 35.2494 25.5763 35.0535 25.7848C35.0154 25.8094 34.9788 25.8388 34.9434 25.8709C34.7307 26.0644 34.5627 26.3749 34.3767 26.38C34.3452 26.3923 34.3131 26.404 34.2807 26.4157C34.2054 26.4433 34.128 26.4715 34.0491 26.5C34.149 26.6776 33.849 26.9851 33.549 26.6776C33.549 26.3695 32.949 26.0611 33.249 25.4455C32.949 25.4455 32.949 25.4455 32.8764 25.6348C32.8254 25.6384 32.772 25.6273 32.718 25.6144C32.664 25.6009 32.61 25.5874 32.5557 25.5739C32.5197 25.5652 32.4834 25.5556 32.4471 25.5469C32.3493 25.7536 31.7493 26.0614 32.0493 26.6779C31.9893 26.6467 31.9353 26.6158 31.8867 26.5846C31.8378 26.5534 31.7943 26.5219 31.7556 26.4892C31.1493 26.0614 30.8493 25.4455 30.3618 25.4455C30.3243 25.4455 30.2868 25.4455 30.2493 25.4455C29.9493 25.138 29.6493 24.5221 29.3493 24.214C29.6493 24.5221 29.0493 24.8299 29.0493 25.138C29.3493 24.5221 28.1493 25.138 28.4868 24.6253C28.4493 24.5878 28.4112 24.5503 28.3722 24.5128C28.3329 24.4759 28.293 24.439 28.2516 24.4033C28.2168 24.3928 28.1823 24.3817 28.1475 24.3706C28.0413 24.3367 27.9366 24.3025 27.8331 24.2686C27.7812 24.2515 27.7299 24.2347 27.6828 24.2128C27.6717 24.136 27.6573 24.0676 27.6399 24.007C27.5763 23.5054 27.4101 23.2036 27.3165 22.8568C27.303 22.807 27.291 22.7566 27.2811 22.7044C27.2493 22.6738 27.2493 22.3663 27.2493 22.3663C26.9493 22.6738 26.9493 22.6738 26.6787 22.9939C26.652 23.0419 26.6283 23.0905 26.6052 23.1391C26.5116 23.3347 26.4195 23.5282 26.2662 23.6869C26.2236 23.6692 26.1816 23.6512 26.1402 23.6335C26.1081 23.6194 26.076 23.6047 26.0448 23.5906C25.4496 23.9059 25.4496 22.6735 25.1496 22.9819C25.1496 22.9819 25.1496 23.29 25.1496 23.5978C24.8496 22.9819 24.8496 22.3663 24.5496 21.7504C24.2496 22.0579 25.1496 22.0579 24.8496 22.6738C24.8496 22.0579 24.8496 21.7504 25.1496 21.1345V21.442C25.2942 21.2194 25.4388 21.0505 25.5879 20.9305C25.6251 20.9005 25.6623 20.8738 25.7004 20.8501C26.3496 20.8261 26.6496 21.442 27.2811 20.7727C27.3111 20.7439 27.3354 20.7082 27.3519 20.6638C27.3687 20.62 27.3771 20.5678 27.3732 20.512C27.369 20.4556 27.3525 20.3959 27.3189 20.335C27.5496 20.2102 27.5496 20.2102 27.615 19.9285C27.6447 19.9021 27.6768 19.8745 27.7113 19.8475C27.7467 19.8352 27.7818 19.8229 27.8175 19.8106C27.8529 19.7977 27.8871 19.783 27.9171 19.7602C27.849 19.5943 28.449 19.2862 28.149 18.9787C29.049 18.6706 28.749 19.9027 29.2209 19.9648C29.2572 19.9708 29.2989 19.9537 29.349 19.9027C29.349 19.2862 29.349 18.3628 30.249 18.0547C30.099 18.2089 30.174 18.3628 30.2928 18.5128C30.3522 18.5872 30.423 18.6616 30.4812 18.7432C30.549 19.2865 31.149 19.2865 31.3428 19.2817C31.3605 19.3339 31.3734 19.3888 31.3839 19.4458C31.3944 19.5031 31.4025 19.5625 31.4088 19.6216C31.4154 19.6813 31.4211 19.7416 31.4274 19.8016C32.049 19.2865 30.549 21.1345 31.7505 20.2375C31.7511 20.1877 31.752 20.1373 31.7538 20.0857C31.7709 19.5172 31.8495 18.8293 32.2182 18.2815C32.286 18.2335 32.3529 18.1954 32.418 18.1579C32.4831 18.1198 32.5461 18.0811 32.6076 18.0424C32.6382 18.0232 32.6685 18.0037 32.6985 17.9833C32.9493 17.4391 33.8493 17.4391 33.8916 16.6186C33.9063 16.5724 33.9186 16.525 33.9285 16.4779C33.948 16.3837 33.9582 16.288 33.9582 16.1914C33.9582 15.5257 33.4788 14.9011 32.6397 14.3614C32.52 14.284 32.3928 14.209 32.2584 14.1352C31.7493 14.3596 31.1493 14.6671 30.9057 13.8493C30.8328 13.8358 30.7617 13.8412 30.6975 13.8388C29.9913 13.8073 30.1809 12.5287 29.4297 12.7114C29.4009 12.7195 29.3718 12.73 29.3418 12.7435C28.848 12.55 28.7655 11.4493 28.3143 11.7868C28.2693 11.8201 28.2207 11.8681 28.1649 11.9503C28.149 12.2041 27.549 12.5116 27.549 12.8197C26.949 12.5116 27.249 11.8957 26.8545 11.5066C26.8044 11.4649 26.7555 11.4262 26.7084 11.3872C26.1879 10.9558 25.8624 10.4719 25.8624 9.90491C25.8624 9.61901 25.9719 9.35231 26.1687 9.10271C26.2014 9.06101 26.2368 9.02021 26.2737 8.9755C26.0496 8.5084 26.6496 8.2009 26.6496 7.8928C26.9496 7.5853 26.9496 8.81681 27.5085 8.4817C27.5376 8.44601 27.561 8.40129 27.5802 8.35089C27.7167 8.00109 27.6684 7.4293 27.9588 7.2904C28.0416 7.2505 28.1526 7.2466 28.3026 7.2928C28.7493 6.6613 29.3493 6.6613 29.7861 7.1866C29.8263 7.1614 29.8638 7.1314 29.8995 7.0981C30.2922 6.7312 30.4482 5.94041 31.1781 6.68561C31.2141 6.68561 31.2495 6.67751 31.2846 6.66581C31.3374 6.64871 31.3905 6.6319 31.443 6.6148C31.4958 6.5938 31.5486 6.57251 31.6011 6.54791C31.6083 6.50741 31.617 6.4699 31.6266 6.43481C31.6362 6.39971 31.6467 6.36671 31.6584 6.33701C31.9374 5.24891 32.3232 5.566 32.82 5.7961C32.8698 5.8189 32.9205 5.8411 32.9727 5.86061C33.2034 5.9344 33.3897 5.78141 33.5664 5.62211C33.6546 5.54231 33.7407 5.461 33.8274 5.3977C34.449 6.0451 33.849 3.2737 34.8975 5.02391C34.9833 5.12411 35.0616 5.182 35.1447 5.2858C36.24 4.7521 36.8664 4.1332 36.8664 3.47349C36.8664 2.7535 36.1209 2.0824 34.8339 1.5172C34.8018 1.5031 34.7694 1.48901 34.7391 1.46981C34.71 1.46561 34.6812 1.45211 34.6515 1.43231C34.6215 1.41251 34.5909 1.38371 34.5567 1.34021C34.4493 0.810408 34.4493 0.194796 33.5493 0.502299C33.2493 0.502299 33.8493 1.11821 33.2931 0.965811C33.252 0.953513 33.2109 0.941203 33.1692 0.929503C33.1275 0.917201 33.0858 0.905497 33.0435 0.893797C33.0003 0.881495 32.9574 0.868594 32.9142 0.850893C32.3493 0.810393 32.0493 -0.421102 31.4475 0.406901C31.4142 0.431498 31.3797 0.458498 31.3446 0.4882C31.3086 0.4858 31.2726 0.480109 31.2363 0.47291C30.8493 0.19451 30.5493 0.194499 30.2493 0.194499C30.2493 0.501998 30.2493 0.810408 30.2493 0.810408C29.7993 1.04141 29.8557 0.579398 29.6811 0.326499C29.6229 0.242198 29.5389 0.1813 29.4024 0.176497C29.049 -0.113603 28.449 -0.72949 27.9981 -0.00918704C27.9486 -0.000489533 27.8964 0.00190228 27.8442 0.00370282C27.477 -0.0289968 27.1026 -0.05779 26.7222 -0.0817883C26.6676 -0.0853893 26.6133 -0.0886967 26.5587 -0.091695C26.049 -0.113298 25.749 -1.03729 25.2243 -0.247995C25.1679 -0.214696 25.1112 -0.19159 25.0545 -0.15529C24.6576 -0.165189 24.2553 -0.170594 23.8488 -0.170594C23.3439 -0.170594 22.8459 -0.162503 22.356 -0.146005L22.3566 46.5277Z" fill="#0BAAD0"/>
</g>
</svg>