<svg width="87" height="89" viewBox="0 0 87 89" fill="none" xmlns="http://www.w3.org/2000/svg">
<path d="M6.64121 41.9749C10.9955 45.2988 16.3632 52.9361 12.8879 68.9832C9.2472 85.797 26.9171 90.274 36.6597 86.8458C42.9142 84.6446 50.1082 76.2226 64.1468 79.8958C71.9167 81.9287 85.7957 82.2205 80.507 63.2018C75.2182 44.1831 78.6737 41.3511 83.7957 31.8719C88.9177 22.3927 83.2125 10.5982 70.6769 13.1869C58.1412 15.7756 57.2892 14.0413 44.2349 10.7054C31.1805 7.36959 17.6863 9.85371 10.3293 14.242C2.99716 18.6153 -5.67898 32.57 6.64121 41.9749Z" fill="#D5F9F6"/>
<path d="M68.8336 23.924C68.4478 23.924 68.136 23.6115 68.136 23.2263V17.6449C68.136 17.2598 68.4478 16.9473 68.8336 16.9473C69.2195 16.9473 69.5313 17.2598 69.5313 17.6449V23.2263C69.5313 23.6121 69.2195 23.924 68.8336 23.924Z" fill="#FAD7BD"/>
<path d="M71.6248 21.1333H66.0434C65.6576 21.1333 65.3457 20.8208 65.3457 20.4357C65.3457 20.0505 65.6576 19.738 66.0434 19.738H71.6248C72.0106 19.738 72.3225 20.0505 72.3225 20.4357C72.3225 20.8208 72.0106 21.1333 71.6248 21.1333Z" fill="#FAD7BD"/>
<path d="M76.968 63.7854C76.5822 63.7854 76.2704 63.4728 76.2704 63.0877V57.5063C76.2704 57.1212 76.5822 56.8086 76.968 56.8086C77.3538 56.8086 77.6657 57.1212 77.6657 57.5063V63.0877C77.6657 63.4728 77.3538 63.7854 76.968 63.7854Z" fill="#FAD7BD"/>
<path d="M79.7592 60.9947H74.1778C73.792 60.9947 73.4801 60.6821 73.4801 60.297C73.4801 59.9119 73.792 59.5993 74.1778 59.5993H79.7592C80.145 59.5993 80.4569 59.9119 80.4569 60.297C80.4569 60.6821 80.145 60.9947 79.7592 60.9947Z" fill="#FAD7BD"/>
<path d="M24.1801 76.1678C23.7943 76.1678 23.4824 75.8552 23.4824 75.4701V69.8887C23.4824 69.5036 23.7943 69.191 24.1801 69.191C24.5659 69.191 24.8778 69.5036 24.8778 69.8887V75.4701C24.8778 75.8552 24.5659 76.1678 24.1801 76.1678Z" fill="#FAD7BD"/>
<path d="M26.9713 73.3771H21.3899C21.0041 73.3771 20.6922 73.0645 20.6922 72.6794C20.6922 72.2943 21.0041 71.9817 21.3899 71.9817H26.9713C27.3571 71.9817 27.6689 72.2943 27.6689 72.6794C27.6689 73.0645 27.3571 73.3771 26.9713 73.3771Z" fill="#FAD7BD"/>
<path d="M11.3297 29.7193C10.9439 29.7193 10.632 29.4068 10.632 29.0217V23.4403C10.632 23.0552 10.9439 22.7426 11.3297 22.7426C11.7155 22.7426 12.0274 23.0552 12.0274 23.4403V29.0217C12.0274 29.4068 11.7155 29.7193 11.3297 29.7193Z" fill="#FAD7BD"/>
<path d="M14.1209 26.9287H8.53947C8.15366 26.9287 7.8418 26.6161 7.8418 26.231C7.8418 25.8459 8.15366 25.5333 8.53947 25.5333H14.1209C14.5067 25.5333 14.8185 25.8459 14.8185 26.231C14.8185 26.6161 14.5067 26.9287 14.1209 26.9287Z" fill="#FAD7BD"/>
<path d="M31.5107 47.5452V61.514C31.5107 61.514 36.4827 61.514 38.2584 61.514C40.0341 61.514 41.9282 63.053 49.1494 63.053C56.2522 63.053 59.4484 62.2243 59.6852 60.6854C59.922 59.1464 59.6852 58.3178 58.9749 57.7259C58.9749 57.7259 61.9345 57.0156 61.9345 54.7664C61.9345 52.5171 60.6322 52.0436 60.6322 52.0436C60.6322 52.0436 62.9998 51.0966 62.9998 48.8474C62.9998 46.5981 61.3426 46.0062 61.3426 46.0062C61.3426 46.0062 62.9998 45.5327 62.9998 43.0467C62.9998 40.4423 60.3955 40.2056 60.3955 40.2056C60.3955 40.2056 52.1089 40.2056 51.0435 40.2056C49.8597 40.2056 49.3861 38.785 50.2148 37.0093C51.0435 35.1153 51.9905 32.6293 51.9905 30.7352C51.9905 28.8411 51.0435 26 48.9126 26C48.084 26 48.084 26.3552 47.9656 27.4206C47.7289 28.486 46.4266 31.8006 44.059 34.8785C41.6914 37.9564 40.2709 39.9688 38.0216 43.5202C35.5357 47.0717 32.9313 47.5452 31.5107 47.5452Z" fill="#FAD7BD" stroke="#552CE8" stroke-width="2" stroke-miterlimit="10" stroke-linecap="round" stroke-linejoin="round"/>
<path d="M31.3926 44.4673H25V64.8287H31.3926V44.4673Z" fill="#44E0E8" stroke="#552CE8" stroke-width="2" stroke-miterlimit="10" stroke-linecap="round" stroke-linejoin="round"/>
<path d="M6.87906 60.1894C5.29883 60.1894 4.01367 58.9043 4.01367 57.324C4.01367 55.7438 5.29952 54.4587 6.87906 54.4587C8.45859 54.4587 9.74368 55.7438 9.74368 57.324C9.74368 58.9043 8.45929 60.1894 6.87906 60.1894ZM6.87906 55.854C6.06836 55.854 5.40902 56.5133 5.40902 57.324C5.40902 58.1347 6.06836 58.794 6.87906 58.794C7.68906 58.794 8.34833 58.1347 8.34833 57.324C8.34833 56.5133 7.68906 55.854 6.87906 55.854Z" fill="#05B7C5"/>
<path d="M9.04611 58.0218C8.6603 58.0218 8.34833 57.7092 8.34833 57.324L8.34844 50.2476C8.34844 49.9825 8.49843 49.7404 8.73564 49.6225C8.97425 49.5046 9.25611 49.5311 9.46751 49.6915L11.3861 51.1448C11.6931 51.3771 11.7538 51.8146 11.5208 52.1222C11.2884 52.4278 10.851 52.4899 10.544 52.2569L9.74451 51.6513L9.74368 57.324C9.74298 57.7092 9.43193 58.0218 9.04611 58.0218Z" fill="#05B7C5"/>
<path d="M36.6062 11.0733C35.0259 11.0733 33.7408 9.78817 33.7408 8.20794C33.7408 6.6277 35.0266 5.34259 36.6062 5.34259C38.1857 5.34259 39.4708 6.6277 39.4708 8.20794C39.4708 9.78817 38.1864 11.0733 36.6062 11.0733ZM36.6062 6.73862C35.7955 6.73862 35.1362 7.39792 35.1362 8.20862C35.1362 9.01931 35.7955 9.67863 36.6062 9.67863C37.4162 9.67863 38.0755 9.01931 38.0755 8.20862C38.0755 7.39792 37.4162 6.73862 36.6062 6.73862Z" fill="#05B7C5"/>
<path d="M38.7733 8.90629C38.3875 8.90629 38.0755 8.59373 38.0755 8.20862L38.0756 1.13212C38.0756 0.867004 38.2256 0.624914 38.4628 0.507007C38.7007 0.3891 38.9833 0.415611 39.1947 0.576076L41.1133 2.02932C41.4203 2.26164 41.481 2.69908 41.248 3.00676C41.0156 3.31234 40.5782 3.37515 40.2712 3.14143L39.4717 2.53584V8.20861C39.471 8.59373 39.1591 8.90629 38.7733 8.90629Z" fill="#05B7C5"/>
<path d="M64.3822 81.4869C62.8019 81.4869 61.5168 80.2017 61.5168 78.6215C61.5168 77.0413 62.8026 75.7562 64.3822 75.7562C65.9617 75.7562 67.2468 77.0413 67.2468 78.6215C67.2468 80.2017 65.9624 81.4869 64.3822 81.4869ZM64.3822 77.1515C63.5715 77.1515 62.9122 77.8108 62.9122 78.6215C62.9122 79.4322 63.5715 80.0915 64.3822 80.0915C65.1922 80.0915 65.8515 79.4322 65.8515 78.6215C65.8515 77.8108 65.1922 77.1515 64.3822 77.1515Z" fill="#05B7C5"/>
<path d="M66.5493 79.3192C66.1635 79.3192 65.8515 79.0066 65.8515 78.6215L65.8516 71.545C65.8516 71.2799 66.0016 71.0378 66.2388 70.9199C66.4767 70.8027 66.7593 70.8285 66.9707 70.989L68.8893 72.4422C69.1963 72.6745 69.2569 73.112 69.0239 73.4197C68.7916 73.7252 68.3541 73.7873 68.0472 73.5543L67.2476 72.9487L67.2468 78.6215C67.2461 79.0066 66.9351 79.3192 66.5493 79.3192Z" fill="#05B7C5"/>
</svg>