<svg width="21" height="13" viewBox="0 0 21 13" fill="none" xmlns="http://www.w3.org/2000/svg">
<path fill-rule="evenodd" clip-rule="evenodd" d="M18.6538 2.22452L11.5875 6.34655L18.5121 10.5116L18.334 10.8077L18.4871 10.8077L18.4873 10.8077C18.4896 10.8077 18.4923 10.8077 18.4995 10.8043C18.5086 10.8 18.5282 10.7884 18.5523 10.7618C18.6016 10.7072 18.6538 10.6052 18.6538 10.4615L18.6538 2.22452ZM10.1218 5.46497L16.9189 1.5L3.52984 1.5L10.1218 5.46497ZM8.64442 6.32678L1.65381 10.4046L1.65381 2.12203L8.64442 6.32678ZM3.9398 10.8077L10.1101 7.20836L16.0942 10.8077L3.9398 10.8077ZM1.44779 12.2614C1.56761 12.2917 1.69236 12.3077 1.82047 12.3077L18.4871 12.3077C19.4076 12.3077 20.1538 11.4811 20.1538 10.4615L20.1538 1.84615C20.1538 0.826551 19.4076 -3.26171e-08 18.4871 -7.28523e-08L1.82047 -8.01375e-07C0.9 -8.41611e-07 0.153809 0.82655 0.153809 1.84615L0.153808 10.4615C0.153808 11.294 0.651172 11.9977 1.33468 12.228L1.3779 12.3021L1.44779 12.2614Z" fill="white"/>
</svg>