<svg width="50" height="165" viewBox="0 0 50 165" fill="none" xmlns="http://www.w3.org/2000/svg">
<path d="M24.9009 164.899C38.6722 164.899 49.8359 153.766 49.8359 140.032C49.8359 126.298 38.6722 115.165 24.9009 115.165C11.1297 115.165 -0.0340576 126.298 -0.0340576 140.032C-0.0340576 153.766 11.1297 164.899 24.9009 164.899Z" fill="#481CC3"/>
<path d="M24.9 115.169C19.9 115.197 15.804 116.5 12.083 118.745C12.072 118.81 12.011 118.875 12.011 118.94C12.011 119.885 13.154 120.752 15.099 121.439C15.107 121.442 15.104 121.443 15.111 121.446C15.309 121.515 15.509 121.584 15.724 121.648C19.066 122.73 24.037 124.127 24.037 126.123C24.037 128.302 19.676 129.195 16.974 130.836C15.904 131.463 15.284 132.203 15.284 132.998C15.284 134.066 16.405 135.039 18.237 135.767C20.045 136.669 22.015 137.868 22.015 139.285C22.015 141.796 13.962 143.402 10.283 145.402H10.285C7.33097 146.402 5.55896 147.348 5.55896 148.649C5.55896 150.128 7.84796 151.378 11.559 152.355C15.348 153.605 22.372 154.954 22.372 157.063C22.372 158 20.789 158.713 19.135 159.359C16.777 160.115 15.283 161.218 15.283 162.464C15.283 162.659 15.41 162.846 15.482 163.034C18.364 164.219 21.9 164.877 24.9 164.896V115.169Z" fill="#1FE7E7"/>
<path d="M27.51 139.697C27.506 139.835 27.506 139.982 27.506 140.15C27.605 139.946 27.58 139.807 27.51 139.697Z" fill="#0BAAD0"/>
<path d="M24.9 115.17V164.897C24.9 164.897 24.926 164.901 24.979 164.901C29.503 164.901 33.703 163.693 37.361 161.592C37.203 161.313 36.949 161.045 36.645 160.79C36.595 160.746 36.533 160.704 36.481 160.668C36.157 160.572 35.82 160.912 35.82 161.253C35.291 160.982 35.392 160.49 35.191 160.175C35.14 160.095 35.069 160.028 34.962 159.956C34.817 159.212 34.485 158.871 34.152 158.531C34.152 158.531 34.151 158.871 33.986 158.766C33.965 158.724 33.938 158.682 33.909 158.641C33.882 158.601 33.853 158.564 33.819 158.531C33.486 158.531 33.153 159.213 32.783 159.474C32.74 159.53 32.568 159.581 32.525 159.627C32.358 159.805 31.899 159.891 31.899 159.551C31.899 159.211 31.899 158.869 31.899 158.53C31.899 158.189 31.03 158.53 30.7 159.212C30.7 158.956 30.764 158.701 30.624 158.445C30.576 158.36 30.546 158.275 30.464 158.329C30.464 158.384 30.478 158.437 30.476 158.492C30.468 158.66 30.456 158.84 30.409 158.977C30.393 159.023 30.377 159.062 30.355 159.09C30.017 158.947 30.173 158.054 29.882 157.648C29.849 157.604 29.812 157.565 29.769 157.533C29.499 157.509 29.167 157.509 28.718 157.594C28.677 157.574 28.64 157.557 28.6 157.541C27.701 157.13 27.078 156.694 27.078 156.252C27.078 155.917 27.293 155.616 27.67 155.35C27.717 155.316 27.766 155.283 27.816 155.251C27.869 155.218 27.922 155.187 27.979 155.155C28.285 155.138 28.415 154.551 28.688 154.273C28.728 154.233 28.771 154.2 28.816 154.175C29.17 154.104 29.17 153.763 29.17 153.423C29.834 153.082 29.834 154.104 30.369 154.286C30.418 154.312 30.463 154.325 30.502 154.335C31.084 154.485 30.519 154.806 30.832 155.125C31.161 154.444 31.826 154.104 31.826 153.423C32.49 153.423 32.161 154.444 32.825 154.444C32.825 154.159 33.054 153.878 33.238 153.759C33.274 153.736 33.308 153.719 33.34 153.71C33.363 153.679 33.388 153.648 33.41 153.619C33.433 153.59 33.457 153.559 33.48 153.529C33.821 153.422 33.821 153.081 33.821 152.74C33.904 152.74 34.008 152.74 34.119 152.751C34.229 152.761 34.348 152.782 34.461 152.826C34.571 152.868 34.676 152.932 34.762 153.028C34.844 153.124 34.908 153.253 34.938 153.423C35 153.418 35.059 153.407 35.119 153.399C35.3 153.37 35.48 153.342 35.658 153.315C35.921 153.281 36.177 153.248 36.433 153.211C36.484 153.203 36.535 153.195 36.586 153.193C37.48 153.422 37.147 151.381 37.48 152.061C37.812 152.401 38.478 152.741 38.445 153.294C38.484 153.321 38.525 153.345 38.564 153.362C38.644 153.4 38.726 153.422 38.809 153.422C38.809 152.74 39.474 153.081 39.48 152.268C39.506 152.208 39.536 152.154 39.568 152.103C39.723 151.853 39.932 151.721 40.139 151.721C40.362 151.721 40.436 151.872 40.575 152.08C40.61 152.133 40.649 152.188 40.699 152.246C41.137 152.4 41.137 152.74 41.137 153.081C41.801 153.081 41.801 152.06 42.361 151.961C42.398 151.913 42.437 151.865 42.476 151.821C42.515 151.776 42.556 151.733 42.599 151.692C42.627 151.665 42.655 151.637 42.687 151.606C43.131 150.357 43.465 151.04 44.129 151.378C43.465 150.696 43.797 149.676 43.465 148.996C44.129 149.336 44.129 149.676 44.143 150.35C44.152 150.412 44.158 150.465 44.164 150.517C44.195 150.725 44.283 150.926 44.608 151.079C44.637 151.08 44.67 151.074 44.707 151.065C44.742 151.055 44.78 151.041 44.824 151.017C44.863 151.009 44.9 150.991 44.937 150.973C46.472 150.219 47.341 149.361 47.341 148.449C47.341 147.565 46.523 146.731 45.07 145.994C45.032 145.973 44.994 145.955 44.954 145.933C44.871 145.876 44.805 145.8 44.741 145.716C44.711 145.674 44.681 145.632 44.652 145.588C44.425 145.006 44.298 144.859 44.115 144.869C44.084 144.872 44.053 144.876 44.016 144.882C43.462 144.911 43.128 144.57 42.483 144.976C42.45 144.97 42.416 144.958 42.38 144.948C42.311 144.927 42.239 144.906 42.169 144.886C42.126 144.873 42.081 144.86 42.037 144.847C41.466 144.912 41.466 144.231 41.466 143.89C41.4 143.959 41.347 144.04 41.3 144.131C41.279 144.175 41.259 144.221 41.238 144.271C41.267 144.35 41.275 144.411 41.269 144.455C41.263 144.499 41.242 144.525 41.207 144.541C40.133 144.914 40.799 142.872 39.469 143.233C39.428 143.232 39.381 143.232 39.334 143.243C39.196 143.257 39.026 143.354 38.809 143.586C38.768 143.612 38.726 143.646 38.688 143.681C38.452 143.895 38.267 144.238 38.059 144.243C38.025 144.258 37.989 144.269 37.954 144.283C37.872 144.312 37.786 144.345 37.696 144.377C37.807 144.572 37.475 144.914 37.142 144.572C37.142 144.231 36.477 143.89 36.81 143.211C36.477 143.211 36.477 143.211 36.397 143.42C36.34 143.423 36.282 143.412 36.221 143.398C36.159 143.383 36.101 143.368 36.041 143.354C36 143.344 35.961 143.334 35.92 143.324C35.812 143.553 35.148 143.892 35.479 144.574C35.415 144.54 35.354 144.507 35.299 144.471C35.244 144.435 35.197 144.493 35.153 144.458C34.481 143.984 34.148 143.397 33.608 143.397C33.566 143.397 33.525 143.397 33.483 143.397C33.15 142.397 32.82 142.284 32.485 141.943C32.771 142.234 32.332 142.478 32.196 142.769C32.236 142.366 31.191 142.841 31.53 142.327C31.49 142.287 31.447 142.233 31.404 142.191C31.36 142.15 31.315 142.104 31.27 142.065C31.232 142.053 31.192 142.039 31.156 142.026C31.039 141.988 30.922 141.949 30.807 141.912C30.749 141.892 30.693 141.874 30.639 141.85C30.626 141.766 30.61 141.689 30.591 141.622C30.522 141.066 30.337 140.733 30.235 140.351C30.218 140.295 30.207 140.24 30.195 140.183C30.16 140.148 30.16 139.809 30.16 139.809C29.828 140.148 29.828 140.148 29.528 140.502C29.498 140.555 29.471 140.608 29.446 140.663C29.342 140.878 29.24 141.092 29.07 141.267C29.023 141.248 28.975 141.227 28.93 141.208C28.894 141.191 28.891 141.176 28.856 141.161C28.2 141.511 27.898 140.147 27.898 140.488C27.898 140.488 27.898 140.829 27.898 141.17C27.898 140.609 27.536 140.05 27.341 139.49C27.417 139.547 27.503 139.612 27.555 139.694C27.571 139.278 27.898 138.96 27.898 138.446V138.788C27.898 138.542 28.187 138.354 28.352 138.223C28.394 138.191 28.419 138.16 28.462 138.134C29.182 138.108 29.505 138.788 30.204 138.049C30.236 138.016 30.261 137.978 30.278 137.928C30.298 137.879 30.303 137.822 30.299 137.761C30.293 137.699 30.275 137.632 30.237 137.565C30.491 137.427 30.49 137.427 30.564 137.116C30.597 137.088 30.632 137.056 30.669 137.026C30.708 137.013 30.747 137 30.786 136.985C30.827 136.97 30.864 136.955 30.897 136.928C30.823 136.745 31.487 136.405 31.153 136.065C32.153 135.724 31.818 137.086 32.341 137.155C32.382 137.163 32.429 137.142 32.483 137.088C32.483 136.405 32.483 135.386 33.481 135.046C33.316 135.216 33.399 135.387 33.53 135.552C33.596 135.635 33.676 135.716 33.74 135.807C33.814 136.407 34.479 136.407 34.695 136.401C34.714 136.46 34.727 136.52 34.741 136.584C34.753 136.646 34.762 136.713 34.768 136.777C34.775 136.843 34.781 136.91 34.788 136.976C35.476 136.407 33.814 138.449 35.146 137.457C35.148 137.402 35.148 137.347 35.149 137.29C35.17 136.661 35.256 135.9 35.663 135.296C35.739 135.242 35.813 135.199 35.887 135.159C35.958 135.117 36.029 135.074 36.097 135.032C36.13 135.011 36.163 134.989 36.198 134.967C36.475 134.364 37.473 134.364 37.52 133.459C37.537 133.407 37.548 133.355 37.562 133.303C37.583 133.199 37.594 133.094 37.594 132.987C37.594 132.252 37.062 131.561 36.13 130.965C35.999 130.88 35.859 130.798 35.71 130.715C35.146 130.963 34.481 131.304 34.21 130.4C34.128 130.385 34.052 130.391 33.981 130.388C33.198 130.353 33.41 128.94 32.578 129.142C32.545 129.151 32.513 129.162 32.479 129.178C31.932 128.964 31.839 127.747 31.337 128.119C31.288 128.155 31.234 128.21 31.173 128.3C31.154 128.581 30.489 128.921 30.489 129.261C29.827 128.92 30.159 128.24 29.72 127.81C29.664 127.764 29.61 127.721 29.559 127.677C28.981 127.199 28.621 126.666 28.621 126.039C28.621 125.723 28.74 125.428 28.959 125.152C28.996 125.106 29.035 125.06 29.074 125.011C28.828 124.493 29.492 124.156 29.492 123.815C29.826 123.474 29.826 124.836 30.445 124.465C30.475 124.425 30.504 124.376 30.522 124.319C30.675 123.933 30.621 123.3 30.942 123.146C31.035 123.103 31.158 123.098 31.324 123.15C31.818 122.452 32.482 122.452 32.97 123.032C33.013 123.006 33.055 122.971 33.095 122.934C33.531 122.529 33.703 121.655 34.512 122.478C34.552 122.478 34.592 122.469 34.629 122.457C34.688 122.437 34.746 122.419 34.807 122.399C34.865 122.377 34.922 122.353 34.981 122.326C34.988 122.281 34.999 122.24 35.009 122.201C35.021 122.163 35.03 122.127 35.043 122.094C35.353 120.891 35.778 121.24 36.332 121.496C36.387 121.52 36.441 121.546 36.5 121.565C36.756 121.647 36.961 121.478 37.158 121.302C37.254 121.213 37.349 121.124 37.446 121.054C38.135 121.77 37.47 118.706 38.634 120.641C38.729 120.751 38.816 120.816 38.907 120.931C39.345 120.718 39.715 120.492 40.01 120.256C35.816 117.062 30.656 115.16 24.973 115.16C24.926 115.166 24.9 115.17 24.9 115.17Z" fill="#0BAAD0"/>
<path d="M13.4921 104.378C13.5061 106.167 13.5151 107.062 13.5311 108.851C21.6601 107.013 30.1381 107.211 38.1831 109.377C38.1711 110.379 38.1651 110.88 38.1571 111.881C28.5541 109.789 20.576 109.826 10.993 112.004C10.947 108.186 10.9271 106.275 10.8921 102.456C20.4111 100.675 28.7241 100.641 38.2531 102.355C38.2421 103.356 38.2381 103.857 38.2301 104.859C30.1331 102.873 21.6601 102.691 13.4921 104.378Z" fill="#481CC3"/>
<path d="M34.645 89.143C36.692 89.391 38.336 91.271 38.325 93.245C38.317 94.247 38.3131 94.75 38.3051 95.752C38.2931 97.689 36.6351 98.953 34.5991 98.634C27.9651 97.589 21.1751 97.612 14.5491 98.701C12.5121 99.035 10.852 97.777 10.839 95.838C10.833 94.834 10.829 94.332 10.824 93.326C10.81 91.348 12.4541 89.455 14.4981 89.196C21.1781 88.346 27.963 88.327 34.645 89.143ZM13.4161 92.878C13.4201 93.869 13.4241 94.364 13.4301 95.358C13.4341 95.92 13.9471 96.322 14.5351 96.23C21.1771 95.203 27.9651 95.181 34.6131 96.167C35.2411 96.26 35.7131 95.851 35.7171 95.287C35.7231 94.297 35.7271 93.802 35.7321 92.811C35.7361 92.249 35.2661 91.69 34.6371 91.608C27.9631 90.733 21.1781 90.754 14.5111 91.666C13.9201 91.746 13.4111 92.312 13.4161 92.878Z" fill="#481CC3"/>
<path d="M10.7531 73.852C10.7531 71.873 12.4121 70.149 14.4641 70.038C16.5651 69.923 17.617 69.882 19.715 69.824C21.058 69.789 23.5051 71.854 23.5051 71.854C23.6211 71.851 25.5971 69.754 26.9411 69.769C30.0341 69.803 31.5861 69.852 34.6791 70.013C36.7321 70.118 38.3911 71.838 38.3881 73.813C38.3881 76.209 38.3861 77.411 38.3801 79.81C29.0461 78.95 20.0911 78.965 10.7621 79.862C10.7561 77.459 10.7541 76.256 10.7531 73.852ZM19.5991 72.26C17.5451 72.325 16.517 72.375 14.465 72.506C13.872 72.545 13.3591 73.03 13.3591 73.633C13.3611 75.017 13.3611 75.709 13.3631 77.092C16.9311 76.773 18.7151 76.676 22.2831 76.608C22.2831 75.594 22.2831 75.087 22.2831 74.073C22.2821 72.639 21.0981 72.213 19.5991 72.26ZM35.7801 77.053C35.7821 75.67 35.782 74.982 35.784 73.601C35.784 72.998 35.3101 72.518 34.6801 72.48C31.4731 72.285 29.8711 72.226 26.6641 72.189C24.8891 72.17 24.6901 72.95 24.6901 74.308C24.6901 75.217 24.6901 75.672 24.6901 76.584C29.1251 76.584 31.3441 76.672 35.7801 77.053Z" fill="#481CC3"/>
<path d="M34.657 57.534C36.705 57.549 38.3651 59.161 38.3731 61.137C38.3751 62.138 38.377 62.64 38.379 63.642C38.385 65.578 36.7311 67.113 34.6781 67.027C27.9441 66.748 21.2001 66.756 14.4671 67.045C12.4151 67.135 10.7591 65.6 10.7621 63.659C10.7661 62.654 10.768 62.153 10.77 61.149C10.775 59.17 12.437 57.555 14.487 57.539C21.21 57.485 27.934 57.487 34.657 57.534ZM13.375 61.079C13.371 62.072 13.37 62.569 13.368 63.56C13.368 64.124 13.8791 64.593 14.4711 64.574C21.2021 64.345 27.942 64.34 34.673 64.558C35.307 64.579 35.7771 64.109 35.7761 63.546C35.7761 62.554 35.7731 62.06 35.7731 61.067C35.7681 60.506 35.2951 60.01 34.6641 60C27.9381 59.895 21.2081 59.895 14.4811 60.008C13.8901 60.018 13.375 60.516 13.375 61.079Z" fill="#481CC3"/>
<path d="M13.4381 46.832C13.4291 48.396 13.4231 49.18 13.4151 50.743C18.9331 50.85 21.6871 50.875 27.2051 50.85C31.9981 50.829 38.7601 50.687 38.7831 55.29C37.7431 55.29 37.2221 55.29 36.1841 55.29C36.1731 53.225 30.1561 53.267 28.1891 53.272C22.3951 53.274 16.6031 53.25 10.8081 53.197C10.8271 49.604 10.8391 47.809 10.8701 44.218C20.0351 44.622 29.1141 44.63 38.2761 44.241C38.2841 45.244 38.2901 45.744 38.2961 46.749C30.0151 47.1 21.7201 47.129 13.4381 46.832Z" fill="#481CC3"/>
<path d="M38.1471 31.529C38.1611 32.53 38.1681 33.031 38.1751 34.033C32.7801 34.597 30.0851 34.744 24.6911 34.738C24.6911 36.547 24.6901 37.448 24.6901 39.254C30.1031 39.262 32.8111 39.146 38.2241 38.702C38.2351 39.704 38.2401 40.205 38.2491 41.207C29.0851 41.702 20.0611 41.692 10.8951 41.178C10.9051 40.176 10.9111 39.672 10.9201 38.668C15.4761 39.051 17.7541 39.166 22.3101 39.235C22.3131 37.425 22.3131 36.521 22.3201 34.713C17.7801 34.625 15.5101 34.479 10.9711 33.988C10.9831 32.982 10.9881 32.481 11.0001 31.476C20.1721 32.346 28.9731 32.365 38.1471 31.529Z" fill="#481CC3"/>
<path d="M38.1231 29.252C28.8111 28.975 20.1181 27.842 11.0811 25.586C11.1061 23.774 11.1201 22.866 11.1471 21.058C20.5061 21.115 28.9351 20.036 37.9541 17.524C37.9721 18.527 37.9801 19.027 37.9961 20.029C34.8451 21.039 33.2671 21.45 30.1051 22.11C30.1171 23.839 30.1211 24.702 30.1291 26.43C33.3121 26.668 34.9 26.719 38.09 26.709C38.102 27.727 38.1081 28.234 38.1231 29.252ZM13.6111 23.784C19.2661 25.274 22.0991 25.75 27.7751 26.28C27.7711 24.763 27.7681 24.006 27.7631 22.489C22.1151 23.427 19.2841 23.617 13.6131 23.595C13.6131 23.672 13.6131 23.711 13.6111 23.784Z" fill="#481CC3"/>
<path d="M26.5281 4.409C22.2901 4.254 20.1741 3.945 15.9471 2.846C15.9311 2.948 15.9241 3 15.9061 3.101C23.3771 5.424 29.9351 6.404 37.7561 6.367C37.7771 7.429 37.7851 7.96 37.8061 9.022C30.3931 11.726 23.6251 13.228 15.7641 13.885C15.7781 13.991 15.784 14.043 15.798 14.152C20.1051 14.503 22.2571 14.505 26.5561 14.114C31.0821 13.981 33.3461 13.708 37.8731 12.74C37.8911 13.744 37.8971 14.246 37.9161 15.247C28.7071 16.683 20.4411 16.653 11.2421 15.165C11.2671 13.733 11.2791 13.019 11.3041 11.587C18.3321 11.839 25.3891 10.93 32.0851 8.762C24.7431 8.419 18.2281 6.408 11.4571 3.714C11.4861 2.27 11.5041 1.546 11.5351 0.100998C20.0451 2.587 29.0981 2.62999 37.6311 0.217995C37.6521 1.21999 37.6621 1.722 37.6841 2.723C33.2211 3.911 30.9901 4.248 26.5281 4.409Z" fill="#481CC3"/>
</svg>