<svg width="64" height="64" viewBox="0 0 64 64" fill="none" xmlns="http://www.w3.org/2000/svg">
<path d="M32.0004 63.9772C49.6607 63.9772 63.9773 49.6606 63.9773 32.0002C63.9773 14.3399 49.6607 0.0233154 32.0004 0.0233154C14.34 0.0233154 0.0234375 14.3399 0.0234375 32.0002C0.0234375 49.6606 14.34 63.9772 32.0004 63.9772Z" fill="#CAFDFF"/>
<path d="M55.5362 19.2491C55.4028 19.0931 55.2191 18.9882 55.0171 18.9526L32.7106 15.0193C32.6649 15.0096 32.6185 15.0035 32.5722 15.001C32.5679 15.0007 32.5639 15.0007 32.5596 15.0007C32.5348 14.9996 32.51 14.9999 32.4852 15.001C32.4737 15.0014 32.4618 15.0014 32.4503 15.0024C32.4453 15.0028 32.4406 15.0039 32.4356 15.0042C32.4036 15.0075 32.3713 15.0118 32.34 15.0186L10.0287 18.9526C9.74695 19.0022 9.50649 19.1848 9.3832 19.4428C9.25704 19.707 8.20859 22.3553 10.2333 33.8377C10.3846 34.6945 11.1142 38.7755 11.2936 39.6755C11.7066 41.7476 14.0569 45.0296 17.0096 47.6567C19.646 50.0019 23.6217 52.5352 27.3644 51.8685C29.3988 51.5061 31.1305 50.2521 32.5219 48.7759C33.9186 50.2568 35.6597 51.5155 37.7052 51.8724C38.1171 51.9443 38.529 51.9777 38.9402 51.9777C42.6021 51.9777 46.1568 49.328 48.0597 47.6279C51.0131 44.9897 53.3598 41.6969 53.7667 39.6205C53.9374 38.7489 54.6606 34.6988 54.8108 33.8456C56.8488 22.2885 55.9969 19.7879 55.5362 19.2491ZM27.0539 50.1245C24.6151 50.5587 21.3831 49.1767 18.1871 46.3332C15.3257 43.7874 13.3186 40.7729 13.0307 39.3294C12.8625 38.4854 12.1677 34.6075 11.9776 33.53C10.4734 24.9993 10.712 21.6666 10.896 20.5984L32.1729 16.8467C32.6498 17.6216 33.9445 20.4029 35.5285 29.3858C35.696 30.3361 36.3861 34.3017 36.5169 35.1363C36.7452 36.5923 35.8965 40.1194 34.0818 43.5006C32.0557 47.2757 29.494 49.6899 27.0539 50.1245ZM37.2645 40.6934C37.914 40.3656 38.7245 40.2003 39.7248 40.3735C42.1017 40.7854 42.8066 42.6275 43.0122 43.8136L36.4555 42.6911C36.7577 42.0226 37.0288 41.3519 37.2645 40.6934ZM53.0665 33.5382C52.8775 34.6111 52.1891 38.461 52.0288 39.2798C51.7453 40.7265 49.7418 43.7504 46.8796 46.307C43.6847 49.1616 40.4512 50.5537 38.01 50.1277C36.5633 49.8751 35.0731 48.9265 33.676 47.4115C34.5074 46.3242 35.1655 45.2262 35.637 44.3485C35.637 44.3485 43.7803 45.742 43.8277 45.7502C44.313 45.8333 44.8349 45.4472 44.8618 44.9228C44.8647 44.8678 44.9247 43.562 44.3798 42.152C43.8565 40.798 42.6768 39.0875 40.0275 38.6285C39.2824 38.4995 38.57 38.4987 37.8993 38.6209C38.2735 37.134 38.4158 35.8113 38.267 34.862C38.2645 34.8469 38.2616 34.829 38.2587 34.8117C38.2587 34.8117 42.0759 35.6017 42.1355 35.6017C42.5464 35.6017 42.9144 35.3145 43.0018 34.8965C43.1017 34.4178 42.7947 33.9487 42.3156 33.8488L38.2983 33.0106C38.5934 32.6785 41.9655 29.9788 41.9655 29.9788C42.3462 29.6715 42.4055 29.114 42.0978 28.7334C41.7908 28.3528 41.233 28.2938 40.8527 28.6011C40.8527 28.6011 38.0632 30.8091 37.6398 31.1815C37.477 30.2437 37.3318 29.4131 37.2728 29.0784C37.0586 27.8632 36.8487 26.7544 36.6434 25.7401L39.5156 25.363C40.0005 25.299 40.342 24.8544 40.2784 24.3695C40.2147 23.8847 39.7698 23.5432 39.2849 23.6068L36.2768 24.0015C35.5105 20.5269 34.8258 18.3965 34.2651 17.0925L54.2023 20.6078C54.3853 21.4988 54.6505 24.5554 53.0665 33.5382Z" fill="#552CE8"/>
<path d="M50.9494 27.3719L45.8581 24.7405C45.4239 24.5162 44.8894 24.6862 44.6648 25.1208C44.4401 25.5553 44.6105 26.0898 45.0451 26.3144C45.0451 26.3144 50.1191 28.9365 50.136 28.9455C50.5382 29.1532 51.1051 28.9994 51.3293 28.5652C51.554 28.1306 51.384 27.5965 50.9494 27.3719Z" fill="#552CE8"/>
<path d="M20.9849 27.4765C21.2408 27.0596 21.1107 26.5143 20.6938 26.258L17.7062 24.4231C17.3428 24.2003 16.8723 24.2675 16.5862 24.5831L13.8528 27.6001C13.5246 27.9624 13.5523 28.5224 13.9146 28.851C14.2467 29.1518 14.8401 29.1489 15.1658 28.7895L17.4054 26.3173L19.7668 27.7676C20.1838 28.0235 20.729 27.8934 20.9849 27.4765Z" fill="#552CE8"/>
<path d="M31.7275 24.409L28.1206 22.5227C27.7429 22.325 27.2781 22.4249 27.0143 22.7599L24.8423 25.5185C24.54 25.9028 24.6058 26.4592 24.9897 26.7618C25.3412 27.0389 25.9375 26.9908 26.234 26.6145L27.9514 24.4331L30.9066 25.9786C31.3401 26.2051 31.8752 26.0376 32.1017 25.6041C32.3285 25.1706 32.1606 24.6354 31.7275 24.409Z" fill="#552CE8"/>
<path d="M21.3769 35.6463C21.6375 36.0093 22.0429 36.2066 22.512 36.2066C22.591 36.2066 26.3877 35.3602 26.3877 35.3602C26.8643 35.2509 27.1623 34.7757 27.053 34.2991C26.9437 33.8222 26.4689 33.5238 25.992 33.6338L22.8452 34.3548C22.9286 33.5727 23.536 31.8665 24.3116 30.3037C24.5291 29.8656 24.3505 29.334 23.9123 29.1165C23.4742 28.8994 22.9429 29.0777 22.7255 29.5158C22.7032 29.5608 22.1709 30.6351 21.718 31.8489C20.9822 33.82 20.8802 34.9558 21.3769 35.6463Z" fill="#552CE8"/>
<path d="M30.9141 37.5886C30.9141 37.5886 19.1565 39.6981 19.1216 39.7042C18.5375 39.8092 18.2166 40.4874 18.5034 41.0053C18.5307 41.0546 19.1885 42.2288 20.4307 43.2953C21.9852 44.6302 24.1069 45.325 26.1438 44.9594C28.1857 44.5928 29.8402 43.3668 30.9278 41.4133C31.7239 39.9831 31.9367 38.655 31.9457 38.5957C32.0381 38.0016 31.5047 37.4826 30.9141 37.5886ZM25.8307 43.2158C23.4373 43.645 21.7311 42.2501 20.8181 41.1994L29.8323 39.5824C29.3312 40.8853 28.2048 42.7899 25.8307 43.2158Z" fill="#552CE8"/>
<path d="M49.8946 32.5697C49.4104 32.5301 48.9791 32.8964 48.94 33.3802C48.94 33.3802 48.9389 33.3985 48.9346 33.442C48.9184 33.6077 48.7681 35.1051 48.3153 36.6941C48.1816 37.1635 48.4554 37.6542 48.9249 37.7879C49.3914 37.9223 49.8867 37.6445 50.0193 37.1786C50.5189 35.4178 50.6774 33.8352 50.7048 33.5358C50.7048 33.5297 50.7058 33.5243 50.7058 33.5243C50.7457 33.0373 50.3816 32.6096 49.8946 32.5697Z" fill="#552CE8"/>
<path d="M48.5826 40.1306C48.5826 40.6194 48.1861 41.0162 47.6969 41.0162C47.2077 41.0162 46.8113 40.6194 46.8113 40.1306C46.8113 39.6414 47.2077 39.2449 47.6969 39.2449C48.1861 39.2449 48.5826 39.6414 48.5826 40.1306Z" fill="#552CE8"/>
</svg>