<svg width="64" height="64" viewBox="0 0 64 64" fill="none" xmlns="http://www.w3.org/2000/svg">
<path d="M31.9999 63.9767C49.6602 63.9767 63.9767 49.6602 63.9767 31.9999C63.9767 14.3397 49.6602 0.0231934 31.9999 0.0231934C14.3397 0.0231934 0.0231934 14.3397 0.0231934 31.9999C0.0231934 49.6602 14.3397 63.9767 31.9999 63.9767Z" fill="#CAFDFF"/>
<path d="M39.5807 27.5227C40.0505 27.5227 40.4314 27.1419 40.4314 26.6721C40.4314 26.2023 40.0505 25.8215 39.5807 25.8215C39.111 25.8215 38.7301 26.2023 38.7301 26.6721C38.7301 27.1419 39.111 27.5227 39.5807 27.5227Z" fill="#552CE8"/>
<path d="M25.9709 27.5227C26.4406 27.5227 26.8215 27.1419 26.8215 26.6721C26.8215 26.2023 26.4406 25.8215 25.9709 25.8215C25.5011 25.8215 25.1202 26.2023 25.1202 26.6721C25.1202 27.1419 25.5011 27.5227 25.9709 27.5227Z" fill="#552CE8"/>
<path d="M32.7758 46.2363C38.902 46.2363 43.8338 41.2669 43.8338 35.1783C43.8338 34.7086 43.4529 34.3277 42.9832 34.3277H22.5684C22.0986 34.3277 21.7178 34.7086 21.7178 35.1783C21.7178 41.2511 26.6281 46.2363 32.7758 46.2363ZM29.3766 43.8966C30.365 43.2052 31.5377 42.8338 32.7758 42.8338C34.0139 42.8338 35.1866 43.2052 36.175 43.8966C35.0982 44.3159 33.9429 44.5351 32.7758 44.5351C31.6088 44.5351 30.4536 44.316 29.3766 43.8966ZM37.8381 43.0453C36.4405 41.8074 34.6677 41.1326 32.7758 41.1326C30.8838 41.1326 29.1109 41.8074 27.7134 43.0453C26.3172 42.1466 25.1892 40.9002 24.4396 39.4305H41.1119C40.3624 40.9 39.2346 42.1464 37.8381 43.0453ZM42.0945 36.0289C42.0425 36.606 41.9374 37.1746 41.7803 37.7301H23.7713C23.6142 37.1746 23.509 36.606 23.4571 36.0289H42.0945Z" fill="#552CE8"/>
<path d="M25.9709 30.9252C28.316 30.9252 30.224 28.6357 30.224 25.8215C30.224 23.0073 28.316 20.7178 25.9709 20.7178C23.6257 20.7178 21.7178 23.0073 21.7178 25.8215C21.7178 28.6357 23.6257 30.9252 25.9709 30.9252ZM25.9709 22.419C27.378 22.419 28.5227 23.9454 28.5227 25.8215C28.5227 27.6976 27.378 29.224 25.9709 29.224C24.5638 29.224 23.419 27.6976 23.419 25.8215C23.419 23.9454 24.5638 22.419 25.9709 22.419Z" fill="#552CE8"/>
<path d="M43.8338 25.8215C43.8338 23.0073 41.9259 20.7178 39.5807 20.7178C37.2356 20.7178 35.3277 23.0073 35.3277 25.8215C35.3277 28.6357 37.2356 30.9252 39.5807 30.9252C41.9259 30.9252 43.8338 28.6357 43.8338 25.8215ZM37.0289 25.8215C37.0289 23.9454 38.1737 22.419 39.5807 22.419C40.9878 22.419 42.1326 23.9454 42.1326 25.8215C42.1326 27.6976 40.9878 29.224 39.5807 29.224C38.1737 29.224 37.0289 27.6976 37.0289 25.8215Z" fill="#552CE8"/>
<path d="M17.9751 47.4272C18.4448 47.4272 18.8257 47.0463 18.8257 46.5765C18.8257 46.1068 18.4448 45.7259 17.9751 45.7259C17.5053 45.7259 17.1244 46.1068 17.1244 46.5765C17.1244 47.0463 17.5053 47.4272 17.9751 47.4272Z" fill="#552CE8"/>
<path d="M32.7758 10C20.7326 10 11 19.7297 11 31.7758C11 36.213 12.3236 40.4807 14.8275 44.1175C15.094 44.5045 15.6237 44.6022 16.0106 44.3357C16.3975 44.0693 16.4952 43.5397 16.2287 43.1527C13.921 39.801 12.7012 35.8669 12.7012 31.7758C12.7012 20.7066 21.7066 11.7012 32.7758 11.7012C43.845 11.7012 52.8504 20.7066 52.8504 31.7758C52.8504 42.845 43.845 51.8504 32.7758 51.8504C28.6848 51.8504 24.7507 50.6306 21.3989 48.3229C21.0119 48.0564 20.4823 48.1541 20.2158 48.541C19.9494 48.928 20.0472 49.4576 20.4341 49.724C24.0711 52.2281 28.3387 53.5516 32.7758 53.5516C44.8189 53.5516 54.5516 43.8221 54.5516 31.7758C54.5516 19.7327 44.8221 10 32.7758 10Z" fill="#552CE8"/>
</svg>