<svg width="21" height="18" viewBox="0 0 21 18" fill="none" xmlns="http://www.w3.org/2000/svg">
<path fill-rule="evenodd" clip-rule="evenodd" d="M19 9C19 9.55229 18.5523 10 18 10L1 10C0.447716 10 -4.82822e-08 9.55228 0 9C4.82823e-08 8.44771 0.447716 8 1 8L18 8C18.5523 8 19 8.44772 19 9ZM11.3042 17.7182C10.9075 17.334 10.8975 16.7009 11.2818 16.3042L18.5856 8.76475L11.3046 1.7186C10.9077 1.33453 10.8973 0.701452 11.2814 0.304579C11.6655 -0.0922947 12.2985 -0.102673 12.6954 0.281399L20.6954 8.02333C20.8861 8.20783 20.9956 8.46053 20.9999 8.7258C21.0041 8.99108 20.9028 9.24718 20.7182 9.43773L12.7182 17.6958C12.334 18.0925 11.7009 18.1025 11.3042 17.7182Z" fill="currentColor"/>
</svg>