<svg width="21" height="28" viewBox="0 0 21 28" fill="none" xmlns="http://www.w3.org/2000/svg">
<path d="M14.3587 23.3355L10.5 21.0287L6.64126 23.3355L7.665 18.8818L4.26563 15.8948L8.74125 15.5081L10.5 11.3344L12.2587 15.5081L16.7344 15.8948L13.335 18.8818L14.3587 23.3355ZM21 0H1.55323e-05V2.66692L6.37876 7.52071C4.1533 8.48558 2.32413 10.2017 1.2006 12.3789C0.0770785 14.5561 -0.271853 17.0607 0.212823 19.4692C0.697498 21.8776 1.98603 24.0421 3.86051 25.5965C5.73499 27.151 8.08037 28 10.5 28C12.9196 28 15.265 27.151 17.1395 25.5965C19.014 24.0421 20.3025 21.8776 20.7872 19.4692C21.2719 17.0607 20.9229 14.5561 19.7994 12.3789C18.6759 10.2017 16.8467 8.48558 14.6212 7.52071L21 2.66692V0ZM18.375 17.335C18.3757 18.8501 17.9529 20.3344 17.1558 21.615C16.3587 22.8956 15.2201 23.9199 13.8724 24.5687C12.5247 25.2176 11.0233 25.4643 9.54303 25.2802C8.06272 25.0961 6.66431 24.4887 5.51049 23.5287C4.35667 22.5687 3.49488 21.2955 3.0254 19.8574C2.55592 18.4193 2.49803 16.8752 2.85849 15.405C3.21895 13.9347 3.98292 12.5987 5.06153 11.5523C6.14013 10.5059 7.48902 9.79221 8.95125 9.49423C9.97307 9.28081 11.0269 9.28081 12.0487 9.49423C13.8323 9.8577 15.4371 10.8373 16.5903 12.2666C17.7435 13.6959 18.3741 15.4868 18.375 17.335ZM11.3269 6.6673H9.67313L4.42313 2.66692H16.6819L11.3269 6.6673Z" fill="#552CE8"/>
</svg>