<svg width="45" height="30" viewBox="0 0 45 30" fill="none" xmlns="http://www.w3.org/2000/svg">
<path fill-rule="evenodd" clip-rule="evenodd" d="M36.982 0.270066C41.8941 0.737912 43.229 2.09995 43.814 6.91611C44.5345 12.851 44.6223 18.8111 43.5437 24.7338C42.9246 28.1318 41.2917 29.8609 37.8603 29.9024C27.4062 30.0303 16.9483 30.0344 6.49423 29.9032C2.95425 29.8583 1.33381 28.1023 0.761737 24.5758C-0.262397 18.264 -0.246888 11.9469 0.766266 5.63557C1.29935 2.31424 2.88798 0.66434 6.20496 0.410044C11.5414 0.00105634 32.0957 -0.196269 36.982 0.270066ZM17.5761 8.42783C21.6446 10.7282 25.3834 12.8418 29.442 15.1365C25.3807 17.4305 21.6064 19.5622 17.5761 21.8388C17.5761 17.2678 17.5761 13.0599 17.5761 8.42783Z" fill="white"/>
</svg>