<svg width="21" height="15" viewBox="0 0 21 15" fill="none" xmlns="http://www.w3.org/2000/svg">
<path d="M5.24935 12.5146C2.40088 10.7402 1 7.89169 1 7.89169V7.845C1 7.845 3.98856 1.82117 10.0124 1.82117C11.8335 1.82117 13.3745 2.38152 14.6353 3.12866M16.1297 4.20271C18.0442 5.88377 19.0248 7.7983 19.0248 7.7983V7.84501C19.0248 7.84501 16.0363 13.8688 10.0125 13.8688C8.93845 13.8688 7.95783 13.682 7.0706 13.3552M12.7675 7.89167C12.7675 9.43265 11.5067 10.6468 10.0124 10.6468C9.91899 10.6468 9.82561 10.6468 9.73221 10.6468M7.95784 9.75951C7.49088 9.24585 7.21068 8.5921 7.21068 7.89166C7.21068 6.35068 8.4715 5.13659 9.96578 5.13659C10.7129 5.13659 11.3667 5.41676 11.8803 5.88372" stroke="currentColor" stroke-width="2" stroke-miterlimit="10" stroke-linecap="round" stroke-linejoin="round"/>
</svg>