<svg width="31" height="30" viewBox="0 0 31 30" fill="none" xmlns="http://www.w3.org/2000/svg">
<path fill-rule="evenodd" clip-rule="evenodd" d="M30.104 4.28582C30.104 1.91885 28.1314 0 25.6987 0H4.40534C1.97255 0 0 1.91885 0 4.28582V25.7142C0 28.0811 1.97255 30 4.40534 30H25.6987C27.4059 30 28.8833 29.0535 29.6144 27.6716H29.6186V27.6638C29.9268 27.0784 30.104 26.4173 30.104 25.7145V4.28582ZM15.2021 21.5676C14.4408 22.2587 13.7236 22.9198 12.9943 23.5682C11.9636 24.4835 10.9363 24.2424 10.4945 22.9348C9.96395 21.3632 9.48192 19.774 9.02133 18.1799C8.89188 17.7321 8.66573 17.5225 8.2311 17.3909C7.12478 17.056 6.03424 16.6701 4.93733 16.3041C4.80261 16.2591 4.66528 16.2179 4.53696 16.1586C3.85247 15.8436 3.30381 15.3801 3.28123 14.5821C3.25827 13.7673 3.80353 13.2982 4.50232 13.0045C10.6774 10.4088 16.857 7.82324 23.0302 5.22227C24.7326 4.5049 25.6805 5.61414 25.6192 6.6915C25.5834 7.31287 25.4096 7.92749 25.2892 8.54323C24.3232 13.4718 23.3651 18.4011 22.3815 23.3259C22.0725 24.8758 20.3976 25.5065 19.1208 24.5634C17.8143 23.597 16.5368 22.5902 15.2021 21.5676ZM23.8953 6.71813C17.6273 9.34835 11.4737 11.9306 5.18005 14.5716C6.64912 15.0606 7.99327 15.4469 9.28511 15.9629C9.99443 16.2464 10.5002 16.132 11.1177 15.742C14.1902 13.8018 17.2902 11.9058 20.3905 10.0091C20.6057 9.87709 20.8966 9.86846 21.1521 9.80209C21.0351 10.0282 20.9267 10.2585 20.7988 10.4782C20.7491 10.5622 20.6558 10.6211 20.5816 10.6901C18.2422 12.8605 15.9208 15.0513 13.5508 17.1884C12.9254 17.7524 12.5458 18.3445 12.4709 19.1871C12.3881 20.1152 12.2071 21.0343 12.0449 22.1139C13.1452 21.1191 14.1176 20.2386 15.1016 19.3487C15.257 19.4627 15.3883 19.5565 15.5163 19.6536C16.9857 20.7756 18.451 21.9028 19.9257 23.0184C20.4751 23.4335 20.6264 23.3687 20.7536 22.7225C21.5532 18.6733 22.3552 14.6245 23.1529 10.5746C23.3971 9.33147 23.6319 8.08574 23.8953 6.71813Z" fill="white"/>
</svg>