<svg width="15" height="21" viewBox="0 0 15 21" fill="none" xmlns="http://www.w3.org/2000/svg">
<path fill-rule="evenodd" clip-rule="evenodd" d="M0 3C0 1.34315 1.34315 0 3 0H11C12.6569 0 14 1.34315 14 3V5H12V3C12 2.44772 11.5523 2 11 2H3C2.44772 2 2 2.44772 2 3V18C2 18.5523 2.44772 19 3 19H11C11.5523 19 12 18.5523 12 18V16.25H14V18C14 19.6569 12.6569 21 11 21H3C1.34315 21 0 19.6569 0 18V3Z" fill="#552CE8"/>
<path fill-rule="evenodd" clip-rule="evenodd" d="M10.5 6.50002L14.7071 10.2929C15.0976 10.6834 15.0976 11.3166 14.7071 11.7071L10.9142 15.4142C10.5237 15.8047 9.89052 15.8047 9.5 15.4142C9.10948 15.0237 9.10948 14.3905 9.5 14L11.5858 12H3V10H11.5858L9.08579 7.91423C8.69526 7.52371 8.69526 6.89054 9.08579 6.50002C9.47631 6.10949 10.1095 6.10949 10.5 6.50002Z" fill="#552CE8"/>
</svg>