<svg width="18" height="18" viewBox="0 0 18 18" fill="none" xmlns="http://www.w3.org/2000/svg">
<path fill-rule="evenodd" clip-rule="evenodd" d="M9.77595 0.0701992C9.64116 0.0593992 9.50862 0.02385 9.37564 0C9.13315 0 8.89066 0 8.64817 0C8.0092 0.1161 7.35578 0.181575 6.7333 0.3555C1.31924 1.86728 -1.31203 7.85115 1.23774 12.8486C1.43282 13.2307 1.46645 13.5594 1.32218 13.9628C0.915541 15.1002 0.545261 16.2504 0.163687 17.3963C0.107693 17.5644 0.0702186 17.7386 0 18C0.25649 17.9464 0.442301 17.9226 0.617734 17.8677C1.81664 17.4904 3.01714 17.1185 4.20815 16.718C4.60778 16.5834 4.94555 16.6043 5.33615 16.7789C10.5583 19.1081 16.384 16.2857 17.6775 10.8128C18.913 5.58765 15.1665 0.495674 9.77595 0.0701992ZM13.2347 14.8318C10.7552 16.5263 8.1151 16.5913 5.45989 15.1781C5.13566 15.0055 4.86247 14.9729 4.52153 15.0928C3.8259 15.3371 3.11738 15.5446 2.41452 15.7671C2.37365 15.7302 2.33256 15.6931 2.29169 15.6562C2.46464 15.1328 2.59696 14.5912 2.82116 14.0906C3.10655 13.4536 3.00111 12.9517 2.66108 12.3329C0.217658 7.8858 2.87241 2.58705 7.68837 1.64003C11.7617 0.8388 15.773 3.6225 16.335 7.7103C16.7407 10.6621 15.7229 13.1315 13.2347 14.8318Z" fill="white"/>
<path fill-rule="evenodd" clip-rule="evenodd" d="M13.1407 10.7851C12.9422 10.6755 12.7433 10.5664 12.5428 10.4602C11.4891 9.90194 11.4792 9.89294 10.6535 10.7637C10.362 11.0713 10.0913 11.096 9.72979 10.9104C8.72347 10.3942 7.91201 9.67154 7.29427 8.72766C6.88335 8.09968 6.86889 8.08191 7.35748 7.52819C7.69051 7.15086 7.81131 6.77331 7.5792 6.29271C7.39609 5.91336 7.27417 5.50521 7.11387 5.11461C6.87386 4.52916 6.2595 4.32554 5.71333 4.66731C5.52639 4.78454 5.3566 4.95171 5.22361 5.12923C4.53745 6.04633 4.51059 7.04421 4.99987 8.03354C6.07663 10.2104 7.58756 11.9629 9.95829 12.8132C10.4521 12.9903 10.9589 13.1309 11.2159 13.2117C12.506 13.204 13.3863 12.6143 13.5835 11.8039C13.7284 11.2096 13.672 11.0789 13.1407 10.7851Z" fill="white"/>
</svg>