<svg width="64" height="64" viewBox="0 0 64 64" fill="none" xmlns="http://www.w3.org/2000/svg">
<path d="M31.9999 63.9767C49.6602 63.9767 63.9767 49.6602 63.9767 31.9999C63.9767 14.3397 49.6602 0.0231934 31.9999 0.0231934C14.3397 0.0231934 0.0231934 14.3397 0.0231934 31.9999C0.0231934 49.6602 14.3397 63.9767 31.9999 63.9767Z" fill="#CAFDFF"/>
<path d="M54.2254 28.6415L46.9022 20.355C46.7428 20.1746 46.5136 20.0713 46.2729 20.0713H20.1631C19.9224 20.0713 19.6932 20.1746 19.5338 20.355L12.2105 28.6415C11.9918 28.889 11.9385 29.2416 12.0742 29.5428C12.1254 29.6564 12.1999 29.7545 12.2906 29.8328C12.2924 29.8347 12.2937 29.8369 12.2955 29.8389L32.5897 52.7176C32.7491 52.8973 32.9778 53.0001 33.218 53.0001C33.4582 53.0001 33.6869 52.8972 33.8463 52.7176L54.1404 29.8389C54.1422 29.837 54.1436 29.8348 54.1453 29.8328C54.2359 29.7545 54.3105 29.6563 54.3617 29.5428C54.4974 29.2416 54.4441 28.889 54.2254 28.6415ZM44.7837 21.7509L41.0514 27.7679L35.07 21.7509H44.7837ZM39.2694 28.3578H27.1666L33.218 22.2703L39.2694 28.3578ZM31.3659 21.751L25.3846 27.768L21.6522 21.751H31.3659ZM20.0327 22.3268L23.7738 28.3578H14.7028L20.0327 22.3268ZM14.7169 30.0375H24.6421L31.4982 48.9559L14.7169 30.0375ZM34.9689 48.9208L39.7592 35.956C39.9199 35.5208 39.6975 35.0378 39.2625 34.8771C38.8272 34.7162 38.3443 34.9386 38.1836 35.3738L33.2256 48.7926L26.4287 30.0375H51.719L34.9689 48.9208ZM42.6621 28.3578L46.4032 22.3268L51.7331 28.3578H42.6621Z" fill="#552CE8"/>
<path d="M33.2178 10C32.754 10 32.378 10.376 32.378 10.8398V15.1661C32.378 15.63 32.754 16.006 33.2178 16.006C33.6816 16.006 34.0576 15.63 34.0576 15.1661V10.8398C34.0576 10.376 33.6816 10 33.2178 10Z" fill="#552CE8"/>
<path d="M40.8658 13.3195C40.5379 12.9915 40.0062 12.9915 39.678 13.3195L36.6188 16.3786C36.2908 16.7066 36.2908 17.2384 36.6188 17.5663C36.7829 17.7303 36.9978 17.8123 37.2127 17.8123C37.4277 17.8123 37.6426 17.7303 37.8066 17.5663L40.8658 14.5072C41.1938 14.1792 41.1938 13.6474 40.8658 13.3195Z" fill="#552CE8"/>
<path d="M29.6535 16.3786L26.5943 13.3195C26.2665 12.9915 25.7348 12.9915 25.4065 13.3195C25.0786 13.6474 25.0786 14.1792 25.4065 14.5072L28.4658 17.5663C28.6298 17.7303 28.8447 17.8123 29.0596 17.8123C29.2745 17.8123 29.4894 17.7303 29.6535 17.5663C29.9814 17.2384 29.9814 16.7066 29.6535 16.3786Z" fill="#552CE8"/>
<path d="M40.0567 33.3778C40.5205 33.3778 40.8965 33.0018 40.8965 32.538C40.8965 32.0742 40.5205 31.6981 40.0567 31.6981C39.5928 31.6981 39.2168 32.0742 39.2168 32.538C39.2168 33.0018 39.5928 33.3778 40.0567 33.3778Z" fill="#552CE8"/>
</svg>