<svg width="46" height="46" viewBox="0 0 46 46" fill="none" xmlns="http://www.w3.org/2000/svg">
<path d="M20.7 29.9H25.3V34.5H20.7V29.9ZM20.7 11.5H25.3V25.3H20.7V11.5ZM23 0C10.281 0 0 10.35 0 23C0 29.1 2.42321 34.9501 6.73654 39.2635C8.87229 41.3992 11.4078 43.0934 14.1983 44.2492C16.9888 45.4051 19.9796 46 23 46C29.1 46 34.9501 43.5768 39.2635 39.2635C43.5768 34.9501 46 29.1 46 23C46 19.9796 45.4051 16.9888 44.2492 14.1983C43.0934 11.4078 41.3992 8.87229 39.2635 6.73654C37.1277 4.6008 34.5922 2.90663 31.8017 1.75077C29.0112 0.594913 26.0204 0 23 0ZM23 41.4C18.12 41.4 13.4399 39.4614 9.98923 36.0108C6.53857 32.5601 4.6 27.88 4.6 23C4.6 18.12 6.53857 13.4399 9.98923 9.98923C13.4399 6.53857 18.12 4.6 23 4.6C27.88 4.6 32.5601 6.53857 36.0108 9.98923C39.4614 13.4399 41.4 18.12 41.4 23C41.4 27.88 39.4614 32.5601 36.0108 36.0108C32.5601 39.4614 27.88 41.4 23 41.4Z" fill="#EB5757"/>
</svg>