<?xml version="1.0" encoding="utf-8"?>
<!-- Generator: Adobe Illustrator 16.0.0, SVG Export Plug-In . SVG Version: 6.00 Build 0)  -->
<!DOCTYPE svg PUBLIC "-//W3C//DTD SVG 1.1//EN" "http://www.w3.org/Graphics/SVG/1.1/DTD/svg11.dtd">
<svg version="1.1" id="Layer_1" xmlns="http://www.w3.org/2000/svg" xmlns:xlink="http://www.w3.org/1999/xlink" x="0px" y="0px"
	 width="115.73px" height="119.953px" viewBox="0 0 115.73 119.953" enable-background="new 0 0 115.73 119.953"
	 xml:space="preserve">
<g>
	<g>
		<circle fill="#481CC3" cx="57.655" cy="41.258" r="40.761"/>
		<linearGradient id="SVGID_1_" gradientUnits="userSpaceOnUse" x1="34.5649" y1="7.0254" x2="80.7442" y2="75.489">
			<stop  offset="0" style="stop-color:#FFFFFF"/>
			<stop  offset="0.3751" style="stop-color:#FFFFFF;stop-opacity:0"/>
		</linearGradient>
		<path fill="url(#SVGID_1_)" d="M57.655,0.497c22.512,0,40.761,18.249,40.761,40.761S80.167,82.019,57.655,82.019
			S16.895,63.77,16.895,41.258S35.144,0.497,57.655,0.497 M57.655-0.047c-22.775,0-41.305,18.529-41.305,41.305
			S34.88,82.562,57.655,82.562c22.774,0,41.304-18.528,41.304-41.304S80.43-0.047,57.655-0.047L57.655-0.047z"/>
	</g>
	<path fill="#FAD7BD" d="M98.409,41c-0.048-8-2.187-14.766-5.88-20.854c-0.1-0.016-0.306-0.025-0.406-0.025
		c-1.548,0-3.199,1.9-4.199,5.083v-0.001c0,0.012,0.097,0.023,0.093,0.035c-0.114,0.323-0.173,0.66-0.28,1.009
		c-1.773,5.465-4.037,13.598-7.307,13.598c-3.57,0-5.023-7.126-7.711-11.546c-1.029-1.75-2.237-2.763-3.538-2.763
		c-1.752,0-3.343,1.832-4.536,4.829c-1.479,2.957-3.37,6.176-5.691,6.176C54.84,36.541,51,23.377,49,17.363v0.002
		c-1-4.828-3.261-7.727-5.395-7.727c-2.425,0-4.509,3.744-6.11,9.81c-2.049,6.195-4.279,17.679-7.736,17.679
		c-1.533,0-2.714-2.59-3.772-5.293c-1.239-3.857-3.054-6.298-5.095-6.298c-0.316,0-0.622,0.06-0.926,0.173
		C18.017,30.426,16.935,36,16.9,41H98.409z"/>
	<g>
		<path fill="#E2B08F" d="M58.224,45.524c-0.23-0.009-0.479-0.009-0.763-0.009C57.805,45.683,58.043,45.643,58.224,45.524z"/>
		<path fill="#E2B08F" d="M98.409,41H16.9c0,0-0.006,0.172-0.006,0.258c0,7.397,1.98,14.326,5.424,20.307
			c0.457-0.26,0.897-0.643,1.315-1.139c0.069-0.08,0.139-0.165,0.199-0.253c0.156-0.527-0.402-1.071-0.96-1.071
			c0.446-0.869,1.25-0.695,1.769-1.024c0.13-0.083,0.242-0.197,0.36-0.372c1.219-0.234,1.777-0.777,2.334-1.32
			c0,0-0.557,0-0.388-0.271c0.069-0.039,0.14-0.08,0.205-0.125s0.128-0.094,0.183-0.148c0-0.543-1.115-1.087-1.547-1.695
			c-0.092-0.07-0.176-0.2-0.25-0.269C25.244,53.605,25.104,53,25.662,53c0.559,0,1.117,0,1.674,0c0.559-1,0-1.568-1.115-2.111
			c0.418,0,0.836,0.03,1.254-0.199c0.141-0.076,0.279-0.163,0.191-0.301c-0.088,0-0.177,0.006-0.269,0.002
			c-0.274-0.013-0.569-0.041-0.795-0.12c-0.075-0.027-0.14-0.058-0.186-0.095c0.232-0.552,1.698-0.299,2.364-0.773
			c0.072-0.053,0.137-0.115,0.188-0.188c0.04-0.439,0.04-0.981-0.098-1.715c0.029-0.066,0.059-0.131,0.086-0.194
			c0.674-1.472,1.386-2.49,2.112-2.49c0.55,0,1.039,0.352,1.479,0.965c0.055,0.078,0.108,0.158,0.161,0.243
			c0.054,0.085,0.105,0.173,0.155,0.266c0.028,0.5,0.989,0.709,1.445,1.158c0.065,0.064,0.12,0.134,0.16,0.209
			c0.117,0.577,0.676,0.577,1.232,0.577c0.559,1.087-1.115,1.087-1.416,1.963c-0.044,0.081-0.063,0.153-0.079,0.218
			c-0.247,0.95-0.771,0.027-1.293,0.537c1.116,0.543,1.673,1.63,2.788,1.63c0,1.087-1.672,0.544-1.672,1.631
			c0.465,0,0.93,0.377,1.12,0.675c0.038,0.061,0.065,0.117,0.08,0.167c0.051,0.039,0.1,0.077,0.146,0.116
			c0.051,0.038,0.099,0.076,0.148,0.115c0.177,0.557,0.735,0.557,1.293,0.557c0,0.136,0,0.306-0.016,0.487
			c-0.017,0.181-0.054,0.374-0.124,0.556c-0.069,0.183-0.174,0.354-0.332,0.49c-0.156,0.138-0.366,0.242-0.645,0.29
			c0.008,0.099,0.023,0.197,0.04,0.296c0.046,0.295,0.092,0.588,0.138,0.878c0.055,0.429,0.111,0.853,0.171,1.271
			c0.012,0.084,0.023,0.166,0.028,0.253c-0.377,1.458,2.972,0.914,1.854,1.458c-0.557,0.544-1.115,1.631-2.021,1.577
			c-0.046,0.063-0.083,0.129-0.112,0.193c-0.062,0.132-0.098,0.268-0.098,0.403c1.116,0,0.559,1.087,1.893,1.096
			c0.098,0.043,0.188,0.091,0.271,0.144c0.409,0.256,0.627,0.595,0.627,0.935c0,0.362-0.248,0.483-0.59,0.712
			c-0.086,0.058-0.178,0.123-0.272,0.199c-0.253,0.72-0.812,0.72-1.369,0.72c0,1.087,1.673,1.087,1.836,2.002
			c0.078,0.061,0.156,0.122,0.229,0.187c0.074,0.064,0.144,0.131,0.212,0.199c0.044,0.046,0.088,0.093,0.14,0.144
			c2.047,0.729,0.932,1.272,0.374,2.359c1.115-1.087,2.788-0.543,3.904-1.087c-0.558,1.087-1.116,1.087-2.224,1.108
			c-0.1,0.014-0.188,0.022-0.272,0.035c-0.341,0.052-0.67,0.197-0.92,0.729c-0.002,0.048,0.005,0.101,0.021,0.159
			c0.017,0.059,0.042,0.123,0.079,0.194c0.013,0.062,0.042,0.124,0.073,0.186c1.235,2.508,2.643,3.93,4.137,3.93
			c1.449,0,2.817-1.339,4.026-3.712c0.031-0.062,0.063-0.126,0.098-0.19c0.093-0.135,0.218-0.247,0.354-0.348
			c0.067-0.052,0.139-0.099,0.211-0.145c0.954-0.368,1.192-0.579,1.178-0.879c-0.003-0.05-0.012-0.104-0.02-0.159
			c-0.047-0.908,0.511-1.451-0.155-2.506c0.012-0.056,0.03-0.112,0.047-0.169c0.036-0.114,0.07-0.229,0.104-0.346
			c0.021-0.071,0.042-0.142,0.063-0.214c-0.106-0.935,1.009-0.935,1.567-0.935c-0.112-0.109-0.245-0.196-0.394-0.27
			c-0.073-0.037-0.149-0.071-0.229-0.103c-0.131,0.047-0.229,0.062-0.301,0.053c-0.069-0.011-0.114-0.045-0.14-0.098
			c-0.61-1.757,2.736-0.67,2.142-2.844c0.004-0.07,0.003-0.143-0.016-0.221c-0.021-0.227-0.184-0.503-0.562-0.857
			c-0.044-0.069-0.098-0.136-0.155-0.2c-0.351-0.385-0.913-0.689-0.923-1.026c-0.022-0.057-0.044-0.115-0.065-0.174
			c-0.049-0.137-0.101-0.277-0.152-0.42c-0.321,0.182-0.879-0.362-0.321-0.906c0.558,0,1.116-1.087,2.231-0.543
			c0-0.544,0-0.544-0.342-0.675c-0.007-0.093,0.014-0.189,0.037-0.288c0.023-0.098,0.049-0.195,0.072-0.294
			c0.017-0.064,0.033-0.131,0.049-0.196c-0.374-0.178-0.932-1.265-2.048-0.721c0.056-0.109,0.112-0.207,0.169-0.295
			c0.056-0.089,0.394-0.167,0.452-0.237C51.604,56.928,53,56.385,53,55.501c0-0.067,0-0.136,0-0.203
			c0-0.544,1.394-1.087,1.952-1.631c-0.463,0.451-1.066-0.218-1.529-0.461c0.607,0.017-0.255-1.646,0.573-1.102
			c0.067-0.067,0.101-0.137,0.169-0.208c0.066-0.071,0.116-0.144,0.181-0.219c0.019-0.062,0.03-0.125,0.05-0.188
			c0.062-0.192,0.119-0.383,0.18-0.57c0.031-0.094,0.06-0.187,0.1-0.271c0.139-0.021,0.261-0.047,0.371-0.078
			c0.909-0.115,1.455-0.416,2.084-0.586c0.09-0.023,0.181-0.046,0.274-0.064c0.056-0.057,0.612-0.057,0.612-0.057
			c-0.557-0.544-0.557-0.544-1.137-1.034c-0.087-0.049-0.175-0.092-0.263-0.134c-0.354-0.17-0.705-0.336-0.993-0.613
			c0.032-0.077,0.065-0.154,0.098-0.229c0.025-0.059,0.052-0.146,0.077-0.203C55.229,46.572,57.461,46,56.902,46
			c0,0-0.559,0-1.115,0c0.913,0,1.826-0.5,2.74-0.812c-0.086,0.113-0.182,0.212-0.304,0.292C58.896,45.506,59.418,46,60.249,46
			h-0.557c0.403,0,0.709,0.553,0.927,0.822c0.054,0.068,0.103,0.15,0.145,0.22c0.044,1.176-1.071,1.726,0.141,2.869
			c0.052,0.054,0.117,0.104,0.197,0.133c0.08,0.031,0.174,0.048,0.275,0.041s0.21-0.038,0.32-0.099
			c0.227,0.419,0.227,0.419,0.736,0.538c0.048,0.053,0.098,0.112,0.146,0.175c0.022,0.064,0.045,0.128,0.067,0.192
			c0.023,0.064,0.05,0.127,0.091,0.182c0.301-0.123,0.859,0.964,1.416,0.42c0.559,1.631-1.674,1.087-1.786,1.941
			c-0.011,0.065,0.021,0.142,0.112,0.232c1.117,0,2.789,0,3.348,1.631c-0.279-0.272-0.559-0.136-0.83,0.079
			c-0.135,0.107-0.27,0.236-0.417,0.341c-0.983,0.123-0.983,1.21-0.976,1.562c-0.094,0.032-0.194,0.056-0.297,0.074
			c-0.104,0.02-0.211,0.033-0.318,0.045c-0.108,0.013-0.218,0.022-0.326,0.034c0.934,1.126-2.415-1.592-0.789,0.585
			c0.09,0.001,0.181,0.003,0.274,0.006c1.029,0.031,2.275,0.173,3.269,0.841c0.087,0.123,0.156,0.244,0.224,0.362
			c0.069,0.117,0.14,0.232,0.209,0.344c0.035,0.055,0.07,0.11,0.107,0.164c0.986,0.454,0.986,2.085,2.472,2.161
			c0.084,0.026,0.17,0.049,0.255,0.067c0.171,0.035,0.345,0.053,0.52,0.053c1.206,0,2.337-0.868,3.315-2.389
			c0.14-0.216,0.275-0.446,0.409-0.689c-0.406-0.923-0.964-2.01,0.519-2.451c0.023-0.132,0.015-0.261,0.019-0.377
			c0.058-1.279,2.373-0.936,2.042-2.297c-0.015-0.052-0.033-0.105-0.059-0.159c0.351-0.895,2.346-1.043,1.734-1.86
			c-0.061-0.082-0.148-0.17-0.297-0.271c-0.459-0.028-1.017-1.115-1.575-1.115c0.559-1.087,1.674-0.543,2.379-1.259
			c0.075-0.091,0.146-0.18,0.217-0.265c0.781-0.943,1.658-1.532,2.686-1.532c0.518,0,1.001,0.198,1.453,0.554
			c0.075,0.06,0.149,0.123,0.23,0.19c0.846-0.405,1.403,0.681,1.961,0.681c0.558,0.544-1.674,0.544-1.066,1.557
			c0.064,0.052,0.146,0.095,0.236,0.13c0.634,0.247,1.67,0.16,1.922,0.686c0.072,0.15,0.079,0.351-0.005,0.623
			c1.145,0.81,1.145,1.896,0.192,2.688c0.046,0.073,0.1,0.142,0.16,0.206c0.665,0.711,2.098,0.993,0.747,2.316
			c0,0.064,0.016,0.129,0.037,0.192c0.03,0.096,0.061,0.191,0.092,0.287c0.038,0.096,0.076,0.19,0.121,0.286
			c0.073,0.014,0.141,0.029,0.205,0.047c0.063,0.018,0.123,0.036,0.177,0.058c1.972,0.505,1.397,1.205,0.979,2.104
			c-0.041,0.091-0.081,0.182-0.116,0.276c-0.134,0.418,0.144,0.756,0.432,1.075c0.145,0.16,0.292,0.316,0.407,0.474
			c-1.174,1.126,3.848,0.039,0.677,1.938c-0.182,0.155-0.286,0.297-0.475,0.447c0.35,0.717,0.72,1.319,1.105,1.801
			c5.235-6.855,8.351-15.416,8.351-24.709C98.416,41.172,98.41,41,98.409,41z"/>
	</g>
	<circle fill="none" cx="57.73" cy="41.258" r="40.761"/>
	<g>
		<g>
			<path fill="#FFFFFF" d="M7.887,93.801c-1.851,0.015-2.775,0.022-4.626,0.039c1.901,8.405,1.697,17.178-0.545,25.495
				c-1.036-0.011-1.554-0.018-2.591-0.029C2.291,109.377,2.251,101.127,0,91.217c3.949-0.048,5.924-0.068,9.874-0.104
				c1.843,9.843,1.877,18.438,0.104,28.296c-1.036-0.01-1.554-0.015-2.59-0.023C9.443,111.011,9.629,102.247,7.887,93.801z"/>
			<path fill="#FFFFFF" d="M23.643,115.676c-0.258,2.115-2.203,3.816-4.244,3.804c-1.036-0.006-1.553-0.01-2.59-0.018
				c-2.002-0.014-3.311-1.729-2.98-3.835c1.08-6.861,1.055-13.882-0.071-20.736c-0.346-2.104,0.955-3.821,2.962-3.835
				c1.038-0.008,1.558-0.011,2.596-0.017c2.046-0.015,4.003,1.687,4.272,3.802C24.466,101.748,24.486,108.764,23.643,115.676z
				 M19.78,93.719c-1.026,0.006-1.54,0.009-2.565,0.015c-0.583,0.004-0.998,0.534-0.904,1.143c1.063,6.869,1.086,13.89,0.068,20.766
				c-0.096,0.649,0.326,1.139,0.908,1.143c1.024,0.005,1.537,0.008,2.562,0.014c0.582,0.003,1.159-0.482,1.244-1.133
				c0.903-6.9,0.884-13.918-0.06-20.813C20.949,94.241,20.363,93.716,19.78,93.719z"/>
			<path fill="#FFFFFF" d="M39.455,90.968c2.046-0.001,3.83,1.714,3.945,3.837c0.119,2.172,0.163,3.259,0.221,5.431
				c0.037,1.388-2.1,3.92-2.1,3.92c0.002,0.12,2.172,2.165,2.156,3.553c-0.035,3.201-0.086,4.8-0.254,8.002
				c-0.11,2.122-1.887,3.838-3.928,3.837c-2.48-0.001-3.722-0.002-6.202-0.009c0.89-9.651,0.872-18.912-0.055-28.562
				C35.726,90.971,36.969,90.969,39.455,90.968z M41.1,100.112c-0.067-2.123-0.117-3.184-0.253-5.308
				c-0.039-0.612-0.543-1.145-1.165-1.144c-1.431,0-2.146,0.002-3.578,0.004c0.33,3.689,0.431,5.535,0.502,9.225
				c1.049,0,1.572,0,2.621,0C40.709,102.89,41.149,101.665,41.1,100.112z M36.145,116.851c1.428,0.001,2.141,0.001,3.569,0.002
				c0.621,0,1.12-0.49,1.159-1.143c0.203-3.315,0.264-4.973,0.301-8.287c0.021-1.838-0.787-2.043-2.191-2.043
				c-0.941,0-1.412,0-2.353,0C36.631,109.968,36.539,112.262,36.145,116.851z"/>
			<path fill="#FFFFFF" d="M56.33,115.688c-0.016,2.117-1.683,3.834-3.725,3.84c-1.036,0.004-1.553,0.007-2.59,0.01
				c-2.002,0.004-3.589-1.708-3.501-3.83c0.289-6.962,0.282-13.938-0.019-20.899c-0.093-2.123,1.495-3.835,3.502-3.829
				c1.039,0.002,1.557,0.004,2.595,0.007c2.046,0.007,3.719,1.726,3.735,3.844C56.378,101.782,56.381,108.734,56.33,115.688z
				 M52.663,93.678c-1.026-0.004-1.539-0.006-2.565-0.008c-0.583-0.001-1.068,0.528-1.048,1.141
				c0.236,6.962,0.243,13.932,0.015,20.894c-0.021,0.653,0.466,1.142,1.049,1.141c1.023-0.003,1.536-0.004,2.561-0.006
				c0.582-0.002,1.094-0.492,1.104-1.145c0.116-6.956,0.11-13.917-0.006-20.874C53.762,94.209,53.247,93.679,52.663,93.678z"/>
			<path fill="#FFFFFF" d="M67.396,93.743c-1.617-0.011-2.427-0.015-4.044-0.023c-0.11,5.705-0.134,8.555-0.109,14.26
				c0.021,4.957,0.168,11.949-4.593,11.974c-0.001-1.075,0-1.612-0.001-2.687c2.138-0.01,2.093-6.232,2.087-8.266
				c-0.002-5.994,0.024-11.985,0.077-17.979c3.714,0.021,5.571,0.034,9.285,0.066c-0.417,9.476-0.427,18.863-0.023,28.34
				c-1.036,0.009-1.555,0.014-2.591,0.021C67.118,110.888,67.09,102.309,67.396,93.743z"/>
			<path fill="#FFFFFF" d="M83.225,119.297c-1.036,0.014-1.554,0.02-2.59,0.031c-0.585-5.579-0.736-8.367-0.729-13.946
				c-1.869,0-2.803,0-4.671,0c-0.006,5.598,0.114,8.396,0.571,13.996c-1.036,0.01-1.555,0.015-2.592,0.024
				c-0.512-9.477-0.5-18.812,0.031-28.286c1.038,0.01,1.558,0.015,2.597,0.025c-0.396,4.712-0.515,7.067-0.588,11.778
				c1.871,0.004,2.807,0.005,4.678,0.01c0.092-4.695,0.242-7.041,0.749-11.736c1.038,0.012,1.558,0.018,2.597,0.03
				C82.377,100.708,82.359,109.81,83.225,119.297z"/>
			<path fill="#FFFFFF" d="M85.579,119.269c0.29-9.625,1.458-18.618,3.794-27.965c1.873,0.026,2.81,0.041,4.683,0.069
				c-0.06,9.678,1.055,18.396,3.655,27.723c-1.037,0.016-1.557,0.024-2.593,0.04c-1.044-3.259-1.468-4.89-2.151-8.157
				c-1.786,0.011-2.681,0.017-4.467,0.026c-0.248,3.289-0.301,4.934-0.291,8.229C87.156,119.248,86.631,119.255,85.579,119.269z
				 M91.234,93.923c-1.542,5.848-2.031,8.778-2.58,14.648c1.567-0.005,2.35-0.009,3.917-0.014
				c-0.969-5.842-1.165-8.769-1.145-14.633C91.35,93.924,91.312,93.924,91.234,93.923z"/>
			<path fill="#FFFFFF" d="M111.271,107.282c0.161-4.383,0.478-6.572,1.617-10.943c-0.104-0.018-0.157-0.024-0.263-0.042
				c-2.402,7.725-3.414,14.507-3.375,22.594c-1.1,0.021-1.647,0.033-2.747,0.054c-2.797-7.665-4.351-14.667-5.028-22.795
				c-0.11,0.014-0.166,0.021-0.276,0.035c-0.364,4.454-0.365,6.678,0.038,11.123c0.137,4.683,0.42,7.023,1.419,11.705
				c-1.037,0.019-1.555,0.026-2.592,0.044c-1.481-9.523-1.454-18.069,0.09-27.584c1.479,0.025,2.219,0.038,3.698,0.066
				c-0.262,7.268,0.68,14.564,2.921,21.489c0.358-7.594,2.432-14.329,5.222-21.331c1.494,0.03,2.242,0.046,3.736,0.079
				c-2.571,8.801-2.615,18.163-0.121,26.986c-1.036,0.022-1.555,0.032-2.592,0.054C111.787,114.202,111.438,111.896,111.271,107.282
				z"/>
		</g>
	</g>
</g>
</svg>
