<svg width="150" height="150" viewBox="0 0 150 150" fill="none" xmlns="http://www.w3.org/2000/svg">
<path d="M98.439 12.2486L100.552 7.17302C100.879 6.38867 101.324 5.86493 101.889 5.60266C102.454 5.34038 103.111 5.36513 103.863 5.67772C104.614 5.9903 105.107 6.44474 105.342 7.04022C105.578 7.6357 105.532 8.32604 105.206 9.11039L104.809 10.063L103.28 9.42627L103.715 8.378C103.981 7.73881 103.85 7.3091 103.322 7.08889C102.789 6.86703 102.389 7.07569 102.122 7.7157L99.931 12.9818C99.6671 13.6169 99.8015 14.045 100.333 14.2668C100.863 14.487 101.259 14.2792 101.523 13.6441L102.103 12.2494L103.633 12.8862L103.093 14.186C102.767 14.9712 102.309 15.4891 101.72 15.7423C101.132 15.9947 100.462 15.965 99.7108 15.6524C98.9594 15.3398 98.4786 14.8912 98.2666 14.3056C98.0546 13.7183 98.1116 13.0338 98.439 12.2486Z" fill="#481CC3"/>
<path d="M104.61 17.701L109.971 8.59399L111.955 9.76268L109.195 16.8722L113.994 10.9627L116.054 12.1759L110.693 21.283L109.265 20.4417L113.107 13.9129L108.277 19.8603L106.921 19.0619L109.636 12.0093L105.854 18.4343L104.61 17.701Z" fill="#481CC3"/>
<path d="M114.538 20.9399L117.951 16.6297C118.476 15.9674 119.052 15.5905 119.68 15.4981C120.309 15.4066 120.94 15.6128 121.578 16.1167C122.214 16.6206 122.558 17.1881 122.611 17.819C122.663 18.45 122.427 19.0966 121.904 19.7589L118.49 24.0691C117.965 24.7314 117.39 25.1091 116.764 25.2031C116.138 25.2963 115.507 25.091 114.87 24.5862C114.233 24.0823 113.888 23.514 113.833 22.8814C113.778 22.2488 114.014 21.6022 114.538 20.9399ZM115.773 22.0501C115.341 22.5969 115.35 23.0497 115.803 23.4076C116.251 23.7631 116.692 23.6666 117.126 23.1198L120.667 18.6479C121.097 18.1052 121.088 17.6557 120.639 17.3002C120.186 16.9415 119.745 17.0338 119.315 17.5774L115.773 22.0501Z" fill="#481CC3"/>
<path d="M125.198 21.3243L126.267 20.2579L129.894 23.8959L128.824 24.9624L127.596 23.7302L121.183 30.1254L120.012 28.9509L126.426 22.5557L125.198 21.3243Z" fill="#481CC3"/>
<path d="M124.145 33.3379L132.436 26.7835L133.951 28.6994C134.459 29.3419 134.666 29.9646 134.573 30.5675C134.48 31.1704 134.099 31.7354 133.432 32.2624L132.357 33.1128C131.689 33.6398 131.053 33.879 130.448 33.8295C129.843 33.78 129.286 33.4344 128.779 32.7928L128.291 32.175L125.175 34.6386L124.145 33.3379ZM129.469 31.2422L129.958 31.8608C130.129 32.076 130.315 32.189 130.517 32.1989C130.719 32.2088 130.963 32.1008 131.248 31.8748L132.491 30.8925C132.776 30.6673 132.936 30.4554 132.972 30.2582C133.006 30.0611 132.939 29.8549 132.769 29.6389L132.279 29.0203L129.469 31.2422Z" fill="#481CC3"/>
<path d="M128.709 39.376L137.74 33.8889L138.509 35.1549L132.79 38.6296L135.094 37.9368L139.527 36.83L140.561 38.5306L131.529 44.0186L130.667 42.6017L137.016 38.7442L134.456 39.5146L129.593 40.8317L128.709 39.376Z" fill="#481CC3"/>
<path d="M134.635 50.5424L144.561 46.9168L145.13 48.4739L140.804 50.055L145.877 50.5168L146.445 52.0748L141.229 51.5239L136.518 55.7005L135.934 54.1021L139.332 51.142L138.249 50.9886L135.204 52.1012L134.635 50.5424Z" fill="#481CC3"/>
<path d="M137.13 57.7805L138.605 57.4523C138.65 57.651 138.692 57.802 138.736 57.9067C138.78 58.0106 138.848 58.0972 138.941 58.1657C139.034 58.2341 139.154 58.2696 139.301 58.2712C139.448 58.2729 139.642 58.2531 139.883 58.2086L147.722 56.6522L148.755 61.2915L138.438 63.5877L138.078 61.9695L146.919 60.0016L146.607 58.5987L140.33 59.807C139.384 59.9876 138.668 59.9389 138.184 59.6618C137.699 59.3847 137.366 58.8403 137.186 58.0296L137.13 57.7805Z" fill="#481CC3"/>
<path d="M138.911 66.6995L149.441 65.7774L149.569 67.2529L142.903 67.8369L145.275 68.2352L149.74 69.2051L149.914 71.187L139.385 72.11L139.24 70.4579L146.641 69.8097L144.004 69.3668L139.06 68.3952L138.911 66.6995Z" fill="#481CC3"/>
<path d="M139.44 75.0033L150 75.4255L149.792 80.6248L139.232 80.2026L139.298 78.5448L148.349 78.9069L148.425 77.0223L139.374 76.6602L139.44 75.0033Z" fill="#481CC3"/>
<path d="M142.599 88.5426L144.073 88.87L143.42 91.8128L141.945 91.4846L142.599 88.5426Z" fill="#481CC3"/>
<path d="M137.76 98.415L142.837 100.526C143.621 100.852 144.146 101.298 144.408 101.863C144.67 102.427 144.646 103.085 144.334 103.836C144.021 104.588 143.568 105.082 142.972 105.317C142.377 105.553 141.686 105.506 140.901 105.181L139.949 104.785L140.585 103.256L141.634 103.69C142.273 103.956 142.703 103.825 142.923 103.295C143.144 102.762 142.935 102.364 142.295 102.097L137.028 99.9078C136.392 99.6439 135.964 99.7792 135.742 100.312C135.522 100.841 135.73 101.237 136.366 101.5L137.76 102.08L137.124 103.61L135.825 103.071C135.04 102.744 134.521 102.286 134.268 101.698C134.014 101.11 134.044 100.441 134.357 99.6893C134.668 98.9371 135.118 98.4554 135.703 98.2443C136.29 98.0315 136.975 98.0901 137.76 98.415Z" fill="#481CC3"/>
<path d="M132.309 104.588L141.418 109.945L140.25 111.93L133.14 109.172L139.051 113.969L137.839 116.03L128.729 110.673L129.571 109.243L136.101 113.084L130.151 108.255L130.949 106.899L138.003 109.611L131.577 105.832L132.309 104.588Z" fill="#481CC3"/>
<path d="M129.061 114.537L133.371 117.951C134.033 118.476 134.411 119.051 134.503 119.679C134.593 120.308 134.387 120.94 133.884 121.577C133.38 122.213 132.812 122.558 132.182 122.611C131.551 122.662 130.904 122.427 130.241 121.903L125.931 118.489C125.269 117.965 124.89 117.389 124.798 116.764C124.705 116.137 124.91 115.506 125.414 114.869C125.918 114.233 126.486 113.887 127.118 113.832C127.75 113.776 128.398 114.011 129.061 114.537ZM127.95 115.772C127.403 115.339 126.95 115.348 126.592 115.801C126.237 116.251 126.333 116.692 126.88 117.125L131.352 120.666C131.895 121.095 132.344 121.086 132.7 120.638C133.059 120.186 132.965 119.744 132.423 119.315L127.95 115.772Z" fill="#481CC3"/>
<path d="M128.675 125.198L129.742 126.267L126.104 129.895L125.038 128.825L126.269 127.596L119.874 121.184L121.048 120.012L127.443 126.427L128.675 125.198Z" fill="#481CC3"/>
<path d="M116.661 124.145L123.217 132.435L121.3 133.951C120.658 134.458 120.035 134.666 119.433 134.573C118.83 134.48 118.265 134.099 117.738 133.432L116.887 132.356C116.36 131.689 116.121 131.054 116.171 130.449C116.22 129.842 116.566 129.286 117.207 128.779L117.824 128.291L115.361 125.175L116.661 124.145ZM118.757 129.469L118.138 129.959C117.922 130.128 117.81 130.315 117.8 130.517C117.79 130.719 117.899 130.963 118.125 131.248L119.108 132.49C119.333 132.776 119.544 132.936 119.742 132.972C119.938 133.007 120.144 132.94 120.36 132.769L120.979 132.279L118.757 129.469Z" fill="#481CC3"/>
<path d="M110.623 128.708L116.11 137.74L114.844 138.508L111.37 132.79L112.063 135.095L113.169 139.526L111.469 140.561L105.981 131.529L107.398 130.668L111.256 137.015L110.486 134.455L109.168 129.592L110.623 128.708Z" fill="#481CC3"/>
<path d="M99.456 134.634L103.082 144.562L101.524 145.13L99.9434 140.803L99.4815 145.875L97.9235 146.444L98.4745 141.229L94.2979 136.518L95.8971 135.933L98.8563 139.332L99.0106 138.248L97.8971 135.204L99.456 134.634Z" fill="#481CC3"/>
<path d="M92.2186 137.13L92.5469 138.604C92.349 138.648 92.1964 138.693 92.0925 138.736C91.9877 138.778 91.902 138.848 91.8335 138.941C91.7642 139.034 91.7296 139.154 91.7271 139.3C91.7246 139.447 91.7452 139.64 91.7898 139.883L93.3461 147.72L88.706 148.755L86.4098 138.439L88.028 138.077L89.9967 146.918L91.3997 146.607L90.1906 140.33C90.0099 139.383 90.0586 138.667 90.3357 138.184C90.6128 137.699 91.1572 137.366 91.9679 137.185L92.2186 137.13Z" fill="#481CC3"/>
<path d="M83.2996 138.913L84.2217 149.44L82.7462 149.569L82.1622 142.903L81.7639 145.276L80.7931 149.741L78.8112 149.913L77.8891 139.386L79.5411 139.241L80.1894 146.642L80.6323 144.005L81.6039 139.061L83.2996 138.913Z" fill="#481CC3"/>
<path d="M74.9951 139.44L74.5728 150L69.3735 149.792L69.7966 139.233L71.4535 139.299L71.0914 148.349L72.9769 148.425L73.3381 139.374L74.9951 139.44Z" fill="#481CC3"/>
<path d="M61.4566 142.598L61.1292 144.073L58.1872 143.419L58.5146 141.944L61.4566 142.598Z" fill="#481CC3"/>
<path d="M51.5841 137.76L49.4735 142.836C49.1469 143.62 48.7015 144.144 48.1366 144.408C47.5716 144.67 46.9143 144.645 46.1629 144.332C45.4124 144.021 44.9183 143.567 44.6825 142.971C44.4474 142.375 44.4928 141.686 44.8186 140.901L45.2144 139.948L46.7452 140.585L46.3097 141.633C46.0433 142.272 46.1753 142.702 46.7039 142.921C47.2367 143.144 47.6359 142.934 47.9023 142.294L50.0921 137.026C50.3552 136.391 50.2208 135.963 49.6888 135.742C49.1593 135.521 48.7634 135.729 48.4995 136.364L47.9197 137.759L46.3889 137.123L46.9291 135.823C47.2557 135.039 47.7126 134.52 48.3015 134.267C48.8904 134.014 49.5593 134.044 50.3115 134.355C51.062 134.668 51.5437 135.117 51.7556 135.703C51.9676 136.29 51.9115 136.974 51.5841 137.76Z" fill="#481CC3"/>
<path d="M45.4132 132.31L40.0555 141.419L38.0703 140.251L40.8283 133.141L36.0315 139.051L33.9704 137.84L39.3281 128.73L40.7574 129.571L36.9165 136.102L41.7455 130.151L43.1014 130.95L40.3895 138.003L44.1686 131.577L45.4132 132.31Z" fill="#481CC3"/>
<path d="M35.4616 129.06L32.0479 133.369C31.5233 134.033 30.9468 134.41 30.3192 134.502C29.6907 134.593 29.0589 134.387 28.4214 133.883C27.7855 133.379 27.4408 132.81 27.388 132.181C27.336 131.549 27.5719 130.903 28.0956 130.241L31.5093 125.93C32.0339 125.268 32.6087 124.889 33.2356 124.796C33.8616 124.703 34.4925 124.909 35.1292 125.413C35.7659 125.917 36.1115 126.484 36.166 127.117C36.2212 127.75 35.9862 128.397 35.4616 129.06ZM34.2261 127.949C34.6583 127.403 34.6492 126.95 34.1964 126.592C33.7477 126.237 33.3073 126.333 32.8735 126.88L29.3319 131.352C28.9022 131.895 28.9113 132.344 29.36 132.699C29.8128 133.059 30.254 132.966 30.6837 132.422L34.2261 127.949Z" fill="#481CC3"/>
<path d="M24.8023 128.676L23.7326 129.742L20.1061 126.105L21.1758 125.037L22.4039 126.269L28.8172 119.874L29.9884 121.048L23.5742 127.444L24.8023 128.676Z" fill="#481CC3"/>
<path d="M25.8547 116.661L17.5642 123.216L16.0491 121.301C15.5411 120.658 15.334 120.035 15.4272 119.432C15.5204 118.829 15.9007 118.264 16.5679 117.737L17.6434 116.887C18.3106 116.36 18.9465 116.121 19.5519 116.17C20.1573 116.22 20.714 116.565 21.2212 117.207L21.7095 117.824L24.8255 115.362L25.8547 116.661ZM20.5309 118.757L20.0418 118.139C19.8711 117.922 19.6847 117.81 19.4826 117.8C19.2814 117.791 19.0372 117.899 18.7519 118.125L17.509 119.107C17.2236 119.332 17.0636 119.543 17.0281 119.742C16.9935 119.938 17.0611 120.144 17.231 120.36L17.7209 120.979L20.5309 118.757Z" fill="#481CC3"/>
<path d="M21.2913 110.624L12.2601 116.11L11.4906 114.844L17.2095 111.37L14.9059 112.062L10.4728 113.169L9.43939 111.469L18.4714 105.981L19.3325 107.399L12.9842 111.256L15.5443 110.486L20.4071 109.168L21.2913 110.624Z" fill="#481CC3"/>
<path d="M15.3654 99.4576L5.43852 103.083L4.87026 101.525L9.19615 99.945L4.12385 99.4823L3.55559 97.9243L8.77058 98.4753L13.4824 94.2987L14.0664 95.8979L10.6675 98.8571L11.7513 99.0122L14.7963 97.8988L15.3654 99.4576Z" fill="#481CC3"/>
<path d="M12.8697 92.2195L11.395 92.5461C11.3504 92.3482 11.3075 92.1964 11.2638 92.0917C11.2201 91.9869 11.1517 91.902 11.0593 91.8327C10.9661 91.7651 10.8457 91.7296 10.6989 91.7263C10.5521 91.7246 10.3582 91.7453 10.1166 91.789L2.27885 93.3453L1.2454 88.706L11.5616 86.409L11.922 88.028L3.08051 89.9967L3.39309 91.3997L9.66957 90.1898C10.6156 90.0091 11.3323 90.0578 11.8164 90.3349C12.3014 90.6137 12.6338 91.1564 12.8144 91.9671L12.8697 92.2195Z" fill="#481CC3"/>
<path d="M11.0889 83.2988L0.560003 84.2217L0.431335 82.7462L7.09709 82.1614L4.72508 81.7639L0.260608 80.7932L0.0865842 78.8113L10.6147 77.8883L10.7599 79.5412L3.3601 80.1886L5.99603 80.6315L10.9397 81.6039L11.0889 83.2988Z" fill="#481CC3"/>
<path d="M10.5603 74.9959L0 74.5736L0.208658 69.3743L10.7681 69.7966L10.7021 71.4535L1.652 71.0914L1.57611 72.9769L10.6263 73.3389L10.5603 74.9959Z" fill="#481CC3"/>
<path d="M7.40146 61.4566L5.92679 61.1291L6.58 58.1872L8.05467 58.5146L7.40146 61.4566Z" fill="#481CC3"/>
<path d="M12.2395 51.5841L7.16304 49.4735C6.37869 49.1469 5.85414 48.7015 5.59187 48.1366C5.32959 47.5716 5.35433 46.9143 5.66609 46.1629C5.97868 45.4124 6.4323 44.9183 7.02778 44.6833C7.62326 44.4474 8.31358 44.4927 9.09875 44.8194L10.0506 45.2152L9.41463 46.746L8.36636 46.3105C7.72717 46.0441 7.29665 46.1753 7.07726 46.7048C6.8554 47.2376 7.06488 47.6368 7.7049 47.9032L12.9719 50.0929C13.6078 50.3568 14.0358 50.2224 14.2577 49.6896C14.4779 49.1609 14.27 48.765 13.6342 48.5011L12.2395 47.9213L12.8762 46.3905L14.1752 46.9308C14.9604 47.2574 15.4791 47.7143 15.7323 48.3032C15.9855 48.8921 15.9558 49.5609 15.6433 50.3123C15.3315 51.0636 14.882 51.5453 14.2964 51.7565C13.7092 51.9676 13.0238 51.9099 12.2395 51.5841Z" fill="#481CC3"/>
<path d="M17.6912 45.4116L8.5817 40.0539L9.74956 38.0687L16.8599 40.8267L10.9488 36.0291L12.1612 33.968L21.2707 39.3257L20.4294 40.755L13.899 36.9141L19.8488 41.7422L19.0513 43.0981L11.997 40.3863L18.4228 44.1654L17.6912 45.4116Z" fill="#481CC3"/>
<path d="M20.9391 35.4624L16.6289 32.0495C15.9666 31.525 15.5889 30.9485 15.4973 30.32C15.4066 29.6923 15.6128 29.0597 16.1159 28.423C16.6198 27.7863 17.1881 27.4424 17.8182 27.3896C18.4483 27.3368 19.0958 27.5727 19.7589 28.0972L24.0691 31.5101C24.7314 32.0347 25.11 32.6104 25.2023 33.2364C25.2955 33.8624 25.0902 34.4941 24.5862 35.13C24.0823 35.7667 23.514 36.1123 22.8823 36.1667C22.2497 36.222 21.6022 35.987 20.9391 35.4624ZM22.0501 34.2261C22.5969 34.6591 23.0497 34.65 23.4076 34.1972C23.7631 33.7485 23.6666 33.3073 23.1198 32.8743L18.6479 29.3336C18.1052 28.9039 17.6557 28.9129 17.3003 29.3616C16.9415 29.8144 17.0347 30.2557 17.5774 30.6854L22.0501 34.2261Z" fill="#481CC3"/>
<path d="M21.3251 24.8015L20.2579 23.7317L23.8959 20.1053L24.9624 21.175L23.731 22.4031L30.1262 28.8172L28.9517 29.9876L22.5565 23.5734L21.3251 24.8015Z" fill="#481CC3"/>
<path d="M33.3386 25.8539L26.7834 17.5642L28.7002 16.0491C29.3418 15.5411 29.9645 15.334 30.5674 15.4272C31.1703 15.5204 31.7353 15.9007 32.2623 16.5679L33.1126 17.6434C33.6397 18.3106 33.8789 18.9465 33.8294 19.5519C33.7799 20.1581 33.4343 20.7148 32.7926 21.222L32.1757 21.7103L34.6385 24.8263L33.3386 25.8539ZM31.2429 20.5301L31.8615 20.041C32.0776 19.8702 32.1897 19.6839 32.1996 19.4826C32.2095 19.2814 32.1007 19.0372 31.8747 18.7527L30.8924 17.5098C30.6672 17.2244 30.4561 17.0644 30.2581 17.0289C30.0618 16.9935 29.8556 17.0611 29.6396 17.2318L29.021 17.7209L31.2429 20.5301Z" fill="#481CC3"/>
<path d="M39.3767 21.2914L33.8896 12.2594L35.1556 11.4899L38.6303 17.2088L37.9367 14.9052L36.8307 10.4721L38.5313 9.43869L44.0185 18.4707L42.6015 19.3317L38.7441 12.9843L39.5145 15.5444L40.8324 20.4072L39.3767 21.2914Z" fill="#481CC3"/>
<path d="M50.544 15.3646L46.9184 5.43774L48.4764 4.86865L50.0566 9.19537L50.5185 4.12307L52.0764 3.55398L51.5255 8.76897L55.7021 13.4808L54.1029 14.0648L51.1436 10.6659L50.9894 11.7497L52.1029 14.7955L50.544 15.3646Z" fill="#481CC3"/>
<path d="M57.7813 12.8688L57.4531 11.3941C57.651 11.3504 57.8036 11.3067 57.9075 11.263C58.0123 11.2201 58.098 11.1516 58.1665 11.0576C58.2358 10.9644 58.2704 10.8448 58.2729 10.698C58.2754 10.552 58.2547 10.3574 58.2102 10.1157L56.6539 2.27801L61.294 1.2454L63.5901 11.5607L61.9719 11.9212L60.0032 3.0805L58.6003 3.39226L59.8094 9.66954C59.99 10.6155 59.9414 11.3314 59.6643 11.8156C59.3871 12.2997 58.8428 12.6329 58.0321 12.8127L57.7813 12.8688Z" fill="#481CC3"/>
<path d="M66.6995 11.0873L65.7774 0.559198L67.2529 0.429699L67.8369 7.09628L68.2352 4.72343L69.206 0.258972L71.1879 0.0857788L72.11 10.6139L70.4579 10.7582L69.8097 3.35845L69.3668 5.99521L68.3952 10.9389L66.6995 11.0873Z" fill="#481CC3"/>
<path d="M74.9794 10.5595L75.3976 0L80.5969 0.206191L80.1787 10.7665L78.5209 10.7005L78.8797 1.65036L76.9951 1.5753L76.6364 10.6254L74.9794 10.5595Z" fill="#481CC3"/>
<path d="M88.5434 7.40067L88.8709 5.92598L91.8128 6.58002L91.4854 8.05471L88.5434 7.40067Z" fill="#481CC3"/>
</svg>