<svg width="31" height="30" viewBox="0 0 31 30" fill="none" xmlns="http://www.w3.org/2000/svg">
<path fill-rule="evenodd" clip-rule="evenodd" d="M25.698 0H4.40524C1.97252 0 0 1.9188 0 4.28571V25.7135C0 28.0804 1.97252 29.9992 4.40524 29.9992H16.1865C16.1824 26.636 16.1726 23.2727 16.1854 19.9102C16.1873 19.4884 16.0684 19.3823 15.6575 19.3961C14.7295 19.428 13.7993 19.398 12.8706 19.4104C12.488 19.4156 12.3326 19.2656 12.3356 18.8794C12.3469 17.6262 12.3438 16.3726 12.3314 15.1198C12.3273 14.7201 12.4827 14.5637 12.8925 14.5723C13.8498 14.5929 14.8078 14.5678 15.7651 14.5832C16.0815 14.5888 16.1903 14.4898 16.1846 14.1681C16.167 13.1001 16.179 12.0318 16.1749 10.9635C16.1673 8.81779 17.2213 7.29197 19.0366 6.27913C19.6811 5.91952 20.419 5.72603 21.2047 5.75228C22.4187 5.7924 23.6344 5.77291 24.8487 5.75041C25.242 5.74328 25.3714 5.8629 25.3624 6.26263C25.3383 7.37297 25.347 8.48406 25.3616 9.59514C25.3669 9.96638 25.2175 10.0972 24.8529 10.0972C23.9253 10.0969 22.997 10.1081 22.0698 10.1441C21.6044 10.1621 21.052 10.6833 21.0373 11.1352C21.0027 12.1882 21.0087 13.2422 20.9978 14.296C20.994 14.6049 21.2217 14.578 21.4189 14.5783C22.419 14.5806 23.4192 14.5779 24.4205 14.5772C24.5345 14.5768 24.6489 14.5768 24.7633 14.5794C25.295 14.5903 25.3804 14.7167 25.2679 15.2308C25.1961 15.5604 25.172 15.9005 25.1219 16.235C24.9759 17.1999 24.8416 18.1669 24.6636 19.1262C24.6418 19.2431 24.384 19.3924 24.2316 19.3965C23.3323 19.4216 22.4303 19.4355 21.5317 19.3965C21.0749 19.3763 20.9899 19.5341 20.991 19.9534C21.0034 23.3024 20.9948 26.651 20.9914 30H25.6984C28.1311 30 30.1037 28.0812 30.1037 25.7143V4.28646C30.1033 1.9188 28.1308 0 25.698 0Z" fill="white"/>
</svg>