<svg width="64" height="64" viewBox="0 0 64 64" fill="none" xmlns="http://www.w3.org/2000/svg">
<path d="M31.9999 63.9767C49.6602 63.9767 63.9767 49.6602 63.9767 31.9999C63.9767 14.3397 49.6602 0.0231934 31.9999 0.0231934C14.3397 0.0231934 0.0231934 14.3397 0.0231934 31.9999C0.0231934 49.6602 14.3397 63.9767 31.9999 63.9767Z" fill="#CAFDFF"/>
<path d="M52.3487 19.3045C52.1533 19.1553 51.8995 19.1057 51.6623 19.1704L43.5434 21.3858C43.1232 21.5005 42.8754 21.9342 42.9901 22.3545C43.1048 22.7749 43.5384 23.0225 43.9588 22.9078L51.0812 20.9643V43.5031C51.0805 43.5154 51.0801 43.5278 51.08 43.5403C51.0691 44.6562 50.6179 45.7162 49.8092 46.5247C48.1762 48.1578 45.5863 48.2252 44.036 46.6748C42.4856 45.1246 42.553 42.5346 44.1861 40.9016C45.2538 39.8338 46.7932 39.3945 48.204 39.7549C48.44 39.8151 48.6907 39.7631 48.8831 39.6137C49.0755 39.4642 49.188 39.2342 49.188 38.9907V27.1206C49.188 26.8748 49.0734 26.643 48.878 26.4938C48.6826 26.3445 48.4288 26.2948 48.1917 26.3596L32.2574 30.7048C31.9142 30.7984 31.6761 31.1101 31.6761 31.4658V48.0337C31.6754 48.046 31.675 48.0584 31.6749 48.0709C31.6641 49.1871 31.2128 50.247 30.4041 51.0557C29.6085 51.8513 28.5662 52.3027 27.4692 52.3266C26.3853 52.3496 25.3772 51.9521 24.6308 51.2058C23.0805 49.6555 23.1478 47.0656 24.7809 45.4325C25.8486 44.3648 27.3883 43.9255 28.7988 44.2859C29.0347 44.3461 29.2855 44.2941 29.4779 44.1446C29.6703 43.9951 29.7829 43.7652 29.7829 43.5216V26.776L37.1264 24.7722C37.5467 24.6575 37.7945 24.2238 37.6798 23.8035C37.565 23.3832 37.1315 23.1355 36.7111 23.2501L28.7864 25.4126C28.4433 25.5062 28.2052 25.818 28.2052 26.1736V42.5987C26.5547 42.4832 24.8817 43.1006 23.6653 44.3169C21.4171 46.5651 21.3498 50.1559 23.5152 52.3213C24.5713 53.3775 25.9661 53.9025 27.3793 53.9024C28.8635 53.9023 30.3679 53.3229 31.5197 52.1712C32.6102 51.0807 33.224 49.6494 33.2517 48.1361C33.2531 48.1174 33.2537 48.0986 33.2537 48.0797V32.0684L47.6103 28.1534V38.0677C45.9599 37.9517 44.2868 38.5696 43.0704 39.7859C40.8222 42.0342 40.7549 45.625 42.9203 47.7905C43.9764 48.8466 45.3712 49.3716 46.7843 49.3715C48.2686 49.3714 49.773 48.792 50.9247 47.6403C52.0153 46.5497 52.6292 45.1184 52.6567 43.605C52.6581 43.5864 52.6587 43.5676 52.6587 43.5488V19.9315C52.6588 19.6855 52.5441 19.4537 52.3487 19.3045Z" fill="#552CE8"/>
<path d="M22.742 19.2437C22.742 18.8879 23.0131 18.4826 23.5923 18.4826C24.0114 18.4826 24.3195 18.8463 24.3195 19.2437V35.8576C24.3195 35.8765 24.3189 35.8953 24.3176 35.9139C24.2899 37.4273 23.676 38.8585 22.5856 39.9491C21.4338 41.1008 19.9293 41.6802 18.4452 41.6802C17.032 41.6804 15.6372 41.1554 14.581 40.0992C12.4156 37.9338 12.483 34.343 14.7311 32.0948C15.9475 30.8785 17.6205 30.261 19.2711 30.3765V13.9515C19.2711 13.5959 19.5091 13.2841 19.8523 13.1905L27.777 11.028C28.1973 10.9134 28.6309 11.1611 28.7456 11.5814C28.8603 12.0016 28.6126 12.4353 28.1923 12.55L20.8487 14.5539V31.2995C20.8487 31.543 20.7362 31.773 20.5438 31.9225C20.3514 32.072 20.1006 32.1239 19.8647 32.0638C18.4542 31.7033 16.9145 32.1426 15.8468 33.2104C14.2137 34.8435 14.1463 37.4334 15.6967 38.9837C16.4431 39.73 17.4512 40.1275 18.535 40.1045C19.632 40.0806 20.6743 39.6292 21.47 38.8335C22.2786 38.0249 22.7299 36.965 22.7407 35.8488C22.7409 35.8363 22.7413 35.8239 22.742 35.8116V19.2437Z" fill="#552CE8"/>
<path d="M40.3264 23.87C40.5339 23.87 40.7374 23.7864 40.8841 23.6389C41.0308 23.4922 41.1152 23.2894 41.1152 23.0812C41.1152 22.8737 41.0308 22.6702 40.8841 22.5235C40.7374 22.3768 40.5339 22.2924 40.3264 22.2924C40.1182 22.2924 39.9155 22.3768 39.7688 22.5235C39.622 22.6702 39.5376 22.8737 39.5376 23.0812C39.5376 23.2894 39.622 23.4922 39.7688 23.6389C39.9155 23.7864 40.1183 23.87 40.3264 23.87Z" fill="#552CE8"/>
<path d="M23.5428 17.2767C23.7503 17.2767 23.9538 17.1931 24.1005 17.0456C24.2472 16.8989 24.3316 16.6962 24.3316 16.4879C24.3316 16.2805 24.2472 16.077 24.1005 15.9303C23.9538 15.7835 23.7503 15.6991 23.5428 15.6991C23.3346 15.6991 23.1319 15.7835 22.9852 15.9303C22.8385 16.077 22.7541 16.2805 22.7541 16.4879C22.7541 16.6962 22.8385 16.8989 22.9852 17.0456C23.1319 17.1931 23.3347 17.2767 23.5428 17.2767Z" fill="#552CE8"/>
</svg>