<svg width="80" height="92" viewBox="0 0 80 92" fill="none" xmlns="http://www.w3.org/2000/svg">
<path d="M47.1518 11.8064C43.7771 16.1216 36.0776 21.3995 20.0722 17.7367C3.30222 13.8995 -1.38126 31.5157 1.93269 41.2978C4.0606 47.5776 12.3978 54.8697 8.5606 68.8644C6.43688 76.6099 5.98268 90.4846 25.062 85.4187C44.1413 80.3529 46.9327 83.8413 56.3513 89.0739C65.7699 94.3064 77.6304 88.7397 75.1885 76.1746C72.7466 63.6094 74.4908 62.7778 77.9792 49.7634C81.4676 36.749 79.1415 23.2267 74.8397 15.8188C70.5525 8.43598 56.7001 -0.402864 47.1518 11.8064Z" fill="white"/>
<path d="M65.8336 23.9235C65.4478 23.9235 65.136 23.611 65.136 23.2258V17.6445C65.136 17.2593 65.4478 16.9468 65.8336 16.9468C66.2195 16.9468 66.5313 17.2593 66.5313 17.6445V23.2258C66.5313 23.6117 66.2195 23.9235 65.8336 23.9235Z" fill="#44E0E8"/>
<path d="M68.6248 21.1328H63.0434C62.6576 21.1328 62.3457 20.8203 62.3457 20.4352C62.3457 20.05 62.6576 19.7375 63.0434 19.7375H68.6248C69.0106 19.7375 69.3225 20.05 69.3225 20.4352C69.3225 20.8203 69.0106 21.1328 68.6248 21.1328Z" fill="#44E0E8"/>
<path d="M73.968 63.7844C73.5822 63.7844 73.2704 63.4718 73.2704 63.0867V57.5053C73.2704 57.1202 73.5822 56.8077 73.968 56.8077C74.3538 56.8077 74.6657 57.1202 74.6657 57.5053V63.0867C74.6657 63.4718 74.3538 63.7844 73.968 63.7844Z" fill="#44E0E8"/>
<path d="M76.7592 60.9937H71.1778C70.792 60.9937 70.4801 60.6812 70.4801 60.296C70.4801 59.9109 70.792 59.5984 71.1778 59.5984H76.7592C77.145 59.5984 77.4569 59.9109 77.4569 60.296C77.4569 60.6812 77.145 60.9937 76.7592 60.9937Z" fill="#44E0E8"/>
<path d="M21.1801 76.1668C20.7943 76.1668 20.4824 75.8542 20.4824 75.4691V69.8877C20.4824 69.5026 20.7943 69.19 21.1801 69.19C21.5659 69.19 21.8778 69.5026 21.8778 69.8877V75.4691C21.8778 75.8542 21.5659 76.1668 21.1801 76.1668Z" fill="#44E0E8"/>
<path d="M23.9713 73.3761H18.3899C18.0041 73.3761 17.6922 73.0635 17.6922 72.6784C17.6922 72.2933 18.0041 71.9808 18.3899 71.9808H23.9713C24.3571 71.9808 24.6689 72.2933 24.6689 72.6784C24.6689 73.0635 24.3571 73.3761 23.9713 73.3761Z" fill="#44E0E8"/>
<path d="M8.32971 29.7184C7.94389 29.7184 7.63203 29.4058 7.63203 29.0207V23.4393C7.63203 23.0542 7.94389 22.7416 8.32971 22.7416C8.71552 22.7416 9.02738 23.0542 9.02738 23.4393V29.0207C9.02738 29.4058 8.71552 29.7184 8.32971 29.7184Z" fill="#44E0E8"/>
<path d="M11.1209 26.9277H5.53947C5.15366 26.9277 4.8418 26.6151 4.8418 26.23C4.8418 25.8449 5.15366 25.5323 5.53947 25.5323H11.1209C11.5067 25.5323 11.8185 25.8449 11.8185 26.23C11.8185 26.6151 11.5067 26.9277 11.1209 26.9277Z" fill="#44E0E8"/>
<path d="M3.87906 60.1894C2.29883 60.1894 1.01367 58.9043 1.01367 57.324C1.01367 55.7438 2.29952 54.4587 3.87906 54.4587C5.45859 54.4587 6.74368 55.7438 6.74368 57.324C6.74368 58.9043 5.45929 60.1894 3.87906 60.1894ZM3.87906 55.854C3.06836 55.854 2.40902 56.5133 2.40902 57.324C2.40902 58.1347 3.06836 58.794 3.87906 58.794C4.68906 58.794 5.34833 58.1347 5.34833 57.324C5.34833 56.5133 4.68906 55.854 3.87906 55.854Z" fill="#552CE8"/>
<path d="M6.04611 58.0218C5.6603 58.0218 5.34833 57.7092 5.34833 57.324L5.34844 50.2476C5.34844 49.9825 5.49843 49.7404 5.73564 49.6225C5.97425 49.5046 6.25611 49.5311 6.46751 49.6915L8.38612 51.1448C8.69309 51.3771 8.75378 51.8146 8.52076 52.1222C8.28844 52.4278 7.85102 52.4899 7.54404 52.2569L6.74451 51.6513L6.74368 57.324C6.74298 57.7092 6.43193 58.0218 6.04611 58.0218Z" fill="#552CE8"/>
<path d="M33.6062 11.0733C32.0259 11.0733 30.7408 9.78817 30.7408 8.20794C30.7408 6.6277 32.0266 5.34259 33.6062 5.34259C35.1857 5.34259 36.4708 6.6277 36.4708 8.20794C36.4708 9.78817 35.1864 11.0733 33.6062 11.0733ZM33.6062 6.73862C32.7955 6.73862 32.1362 7.39792 32.1362 8.20862C32.1362 9.01931 32.7955 9.67863 33.6062 9.67863C34.4162 9.67863 35.0755 9.01931 35.0755 8.20862C35.0755 7.39792 34.4162 6.73862 33.6062 6.73862Z" fill="#552CE8"/>
<path d="M35.7733 8.90629C35.3875 8.90629 35.0755 8.59373 35.0755 8.20862L35.0756 1.13212C35.0756 0.867004 35.2256 0.624914 35.4628 0.507007C35.7007 0.3891 35.9833 0.415611 36.1947 0.576076L38.1133 2.02932C38.4203 2.26164 38.481 2.69908 38.248 3.00676C38.0156 3.31234 37.5782 3.37515 37.2712 3.14143L36.4717 2.53584V8.20861C36.471 8.59373 36.1591 8.90629 35.7733 8.90629Z" fill="#552CE8"/>
<path d="M61.3822 81.4869C59.802 81.4869 58.5168 80.2017 58.5168 78.6215C58.5168 77.0413 59.8026 75.7562 61.3822 75.7562C62.9617 75.7562 64.2468 77.0413 64.2468 78.6215C64.2468 80.2017 62.9624 81.4869 61.3822 81.4869ZM61.3822 77.1515C60.5715 77.1515 59.9122 77.8108 59.9122 78.6215C59.9122 79.4322 60.5715 80.0915 61.3822 80.0915C62.1922 80.0915 62.8515 79.4322 62.8515 78.6215C62.8515 77.8108 62.1922 77.1515 61.3822 77.1515Z" fill="#552CE8"/>
<path d="M63.5493 79.3192C63.1635 79.3192 62.8515 79.0066 62.8515 78.6215L62.8516 71.545C62.8516 71.2799 63.0016 71.0378 63.2388 70.9199C63.4767 70.8027 63.7593 70.8285 63.9707 70.989L65.8893 72.4422C66.1963 72.6745 66.2569 73.112 66.0239 73.4197C65.7916 73.7252 65.3541 73.7873 65.0472 73.5543L64.2476 72.9487L64.2468 78.6215C64.2462 79.0066 63.9351 79.3192 63.5493 79.3192Z" fill="#552CE8"/>
<path d="M33.8 54.8999C35.1 52.7999 37.4 51.3999 40 51.3999C42.6 51.3999 44.9 52.6998 46.1 54.7998M56 48C56 56.8366 48.8366 64 40 64C31.1634 64 24 56.8366 24 48C24 39.1634 31.1634 32 40 32C48.8366 32 56 39.1634 56 48Z" stroke="#EB5757" stroke-width="2" stroke-miterlimit="10" stroke-linecap="round" stroke-linejoin="round"/>
<path d="M35.1996 45.5C36.3594 45.5 37.2996 44.5597 37.2996 43.3999C37.2996 42.2401 36.3594 41.2998 35.1996 41.2998C34.0398 41.2998 33.0996 42.2401 33.0996 43.3999C33.0996 44.5597 34.0398 45.5 35.1996 45.5Z" fill="#EB5757"/>
<path d="M45.2996 45.5C46.4594 45.5 47.3996 44.5597 47.3996 43.3999C47.3996 42.2401 46.4594 41.2998 45.2996 41.2998C44.1398 41.2998 43.1996 42.2401 43.1996 43.3999C43.1996 44.5597 44.1398 45.5 45.2996 45.5Z" fill="#EB5757"/>
</svg>