<svg width="13" height="20" viewBox="0 0 13 20" fill="none" xmlns="http://www.w3.org/2000/svg">
<path fill-rule="evenodd" clip-rule="evenodd" d="M10.8077 2.77832H1.5V15.167H10.8077V2.77832ZM0 15.167V16.667V18.3333C0 19.2538 0.826551 20 1.84615 20H10.4615C11.4811 20 12.3077 19.2538 12.3077 18.3333V16.667V15.167V2.77832V1.66667V1.27832H12.2573C12.0635 0.54515 11.333 0 10.4615 0H1.84615C0.974662 0 0.244208 0.54515 0.050382 1.27832H0V1.66667V2.77832V15.167ZM10.8077 18.3333V16.667H1.5V18.3333V18.3335C1.5 18.3358 1.5 18.3384 1.50339 18.3457C1.50764 18.3548 1.51926 18.3744 1.54588 18.3984C1.60049 18.4477 1.70251 18.5 1.84615 18.5H10.4615C10.6052 18.5 10.7072 18.4477 10.7618 18.3984C10.7884 18.3744 10.8 18.3548 10.8043 18.3457C10.8078 18.3383 10.8077 18.3357 10.8077 18.3333ZM4.92285 18.333H7.38439V16.833H4.92285V18.333Z" fill="white"/>
</svg>