<svg width="96" height="97" viewBox="0 0 96 97" fill="none" xmlns="http://www.w3.org/2000/svg">
<path d="M48.0005 96.0504C74.4911 96.0504 95.9659 74.5756 95.9659 48.085C95.9659 21.5945 74.4911 0.119629 48.0005 0.119629C21.51 0.119629 0.0351562 21.5945 0.0351562 48.085C0.0351562 74.5756 21.51 96.0504 48.0005 96.0504Z" fill="#CAFDFF"/>
<path d="M67.4285 86.9085C66.5756 86.9085 65.7602 86.6451 65.1305 86.1663L63.9506 85.2733C63.5721 84.9872 62.6241 84.6576 61.9735 84.7439L60.504 84.9288C58.8636 85.1363 57.1552 84.1291 56.5247 82.6317L55.9491 81.266C55.7372 80.7628 55.0063 80.0311 54.5014 79.8183L53.1383 79.2436C51.6261 78.6096 50.6363 76.8994 50.8403 75.2668L51.0252 73.7947C51.0932 73.2514 50.8264 72.2537 50.4967 71.8177L49.602 70.6395C48.6086 69.3278 48.6086 67.3516 49.6002 66.0426L50.4976 64.8618C50.8264 64.4266 51.0941 63.429 51.0252 62.8874L50.8403 61.4153C50.6371 59.7836 51.6243 58.0734 53.1383 57.4368L54.5023 56.8621C55.0072 56.6493 55.7372 55.9193 55.9499 55.4152L56.5238 54.0504C57.1569 52.5513 58.8767 51.5458 60.5049 51.7533L61.9727 51.9365C62.652 52.021 63.5721 51.6931 63.9514 51.4071L65.1314 50.514C66.3898 49.56 68.4654 49.5609 69.7265 50.5132L70.9073 51.408C71.2858 51.6931 72.2373 52.0228 72.8817 51.9365L74.3538 51.7533C75.9698 51.5458 77.7027 52.553 78.3324 54.0495L78.9079 55.4161C79.1199 55.9193 79.8489 56.6493 80.3539 56.8621L81.7187 57.4359C83.2344 58.076 84.2216 59.7871 84.0158 61.417L83.8318 62.8856C83.7638 63.429 84.0315 64.4258 84.3612 64.8618L85.2551 66.0426C86.2484 67.3525 86.2484 69.3287 85.2551 70.6395L84.3612 71.8194C84.0298 72.2555 83.7629 73.2523 83.8318 73.7956L84.0158 75.2677C84.2225 76.8968 83.2344 78.6078 81.7178 79.2453L80.353 79.82C79.8498 80.032 79.1199 80.7628 78.9079 81.266L78.3332 82.6317C77.7018 84.1299 75.9794 85.1372 74.353 84.9297L72.8817 84.7448C72.2407 84.6584 71.2841 84.9872 70.9064 85.2741L69.7265 86.168C69.0968 86.6459 68.2814 86.9085 67.4285 86.9085ZM62.1575 81.6811C63.4186 81.6811 64.8811 82.1477 65.7951 82.8419L66.975 83.7349C67.0492 83.7907 67.2114 83.8561 67.4294 83.8561C67.6474 83.8561 67.8105 83.7907 67.8837 83.7349L69.0637 82.841C70.1224 82.0387 71.9451 81.5512 73.2646 81.7151L74.7349 81.9H74.7402C75.0794 81.9 75.4361 81.6506 75.5216 81.4456L76.0954 80.0817C76.6134 78.8494 77.9347 77.5264 79.1687 77.0058L80.5361 76.4302C80.7812 76.3273 81.0219 75.9104 80.9888 75.6479L80.8047 74.1749C80.6382 72.8476 81.1213 71.0406 81.9315 69.9758L82.8245 68.7959C82.9859 68.5839 82.9859 68.0999 82.8245 67.888L81.9306 66.7072C81.1213 65.6406 80.6382 63.8354 80.8047 62.508L80.9888 61.0385C81.0219 60.7726 80.7803 60.3548 80.5344 60.251L79.1704 59.6772C77.9355 59.1566 76.6134 57.8353 76.0954 56.6022L75.5207 55.2365C75.4344 55.0324 75.0759 54.7821 74.7803 54.7821L73.2628 54.9679C71.9634 55.1318 70.125 54.6452 69.0654 53.8446L67.8846 52.949C67.8122 52.894 67.6483 52.8286 67.4302 52.8286C67.2122 52.8286 67.0491 52.8932 66.9759 52.949L65.7951 53.8429C64.7355 54.6452 62.9163 55.1327 61.5942 54.9679L60.1264 54.7847C60.1264 54.7847 60.1229 54.7847 60.1203 54.7847C59.7793 54.7847 59.4244 55.0342 59.3389 55.2382L58.7651 56.6031C58.2444 57.8371 56.9232 59.1592 55.6901 59.6772L54.3261 60.2519C54.081 60.3557 53.8377 60.7752 53.8717 61.0394L54.0566 62.5098C54.2232 63.8362 53.7409 65.6406 52.9325 66.708L52.0351 67.8889C51.8755 68.0999 51.8755 68.5857 52.0368 68.7976L52.9307 69.9758C53.7401 71.0441 54.2232 72.8493 54.0566 74.1767L53.8717 75.6479C53.8386 75.9113 54.0793 76.329 54.3244 76.4311L55.6909 77.0075C56.925 77.5282 58.2471 78.8503 58.7651 80.0825L59.3407 81.4482C59.427 81.6523 59.7863 81.9035 60.082 81.9035L61.5959 81.716C61.7729 81.6933 61.9613 81.6811 62.1575 81.6811Z" fill="#5B31F3"/>
<path d="M71.9745 61.392L70.3815 60.6816L63.011 77.2087L64.604 77.9192L71.9745 61.392Z" fill="#5B31F3"/>
<path d="M71.5361 78.985C69.2547 78.985 67.3988 76.7515 67.3988 74.0071C67.3988 71.2634 69.2547 69.03 71.5361 69.03C73.8175 69.03 75.6733 71.2634 75.6733 74.0071C75.6733 76.7524 73.8175 78.985 71.5361 78.985ZM71.5361 70.7742C70.2166 70.7742 69.143 72.2245 69.143 74.0071C69.143 75.7905 70.2166 77.2408 71.5361 77.2408C72.8556 77.2408 73.9291 75.7905 73.9291 74.0071C73.9291 72.2245 72.8556 70.7742 71.5361 70.7742Z" fill="#5B31F3"/>
<path d="M62.952 68.8588C60.6706 68.8588 58.8139 66.6245 58.8139 63.8792C58.8139 61.1355 60.6706 58.9021 62.952 58.9021C65.2334 58.9021 67.0901 61.1355 67.0901 63.8792C67.0901 66.6254 65.2343 68.8588 62.952 68.8588ZM62.952 60.6463C61.6316 60.6463 60.5581 62.0966 60.5581 63.8792C60.5581 65.6635 61.6316 67.1146 62.952 67.1146C64.2724 67.1146 65.3459 65.6635 65.3459 63.8792C65.3459 62.0966 64.2724 60.6463 62.952 60.6463Z" fill="#5B31F3"/>
<path d="M72.185 37.5199H12.7445C10.4605 37.5199 8.60205 35.6615 8.60205 33.3775V30.9609C8.60205 28.6769 10.4605 26.8184 12.7445 26.8184H72.185C74.469 26.8184 76.3274 28.6769 76.3274 30.9609V33.3775C76.3274 35.6624 74.469 37.5199 72.185 37.5199ZM12.7445 29.8716C12.1436 29.8716 11.6544 30.3609 11.6544 30.9618V33.3784C11.6544 33.9792 12.1436 34.4685 12.7445 34.4685H72.185C72.7859 34.4685 73.2751 33.9792 73.2751 33.3784V30.9618C73.2751 30.3609 72.7859 29.8716 72.185 29.8716H12.7445Z" fill="#5B31F3"/>
<path d="M73.4443 36.1971L70.8586 35.7933L68.445 51.2476L71.0308 51.6514L73.4443 36.1971Z" fill="#5B31F3"/>
<path d="M50.8718 67.4948H20.7059C18.5074 67.4948 16.5181 65.7925 16.1789 63.6201L11.8978 36.231L14.9143 35.7591L19.1946 63.1482C19.3001 63.8259 20.0205 64.4424 20.7059 64.4424H50.8718V67.4948Z" fill="#5B31F3"/>
<path d="M44.6083 60.6466H40.076C38.7818 60.6466 37.6106 59.6454 37.41 58.366L35.1957 44.2276C35.0937 43.5709 35.2707 42.9177 35.6832 42.4363C36.0957 41.954 36.7123 41.6785 37.376 41.6785H47.3074C47.972 41.6785 48.5894 41.954 49.0011 42.4363C49.4127 42.9186 49.5906 43.5709 49.4885 44.2276L47.2725 58.3669C47.072 59.6454 45.9025 60.6466 44.6083 60.6466ZM37.376 43.4227C37.2173 43.4227 37.0908 43.4741 37.0079 43.57C36.9251 43.6668 36.8946 43.8011 36.919 43.9581L39.1333 58.0966C39.1987 58.5178 39.6478 58.9024 40.0751 58.9024H44.6074C45.033 58.9024 45.4821 58.5187 45.5475 58.0966L47.7635 43.9573C47.788 43.8003 47.7574 43.6668 47.6746 43.57C47.5917 43.4741 47.4644 43.4227 47.3057 43.4227H37.376Z" fill="#5B31F3"/>
<path d="M52.261 58.9948C52.1913 58.7044 52.1799 58.4018 52.2279 58.0966L54.4439 43.9573C54.6436 42.6796 55.8148 41.6785 57.109 41.6785H62.8736C63.5381 41.6785 64.1547 41.954 64.5663 42.4354C64.9797 42.9177 65.1576 43.5709 65.0556 44.2267L63.5905 53.5669L61.8663 53.2957L63.3314 43.9573C63.3559 43.8012 63.3245 43.6668 63.2416 43.5709C63.1588 43.4741 63.0314 43.4227 62.8727 43.4227H57.1082C56.6817 43.4227 56.2326 43.8064 56.1672 44.2276L53.9512 58.3669C53.9381 58.4454 53.9407 58.5204 53.9573 58.5884L52.261 58.9948Z" fill="#5B31F3"/>
<path d="M30.2754 60.6463H24.7297C23.4355 60.6463 22.2643 59.6451 22.0637 58.3657L19.8486 44.2282C19.7465 43.5715 19.9236 42.9183 20.3361 42.436C20.7486 41.9537 21.366 41.6782 22.0297 41.6782H27.5753C28.8704 41.6782 30.0408 42.6793 30.2405 43.9587L32.4556 58.0954C32.5594 58.7512 32.3824 59.4044 31.9698 59.8867C31.5573 60.3698 30.9399 60.6463 30.2754 60.6463ZM22.0297 43.4224C21.871 43.4224 21.7436 43.4738 21.6608 43.5706C21.5779 43.6665 21.5474 43.8017 21.5718 43.9578L23.787 58.0954C23.8524 58.5175 24.3015 58.9021 24.7288 58.9021H30.2745C30.4332 58.9021 30.5605 58.8506 30.6434 58.7538C30.7262 58.6579 30.7568 58.5236 30.7323 58.3675L28.5163 44.2282C28.4509 43.8061 28.0018 43.4224 27.5753 43.4224H22.0297Z" fill="#5B31F3"/>
<path d="M61.9265 29.4752L43.2514 12.5007C42.7971 12.0873 42.0532 12.1135 41.6293 12.5556L25.4353 29.4028L23.235 27.2871L39.429 10.4399C40.9962 8.81083 43.6317 8.72013 45.3043 10.2411L63.9795 27.2156L61.9265 29.4752Z" fill="#5B31F3"/>
</svg>