<svg width="31" height="30" viewBox="0 0 31 30" fill="none" xmlns="http://www.w3.org/2000/svg">
<path fill-rule="evenodd" clip-rule="evenodd" d="M23.8984 11.8906C23.877 11.0739 23.8454 10.2552 23.763 9.44301C23.5774 7.62241 22.4896 6.36693 20.6897 6.02793C19.7283 5.84643 18.7303 5.82131 17.7478 5.80293C15.9483 5.76993 14.1481 5.77368 12.3483 5.80143C11.4196 5.81605 10.4818 5.84831 9.56666 5.99043C8.00389 6.2323 6.93632 7.12479 6.5047 8.66976C6.36622 9.16476 6.28532 9.68938 6.27328 10.2027C6.227 12.1523 6.1984 14.1027 6.20479 16.0534C6.20931 17.2943 6.23791 18.5393 6.34591 19.7749C6.50583 21.6022 7.60275 22.8532 9.40335 23.1982C10.3712 23.3831 11.3778 23.4071 12.3682 23.4251C14.1598 23.4596 15.9521 23.4483 17.7444 23.4288C18.5791 23.4198 19.4159 23.3741 20.2468 23.2927C21.0171 23.2173 21.7377 22.9661 22.3567 22.4756C23.3603 21.6806 23.7479 20.5841 23.807 19.3684C23.8871 17.727 23.9033 16.0834 23.947 14.4406C23.9323 14.4398 23.918 14.4398 23.9033 14.4398C23.9037 13.5893 23.921 12.7396 23.8984 11.8906ZM15.0351 20.145C11.9532 20.1435 9.50119 17.6745 9.50269 14.5737C9.50382 11.5182 11.9964 9.08076 15.1163 9.08414C18.1617 9.08751 20.6051 11.5794 20.6017 14.6783C20.5987 17.6955 18.1034 20.1457 15.0351 20.145ZM20.8098 10.1679C20.088 10.1547 19.5006 9.55625 19.5142 8.84863C19.5281 8.12714 20.1125 7.5669 20.844 7.57365C21.5733 7.57965 22.1257 8.15303 22.1174 8.89364C22.1087 9.59901 21.5127 10.1802 20.8098 10.1679Z" fill="white"/>
<path fill-rule="evenodd" clip-rule="evenodd" d="M15.0471 11.0262C13.0685 11.0322 11.4482 12.651 11.4516 14.6186C11.4549 16.587 13.084 18.2062 15.0565 18.2025C17.0328 18.198 18.6558 16.5765 18.6524 14.6093C18.6487 12.6398 17.0185 11.0198 15.0471 11.0262Z" fill="white"/>
<path fill-rule="evenodd" clip-rule="evenodd" d="M25.6987 0H4.40535C1.97257 0 0 1.91885 0 4.28582V25.7142C0 28.0811 1.97257 30 4.40535 30H25.6987C28.1315 30 30.104 28.0811 30.104 25.7142V4.28582C30.104 1.91885 28.1315 0 25.6987 0ZM25.8379 18.008C25.8255 19.1386 25.7879 20.2737 25.4097 21.3605C24.6849 23.4451 23.2128 24.7099 21.0627 25.1217C20.0862 25.3088 19.0728 25.3287 18.0745 25.3673C17.0656 25.4067 16.0541 25.3759 15.0437 25.3759C15.0437 25.386 15.0437 25.3962 15.0434 25.4059C13.5837 25.3804 12.1236 25.3669 10.6643 25.3253C9.4045 25.2893 8.18378 25.0624 7.09025 24.3938C5.65768 23.5171 4.78278 22.2286 4.50394 20.5917C4.33724 19.6134 4.27778 18.608 4.26273 17.6135C4.22999 15.4824 4.24279 13.3506 4.26612 11.2191C4.27816 10.0881 4.31579 8.95338 4.69435 7.86627C5.4191 5.78242 6.89119 4.51756 9.04137 4.10619C10.0179 3.9187 11.0312 3.87783 12.0292 3.86245C14.1752 3.82945 16.3228 3.84182 18.4696 3.86545C19.5962 3.87782 20.7274 3.91607 21.8107 4.28882C23.9116 5.01181 25.1873 6.48104 25.5975 8.63576C25.783 9.60925 25.8251 10.6191 25.8405 11.6136C25.8737 13.7447 25.8609 15.8769 25.8379 18.008Z" fill="white"/>
</svg>