<?xml version="1.0" encoding="utf-8"?>
<!-- Generator: Adobe Illustrator 16.0.0, SVG Export Plug-In . SVG Version: 6.00 Build 0)  -->
<!DOCTYPE svg PUBLIC "-//W3C//DTD SVG 1.1//EN" "http://www.w3.org/Graphics/SVG/1.1/DTD/svg11.dtd">
<svg version="1.1" id="Layer_1" xmlns="http://www.w3.org/2000/svg" xmlns:xlink="http://www.w3.org/1999/xlink" x="0px" y="0px"
	 width="125px" height="125px" viewBox="0 0 125 125" enable-background="new 0 0 125 125" xml:space="preserve">
<linearGradient id="SVGID_1_" gradientUnits="userSpaceOnUse" x1="62.5" y1="126" x2="62.5" y2="0.9995" gradientTransform="matrix(1 0 0 -1 0 126)">
	<stop  offset="0" style="stop-color:#14E0EE"/>
	<stop  offset="1" style="stop-color:#0ECDDC"/>
</linearGradient>
<path fill="url(#SVGID_1_)" d="M57.199,2.342c2.845-3.122,7.758-3.122,10.602,0l5.264,5.777c1.887,2.071,4.808,2.854,7.477,2.003
	l7.447-2.371c4.024-1.282,8.279,1.175,9.182,5.301l1.67,7.635c0.599,2.737,2.736,4.875,5.473,5.474l7.636,1.67
	c4.126,0.902,6.583,5.157,5.301,9.182l-2.371,7.447c-0.851,2.669-0.067,5.59,2.003,7.477l5.777,5.263
	c3.123,2.845,3.123,7.758,0,10.602l-5.777,5.264c-2.07,1.887-2.854,4.808-2.003,7.477l2.371,7.447
	c1.282,4.024-1.175,8.279-5.301,9.182l-7.636,1.67c-2.736,0.599-4.874,2.736-5.473,5.473l-1.67,7.636
	c-0.902,4.126-5.157,6.583-9.182,5.301l-7.447-2.371c-2.669-0.851-5.59-0.067-7.477,2.003l-5.264,5.777
	c-2.844,3.123-7.757,3.123-10.602,0l-5.263-5.777c-1.887-2.07-4.807-2.854-7.477-2.003l-7.447,2.371
	c-4.024,1.282-8.279-1.175-9.182-5.301l-1.67-7.636c-0.599-2.736-2.736-4.874-5.474-5.473l-7.635-1.67
	c-4.126-0.902-6.583-5.157-5.301-9.182l2.372-7.447c0.85-2.669,0.068-5.59-2.003-7.477l-5.777-5.264
	c-3.123-2.844-3.123-7.757,0-10.602l5.777-5.263c2.071-1.887,2.854-4.808,2.003-7.477L7.75,37.012
	c-1.281-4.024,1.175-8.279,5.301-9.182l7.635-1.67c2.737-0.599,4.875-2.736,5.474-5.474l1.67-7.635
	c0.902-4.126,5.157-6.583,9.182-5.301l7.447,2.371c2.669,0.85,5.59,0.067,7.477-2.003L57.199,2.342z"/>
</svg>
