<svg width="56" height="56" viewBox="0 0 56 56" fill="none" xmlns="http://www.w3.org/2000/svg">
<path d="M25.9947 1.38577C27.0707 0.204745 28.9293 0.204744 30.0053 1.38577L32.3633 3.97386C33.3402 5.04612 34.8522 5.45124 36.2343 5.0111L39.5705 3.94875C41.0929 3.46397 42.7024 4.39324 43.0438 5.95404L43.7918 9.3744C44.1017 10.7915 45.2085 11.8983 46.6256 12.2082L50.046 12.9562C51.6068 13.2976 52.536 14.9071 52.0513 16.4295L50.9889 19.7657C50.5488 21.1478 50.9539 22.6598 52.0261 23.6367L54.6142 25.9947C55.7953 27.0707 55.7953 28.9293 54.6142 30.0053L52.0261 32.3633C50.9539 33.3402 50.5488 34.8522 50.9889 36.2343L52.0513 39.5705C52.536 41.0929 51.6068 42.7024 50.046 43.0438L46.6256 43.7918C45.2085 44.1017 44.1017 45.2085 43.7918 46.6256L43.0438 50.046C42.7024 51.6068 41.0929 52.536 39.5705 52.0513L36.2344 50.9889C34.8522 50.5488 33.3402 50.9539 32.3633 52.0261L30.0053 54.6142C28.9293 55.7953 27.0707 55.7953 25.9947 54.6142L23.6367 52.0261C22.6598 50.9539 21.1478 50.5488 19.7657 50.9889L16.4295 52.0513C14.9071 52.536 13.2976 51.6068 12.9562 50.046L12.2082 46.6256C11.8983 45.2085 10.7915 44.1017 9.3744 43.7918L5.95405 43.0438C4.39324 42.7024 3.46397 41.0929 3.94875 39.5705L5.0111 36.2344C5.45124 34.8522 5.04612 33.3402 3.97386 32.3633L1.38577 30.0053C0.204745 28.9293 0.204744 27.0707 1.38577 25.9947L3.97386 23.6367C5.04612 22.6598 5.45124 21.1478 5.0111 19.7657L3.94875 16.4295C3.46397 14.9071 4.39324 13.2976 5.95404 12.9562L9.3744 12.2082C10.7915 11.8983 11.8983 10.7915 12.2082 9.3744L12.9562 5.95405C13.2976 4.39324 14.9071 3.46397 16.4295 3.94875L19.7657 5.0111C21.1478 5.45124 22.6598 5.04612 23.6367 3.97386L25.9947 1.38577Z" fill="url(#paint0_linear)" stroke="white"/>
<defs>
<linearGradient id="paint0_linear" x1="28" y1="0" x2="28" y2="56" gradientUnits="userSpaceOnUse">
<stop stop-color="#5B31F3"/>
<stop offset="1" stop-color="#501CC3"/>
</linearGradient>
</defs>
</svg>