<svg width="265" height="322" viewBox="0 0 265 322" fill="none" xmlns="http://www.w3.org/2000/svg">
<mask id="mask0" mask-type="alpha" maskUnits="userSpaceOnUse" x="0" y="0" width="265" height="322">
<rect width="265" height="322" fill="#C4C4C4"/>
</mask>
<g mask="url(#mask0)">
<path fill-rule="evenodd" clip-rule="evenodd" d="M531.682 50.7247C512.484 86.2164 481.178 144.092 455.394 117.61C391.191 51.6729 366.186 97.7805 345.412 136.086C337.323 151.001 329.876 164.733 321.007 170.208C304.84 180.188 293.318 173.684 282.47 167.56C272.081 161.696 262.311 156.181 249.672 165.826C239.377 173.683 232.249 187.722 224.56 202.865C212.953 225.727 200.068 251.104 173.079 261.526C152.464 269.486 136.597 263.647 121.19 257.976C92.2821 247.336 64.9936 237.292 11 320.118L547.002 320.118L547.004 151.362L547.004 26C544.079 27.8055 538.686 37.7752 531.682 50.7247Z" fill="#44E0E8"/>
<path d="M265 142C221 160.333 130.6 222 121 322" stroke="white"/>
</g>
</svg>