<svg width="249" height="212" viewBox="0 0 249 212" fill="none" xmlns="http://www.w3.org/2000/svg">
<path d="M50.5245 133.743C53.6429 138.428 38.4381 151.224 45.2362 151.229C48.9898 151.232 67.0522 136.744 68.1275 139.645C69.2027 142.546 55.2659 153.142 56.3412 156.043C58.3273 161.402 68.9773 151.63 73.9209 151.085C79.1443 150.508 60.7246 168.393 63.539 173.367C67.0255 179.528 85.8556 149.726 86.6006 156.48C87.1764 161.701 80.5036 169.678 82.2763 172.055C84.6925 175.294 87.6083 166.937 91.0057 168.52C98.8585 172.177 107.254 174.902 115.995 176.464C117.017 176.603 120.357 177.668 119.822 183.766C119.152 191.389 122.207 205.395 127.519 198.77C132.83 192.145 131.52 173.417 135.668 169.94C139.816 166.463 135.858 178.507 143.289 177.403C163.355 175.19 181.343 167.089 195.719 155.012C200.846 151.427 203.825 148.067 210.382 148.865C223.396 150.449 224.148 143.572 220.67 139.427C218.258 136.552 211.557 132.128 210.07 125.498C208.073 116.591 214.888 114.398 220.858 113.74C226.874 113.076 237.768 116.404 239.43 110.936C242.4 101.171 225.217 96.4618 221.457 91.7816C215.328 84.1538 223.162 83.8057 228.178 84.2462C231.989 84.5807 238.707 83.8396 234.154 76.793C234.154 76.793 230.673 72.6477 230.179 68.1769C228.729 55.8717 225.059 44.3601 219.615 33.9984C219.569 33.9054 219.522 33.8172 219.475 33.7335C217.415 30.0718 214.436 35.1337 213.465 33.0267C212.141 30.1532 220.105 24.7454 218.119 20.4351C216.611 17.1639 212.63 22.5503 210.493 19.7776C204.94 12.572 198.423 6.1846 191.158 0.788655L73.8572 0.788651C67.3329 5.64303 66.7697 6.24213 61.6578 12.4996C57.7221 17.3173 27.6578 5.49962 19.1577 13.9996C10.6576 22.4996 41.6019 41.8459 39.927 46.4996C42.5303 54.5901 27.4891 57.271 11.6578 61.7336L11.6578 114.621C28.4727 121.55 46.2534 127.325 50.5245 133.743Z" fill="#44E0E8"/>
</svg>