<svg width="388" height="200" viewBox="0 0 388 200" fill="none" xmlns="http://www.w3.org/2000/svg">
<path fill-rule="evenodd" clip-rule="evenodd" d="M0 133.949C40.3666 174.727 96.4479 200 158.449 200C228.408 200 290.831 167.823 331.645 117.5C333.461 115.167 337.876 110.6 341 111C344.905 111.5 352.5 111.5 352.5 105C352.5 100.334 350.811 95.9264 349.221 91.776C348.596 90.1441 347.986 88.5522 347.5 87C347.157 85.9063 346.753 84.8917 346.365 83.9169L346.365 83.916C344.801 79.9889 343.494 76.7071 347.5 71.5C350.338 67.8106 357.885 70.4035 366.42 73.3357C372.922 75.5694 379.997 78 386 78C390.64 78 382.719 68.4291 376.641 61.0848L376.637 61.081C374.858 58.9309 373.237 56.9719 372.135 55.5C371.843 55.1094 371.514 54.6762 371.156 54.206C364.682 45.686 348.964 25 375.5 25C378.735 13.9847 380.097 7.39987 380.67 0H0V133.949Z" fill="#552CE8"/>
</svg>