<svg width="500" height="322" viewBox="0 0 500 322" fill="none" xmlns="http://www.w3.org/2000/svg">
<mask id="mask0" mask-type="alpha" maskUnits="userSpaceOnUse" x="0" y="0" width="500" height="322">
<rect width="500" height="322" rx="1" fill="#C4C4C4"/>
</mask>
<g mask="url(#mask0)">
<path d="M369.228 581.81C369.706 582.087 370.318 581.924 370.595 581.445L498.321 360.212C498.671 359.605 498.31 358.836 497.618 358.722C492.896 357.95 477.94 355.453 475.29 354.39C472.445 353.25 473.577 350.693 473.827 350.2C473.856 350.144 473.869 350.121 473.91 350.073C475.211 348.569 508.998 309.52 511.447 307.918C513.713 306.436 508.821 304.038 507.901 303.61C507.804 303.565 507.701 303.538 507.595 303.527L456.8 298.535C456.452 298.501 456.148 298.288 456.018 297.964C455.687 297.135 455.146 295.501 455.568 294.537C456.153 293.205 489.854 255.217 489.546 253.657C489.237 252.097 490.832 252.327 489.342 251.467C487.852 250.607 432.99 251.397 430.953 250.739C428.915 250.08 427.978 252.302 428.262 248.668C428.508 245.522 452.882 210.669 459.442 201.339C459.984 200.569 459.243 199.563 458.336 199.818L400.396 216.119C400.304 216.145 400.209 216.157 400.115 216.141C399.793 216.087 398.89 215.863 397.048 214.932C394.642 213.715 410.37 163.737 410.764 161.202C411.141 158.775 407.433 161.114 407.116 161.318C407.1 161.329 407.107 161.325 407.091 161.335C406.556 161.643 353.988 191.979 352.326 192.625C350.655 193.274 350.07 190.399 349.884 188.777C349.698 187.154 359.863 123.181 359.718 119.541C359.574 115.902 357.363 117.938 356.999 117.971C356.634 118.004 312.197 162.663 310.56 164.372C309.031 165.967 309.174 162.792 309.199 162.362C309.201 162.33 309.203 162.33 309.202 162.297C309.179 161.265 308.14 114.793 309.005 113.144C309.88 111.477 308.313 110.906 306.478 112.736C304.642 114.565 271.512 155.046 269.664 156.756C267.96 158.333 266.755 155.474 266.578 155.021C266.562 154.98 266.565 154.98 266.545 154.941C265.904 153.699 236.362 96.4267 235.216 93.6952C234.174 91.2097 232.817 93.5551 232.557 94.0489C232.526 94.1069 232.512 94.1381 232.495 94.2017C231.979 96.1965 219.919 142.775 217.835 147.209C215.912 151.3 213.528 148.793 213.084 148.269C213.035 148.21 212.982 148.154 212.922 148.105L164.147 107.75C161.188 105.334 161.499 106.895 161.707 107.536C161.759 107.695 161.788 107.835 161.772 108.001C161.414 111.665 156.834 158.512 156.143 164.085C155.465 169.548 151.52 166.694 151.063 166.343C151.033 166.32 151.032 166.317 151.001 166.297C149.989 165.649 109.44 139.706 102.754 135.334C96.0448 130.947 97.7585 137.527 97.7902 137.647C97.7912 137.651 97.7898 137.645 97.7907 137.649C97.8216 137.77 104.64 164.428 108.643 180.177C112.298 194.552 105.742 188.904 104.541 187.779C104.417 187.663 104.297 187.585 104.134 187.538C100.799 186.57 60.9809 175.04 56.6204 174.854C52.2562 174.669 54.1439 178.506 54.3067 178.822C54.3146 178.838 54.3109 178.832 54.3198 178.847C54.61 179.325 81.6737 223.957 83.8119 231.062C85.7918 237.642 81.0398 237.974 80.2765 237.985C80.2066 237.986 80.1835 237.983 80.1146 237.995C77.9394 238.372 17.515 248.837 15.6554 250.295C13.8754 251.691 15.961 253.528 16.2177 253.744C16.2348 253.758 16.2295 253.755 16.2478 253.768C16.8397 254.179 73.1842 293.371 74.4984 295.429C75.6846 297.286 73.2914 299.135 72.7898 299.493C72.7298 299.536 72.7036 299.554 72.6346 299.581C70.4622 300.404 14.8964 321.459 9.4449 323.267C4.36992 324.951 7.24098 325.844 7.78082 325.987C7.83608 326.002 7.85692 326.005 7.90974 326.027C9.57593 326.718 55.0277 345.558 58.0087 346.855C60.5122 347.944 59.7642 349.95 59.4245 350.62C59.3476 350.772 59.2431 350.874 59.0925 350.953C56.1164 352.519 21.8545 370.56 20.533 372.275C19.8003 373.226 19.2349 374.225 18.8655 374.953C18.5848 375.506 18.9189 376.148 19.5259 376.276C26.7355 377.803 65.2089 385.902 69.0155 385.677C72.6876 385.459 72.0513 389.277 71.8322 390.244C71.7991 390.39 71.7261 390.522 71.6269 390.634L61.4423 402.125C61.023 402.598 61.1424 403.337 61.6894 403.654L369.228 581.81Z" fill="url(#paint0_linear)"/>
</g>
<defs>
<linearGradient id="paint0_linear" x1="147.883" y1="49.6301" x2="359.146" y2="293.88" gradientUnits="userSpaceOnUse">
<stop stop-color="#ECE3FB"/>
<stop offset="1" stop-color="#E0F8FF"/>
</linearGradient>
</defs>
</svg>
