<svg width="333" height="165" viewBox="0 0 333 165" fill="none" xmlns="http://www.w3.org/2000/svg">
<path d="M329.82 2.56593C331.31 4.15204 332.296 6.34003 333 8.78804L332.89 18V165H0.000254166L0.0386036 9.33208C-0.114247 8.8006 0.200453 8.24803 0.741509 8.09788C1.28256 7.94773 1.84509 8.25686 1.99794 8.78835C2.66363 11.103 3.53819 12.945 4.71497 14.1981C5.85695 15.4142 7.32216 16.1201 9.33111 16.1201C11.34 16.1201 12.8053 15.4142 13.9472 14.1981C15.1219 12.9473 15.9954 11.1098 16.6606 8.80107L16.6635 8.79081C17.3595 6.34386 18.3346 4.15633 19.8079 2.56998C21.3163 0.945797 23.3046 0 25.8654 0C28.4262 0 30.4145 0.945797 31.9229 2.56998C33.3962 4.15633 34.3714 6.34386 35.0674 8.79081C35.0714 8.80511 35.0752 8.81943 35.0786 8.83375C35.7426 11.1271 36.6134 12.9532 37.7825 14.1981C38.9245 15.4142 40.3897 16.1201 42.3986 16.1201C44.4076 16.1201 45.8728 15.4142 47.0148 14.1981C48.1894 12.9473 49.0629 11.1097 49.7281 8.80099L49.7318 8.78804C50.4358 6.34003 51.4222 4.15204 52.9116 2.56593C54.4358 0.942739 56.4422 0 59.0243 0C61.6064 0 63.6127 0.942739 65.137 2.56593C66.6264 4.15204 67.6127 6.34003 68.3168 8.78804C68.3673 8.9637 68.3667 9.14167 68.3238 9.30665C68.9688 11.379 69.7982 13.04 70.8858 14.1981C72.0277 15.4142 73.493 16.1201 75.5019 16.1201C77.5108 16.1201 78.9761 15.4142 80.118 14.1981C81.2927 12.9472 82.1662 11.1097 82.8314 8.80094L82.8343 8.79081C83.5303 6.34386 84.5054 4.15633 85.9787 2.56998C87.4871 0.945797 89.4754 0 92.0362 0C94.597 0 96.5853 0.945797 98.0937 2.56998C99.567 4.15633 100.542 6.34386 101.238 8.79081C101.242 8.80509 101.246 8.81938 101.249 8.83368C101.913 11.1271 102.784 12.9532 103.953 14.1981C105.095 15.4142 106.56 16.1201 108.569 16.1201C110.578 16.1201 112.044 15.4142 113.186 14.1981C114.36 12.9473 115.234 11.1097 115.899 8.80098L115.903 8.78804C116.607 6.34003 117.593 4.15204 119.082 2.56593C120.607 0.942739 122.613 0 125.195 0C127.777 0 129.784 0.942739 131.308 2.56593C132.797 4.15204 133.784 6.34003 134.488 8.78804C134.538 8.9637 134.533 9.36395 134.887 10.5C135.532 12.5723 135.969 13.04 137.057 14.1981C138.199 15.4142 139.664 16.1201 141.673 16.1201C143.682 16.1201 145.147 15.4142 146.289 14.1981C147.464 12.9472 148.337 11.1094 149.002 8.80042L149.005 8.79081C149.701 6.34386 150.676 4.15633 152.15 2.56998C153.658 0.945797 155.646 0 158.207 0C160.768 0 162.756 0.945797 164.265 2.56998C165.738 4.15633 166.713 6.34386 167.409 8.79081C167.413 8.80522 167.417 8.81966 167.42 8.8341C168.084 11.1273 168.955 12.9532 170.124 14.1981C171.266 15.4142 172.731 16.1201 174.74 16.1201C176.749 16.1201 178.214 15.4142 179.356 14.1981C180.531 12.9473 181.404 11.11 182.07 8.80149L182.073 8.78804C182.777 6.34003 183.764 4.15204 185.253 2.56593C186.777 0.942739 188.784 0 191.366 0C193.948 0 195.954 0.942739 197.479 2.56593C198.968 4.15204 199.954 6.34003 200.658 8.78804C200.709 8.9637 200.708 9.14166 200.665 9.30664C201.31 11.3789 202.14 13.04 203.227 14.1981C204.369 15.4142 205.835 16.1201 207.844 16.1201C209.852 16.1201 211.318 15.4142 212.46 14.1981C213.634 12.9472 214.508 11.1094 215.173 8.80042L215.176 8.79081C215.872 6.34386 216.847 4.15633 218.32 2.56998C219.829 0.945797 221.817 0 224.378 0C226.939 0 228.927 0.945797 230.435 2.56998C231.909 4.15633 232.884 6.34386 233.58 8.79081C233.584 8.80522 233.588 8.81966 233.591 8.8341C234.255 11.1273 235.126 12.9532 236.295 14.1981C237.437 15.4142 238.902 16.1201 240.911 16.1201C242.92 16.1201 244.385 15.4142 245.527 14.1981C246.702 12.9473 247.575 11.11 248.24 8.80149L248.244 8.78804C248.948 6.34003 249.935 4.15204 251.424 2.56593C252.948 0.942739 254.955 0 257.537 0C260.119 0 262.125 0.942739 263.649 2.56593C265.139 4.15204 266.125 6.34003 266.829 8.78804C266.88 8.96371 266.879 9.14168 266.836 9.30667C267.481 11.379 268.311 13.04 269.398 14.1981C270.54 15.4142 272.005 16.1201 274.014 16.1201C276.023 16.1201 277.488 15.4142 278.63 14.1981C279.805 12.9473 280.678 11.11 281.344 8.80145L281.347 8.79081C282.043 6.34386 283.018 4.15633 284.491 2.56998C286 0.945797 287.988 0 290.549 0C293.109 0 295.098 0.945797 296.606 2.56998C298.079 4.15633 299.055 6.34386 299.751 8.79081C299.755 8.80504 299.758 8.81928 299.762 8.83353C300.426 11.127 301.297 12.9531 302.466 14.1981C303.608 15.4142 305.073 16.1201 307.082 16.1201C309.091 16.1201 310.556 15.4142 311.698 14.1981C312.873 12.9472 313.746 11.1094 314.412 8.80044L314.415 8.78804C315.119 6.34003 316.105 4.15204 317.595 2.56593C319.119 0.942739 321.125 0 323.707 0C326.29 0 328.296 0.942739 329.82 2.56593Z" fill="#CAFDFF"/>
</svg>