<svg width="617" height="534" viewBox="0 0 617 534" fill="none" xmlns="http://www.w3.org/2000/svg">
<path fill-rule="evenodd" clip-rule="evenodd" d="M19.5177 0C-1.71957 10.3508 33.8604 59.833 78.4447 121.838C92.9288 141.981 108.363 163.447 123.109 185.321C137.565 220.196 100.729 213.861 63.6631 207.486C30.594 201.799 -2.65808 196.08 0.168312 219.566C1.0698 227.057 11.1174 237.726 22.4202 249.727C36.5545 264.735 52.6517 281.828 55.2808 297.397C58.7616 318.009 65.4355 338.135 73.362 356.547C76.137 362.993 69.0119 371.258 61.3835 380.106C52.1584 390.807 42.1972 402.361 48.1187 412.585C55.5361 425.392 68.6238 423.381 81.7208 421.369C94.0928 419.467 106.473 417.565 114.09 428.151C121.538 438.501 116.501 456.576 111.728 473.704C106.452 492.639 101.498 510.417 114.09 515.321C125.343 519.703 136.597 513.461 148.16 507.048C161.24 499.793 174.717 492.319 189.038 499.755C216.019 513.764 270.381 534 326.932 534C369.524 534 409.862 523.974 445.875 506.071C465.041 496.543 489.552 507.257 511.792 516.978C536.987 527.991 559.269 537.731 567.564 515.321C578.57 485.587 592.757 489.539 597.986 492.009C597.986 492.009 607.968 496.949 617 506.071L617 0H231.383C240.543 35.1405 243.037 63.9064 222.013 63.9064C187.398 59.5667 157.29 43.4545 128.658 28.1315C106.789 16.4284 85.7812 5.18561 64.2816 0H19.5177Z" fill="#F2FCFF"/>
</svg>