<svg width="323" height="590" viewBox="0 0 323 590" fill="none" xmlns="http://www.w3.org/2000/svg">
<mask id="mask0" mask-type="alpha" maskUnits="userSpaceOnUse" x="0" y="0" width="328" height="590">
<rect width="328" height="590" fill="#C4C4C4"/>
</mask>
<g mask="url(#mask0)">
<path d="M541.457 46.8224C604.523 31.238 755.43 90.1124 823 121.498V580.914C823 586.325 806.107 607.212 738.537 647.472C654.073 697.797 562.103 657.212 426.963 619.875C291.822 582.537 259.914 627.992 107.881 639.355C-44.1522 650.719 -8.49003 551.693 51.5724 490.004C111.635 428.316 -4.73613 416.952 51.5724 395.849C107.881 374.745 184.836 416.952 199.851 377.991C214.867 339.03 136.035 309.81 141.666 274.095C147.297 238.381 214.867 235.134 216.744 191.303C218.621 147.472 158.559 142.602 184.836 106.887C211.114 71.173 139.789 35.4587 231.76 14.3548C323.731 -6.7491 408.194 90.6536 479.518 87.4068C550.842 84.16 462.625 66.3029 541.457 46.8224Z" fill="white"/>
</g>
</svg>