<svg width="323" height="524" viewBox="0 0 323 524" fill="none" xmlns="http://www.w3.org/2000/svg">
<mask id="mask0" mask-type="alpha" maskUnits="userSpaceOnUse" x="0" y="0" width="328" height="524">
<rect width="328" height="524" fill="#C4C4C4"/>
</mask>
<g mask="url(#mask0)">
<path d="M541.457 -19.1776C604.523 -34.762 755.43 24.1124 823 55.4977V514.914C823 520.325 806.107 541.212 738.537 581.472C654.073 631.797 562.103 591.212 426.963 553.875C291.822 516.537 259.914 561.992 107.881 573.355C-44.1522 584.719 -8.49003 485.693 51.5724 424.004C111.635 362.316 -4.73613 350.952 51.5724 329.849C107.881 308.745 184.836 350.952 199.851 311.991C214.867 273.03 136.035 243.81 141.666 208.095C147.297 172.381 214.867 169.134 216.744 125.303C218.621 81.4718 158.559 76.6017 184.836 40.8873C211.114 5.17303 139.789 -30.5413 231.76 -51.6452C323.731 -72.7491 408.194 24.6536 479.518 21.4068C550.842 18.16 462.625 0.30291 541.457 -19.1776Z" fill="white"/>
</g>
</svg>