<svg width="823" height="559" viewBox="0 0 823 559" fill="none" xmlns="http://www.w3.org/2000/svg">
<mask id="mask0" mask-type="alpha" maskUnits="userSpaceOnUse" x="0" y="0" width="823" height="559">
<rect y="0.0390625" width="823" height="558.961" fill="#C4C4C4"/>
</mask>
<g mask="url(#mask0)">
<path d="M541.457 15.8614C604.523 0.277016 755.43 59.1515 823 90.5368V549.953C823 555.364 806.107 576.251 738.537 616.511C654.073 666.836 562.103 626.251 426.963 588.914C291.822 551.576 259.914 597.031 107.881 608.394C-44.1522 619.758 -8.49003 520.732 51.5724 459.044C111.635 397.355 -4.73613 385.992 51.5724 364.888C107.881 343.784 184.836 385.992 199.851 347.03C214.867 308.069 136.035 278.849 141.666 243.134C147.297 207.42 214.867 204.173 216.744 160.342C218.621 116.511 158.559 111.641 184.836 75.9264C211.114 40.2121 139.789 4.49778 231.76 -16.6061C323.731 -37.71 408.194 59.6926 479.518 56.4459C550.842 53.1991 462.625 35.342 541.457 15.8614Z" fill="white"/>
</g>
</svg>