<?xml version="1.0" encoding="utf-8"?>
<!-- Generator: Adobe Illustrator 16.0.0, SVG Export Plug-In . SVG Version: 6.00 Build 0)  -->
<!DOCTYPE svg PUBLIC "-//W3C//DTD SVG 1.1//EN" "http://www.w3.org/Graphics/SVG/1.1/DTD/svg11.dtd">
<svg version="1.1" id="Layer_1" xmlns="http://www.w3.org/2000/svg" xmlns:xlink="http://www.w3.org/1999/xlink" x="0px" y="0px"
	 width="1440px" height="434px" viewBox="5 0 1440 434" enable-background="new 5 0 1440 434" xml:space="preserve">
<path fill="#F4F4F4" d="M1445,308.898c-6.65-13.457-10.673-17.905-16.155-32.256c-15.1-39.518-29.349-76.83-61.141-74.799
	c-10.728,0.691-18.521,9.817-26.772,19.48c-10.862,12.719-22.099,25.876-41.512,25.179c-15.061-0.537-25.777-29.859-35.231-55.729
	c-3.189-8.725-6.73-21.044-10.479-34.087c-7.013-24.4-14.962-52.056-23.927-68.067c-17.846-31.901-35.005-38.597-46.257-38.597
	c-15.988,0-31.238,12.423-45.327,36.924c-13.424,23.35-25.263,57.366-34.239,98.385l-0.023,0.076
	c-9.034,28.306-23.853,68.666-43.142,100.193c-9.202,15.043-18.617,26.73-27.983,34.739c-10.399,8.897-20.928,13.409-31.29,13.409
	c-12.925,0-24.886-5.123-36.569-15.663c-9.654-8.708-19.289-21.386-29.455-38.759c-8.498-14.521-16.517-30.782-24.29-46.545
	l-1.419-2.88c-8.842-17.916-16.853-33.869-25.373-47.664l-0.001-0.001c-17.429-31.441-38.178-48.061-60.003-48.061
	c-16.261,0-32.402,9.607-46.68,27.784c-13.804,17.57-25.9,43.118-34.984,73.881l-0.018,0.06l-0.013-0.004l-1.456,4.854
	c-11.103,36.998-21.416,65.177-31.53,86.147c-6.666,13.818-13.299,24.523-19.713,31.819c-7.184,8.168-14.307,12.31-21.17,12.31
	c-7.193,0-14.691-5.288-22.286-15.717c-6.789-9.323-13.883-23.086-21.088-40.905c-14.389-35.591-27.368-82.506-37.066-119.401
	l-0.002-2.782l-0.147-0.591c-8.169-32.948-18.536-60.142-29.982-78.643c-12.101-19.56-25.106-29.477-38.656-29.477
	c-14.466,0-28.263,11.24-41.007,33.409c-12.149,21.131-22.868,51.933-30.997,89.067L447.612,206
	c-8.173,25.605-21.58,62.117-39.033,90.647c-8.321,13.605-16.838,24.18-25.316,31.43c-9.412,8.05-18.935,12.131-28.305,12.131
	c-11.69,0-22.512-4.635-33.081-14.169c-8.733-7.878-17.451-19.349-26.649-35.066c-7.692-13.144-14.947-27.857-21.977-42.114
	l-1.283-2.602c-7.995-16.205-15.241-30.635-22.917-43.059l-0.039-0.064c-19.92-35.94-40.518-43.484-54.29-43.484
	c-14.714,0-29.32,8.692-42.239,25.138c-12.483,15.89-23.421,38.986-31.636,66.794c-0.67,2.1-19.408,60.704-29.888,82.432
	c-6.03,12.5-12.03,22.186-17.836,28.787c-6.944,7.896-13.096,11.542-18.801,11.148c-12.274-0.848-29.513-22.978-47.294-60.713
	l-2.132-4.524L4.5,308.898v21.836c17.735,34.275,34.235,52.162,49.131,53.191c0.524,0.036,1.046,0.054,1.569,0.054
	c8.493,0,16.836-4.784,25.451-14.581c6.495-7.386,12.819-17.541,19.333-31.047c10.924-22.648,29.636-81.309,30.426-83.795
	l0.031-0.101c7.861-26.628,18.209-48.585,29.924-63.498c10.951-13.94,22.831-21.309,34.356-21.309
	c15.659,0,31.826,13.611,45.558,38.385l0.205,0.348c7.484,12.114,14.616,26.32,22.496,42.291l1.296,2.629
	c7.094,14.386,14.429,29.263,22.301,42.715c9.86,16.848,18.943,28.745,28.583,37.441c12.321,11.114,25.71,16.749,39.797,16.749
	c11.828,0,23.544-4.891,34.822-14.537c9.277-7.934,18.479-19.31,27.349-33.812c17.973-29.38,31.688-66.693,40.03-92.827l0.241-0.9
	c7.915-36.158,18.254-65.977,29.9-86.233c10.676-18.57,21.852-28.386,32.319-28.386c9.703,0,20.123,8.552,30.133,24.732
	c10.839,17.521,20.736,43.514,28.634,75.2v2.843l0.329,1.255c9.775,37.183,22.867,84.495,37.467,120.607
	c7.617,18.839,14.902,32.918,22.274,43.043c9.721,13.348,19.661,19.837,30.389,19.837c9.873,0,19.528-5.286,28.698-15.713
	c7.113-8.089,14.051-19.236,21.21-34.078c9.896-20.515,19.932-47.626,30.634-82.765l0.066,0.021l2.9-9.825
	c8.729-29.561,20.229-53.952,33.258-70.537c12.31-15.671,25.726-23.955,38.797-23.955c17.706,0,35.902,15.236,51.226,42.881
	l0.25,0.429c8.285,13.411,16.186,29.145,24.915,46.835l1.437,2.915c7.832,15.882,15.931,32.305,24.609,47.135
	c10.841,18.525,20.815,31.597,31.389,41.134c13.419,12.105,27.981,18.243,43.285,18.243c12.822,0,25.542-5.321,37.807-15.815
	c10.166-8.691,20.266-21.181,30.016-37.121c19.791-32.347,34.908-73.465,44.112-102.292l0.274-0.984
	c8.761-40.059,20.227-73.121,33.158-95.612c12-20.871,24.669-31.903,36.638-31.903c12.289,0,25.262,11.575,37.512,33.475
	c8.4,15.004,16.18,42.069,23.043,65.948c3.8,13.217,7.388,25.701,10.697,34.757c11.055,30.244,22.484,61.519,44.285,62.296
	c0.618,0.021,1.229,0.032,1.832,0.032c23.137,0,36.704-15.888,47.66-28.718c7.135-8.354,13.296-15.57,19.794-15.988
	c24.416-1.573,36.794,30.847,51.137,68.384c5.565,14.565,9.672,19.237,16.53,33.115l8.984,17.412V308.898z"/>
</svg>
